<svg xmlns="http://www.w3.org/2000/svg" xmlns:xlink="http://www.w3.org/1999/xlink" width="500" zoomAndPan="magnify" viewBox="0 0 375 374.999991" height="500" preserveAspectRatio="xMidYMid meet" version="1.0"><defs><clipPath id="2ca40a64df"><path d="M 0 0 L 294 0 L 294 293.25 L 0 293.25 Z M 0 0 " clip-rule="nonzero"/></clipPath><clipPath id="2b6e030564"><path d="M 87.300781 88.019531 L 374.996094 88.019531 L 374.996094 375 L 87.300781 375 Z M 87.300781 88.019531 " clip-rule="nonzero"/></clipPath></defs><g clip-path="url(#2ca40a64df)"><path fill="#1d3c6a" d="M 152.105469 13.976562 C 81.433594 13.976562 23.941406 69.792969 23.941406 138.402344 C 23.941406 163.304688 31.488281 187.335938 45.765625 207.894531 C 48.726562 212.15625 48.238281 218.464844 44.085938 229.671875 C 41.566406 236.46875 37.621094 245.210938 32.371094 255.648438 C 29.960938 260.4375 27.484375 265.164062 25.15625 269.507812 C 29.984375 267.050781 35.292969 264.40625 40.679688 261.824219 C 51.671875 256.550781 60.863281 252.546875 67.996094 249.925781 C 79.515625 245.6875 85.667969 244.933594 89.929688 247.234375 C 108.832031 257.433594 130.332031 262.828125 152.105469 262.828125 C 222.777344 262.828125 280.269531 207.011719 280.269531 138.402344 C 280.269531 69.792969 222.777344 13.976562 152.105469 13.976562 Z M 7.675781 293.566406 C 5.832031 293.566406 4.015625 292.839844 2.664062 291.453125 C 0.472656 289.203125 0.0546875 285.769531 1.632812 283.058594 C 1.71875 282.910156 10.273438 268.203125 18.515625 252.0625 C 32.15625 225.351562 33.585938 217.027344 33.6875 215 C 18.160156 192.28125 9.960938 165.820312 9.960938 138.402344 C 9.960938 119.699219 13.730469 101.550781 21.160156 84.464844 C 28.335938 67.976562 38.597656 53.175781 51.664062 40.46875 C 64.71875 27.773438 79.917969 17.808594 96.839844 10.851562 C 114.347656 3.652344 132.945312 0 152.105469 0 C 171.269531 0 189.859375 3.652344 207.371094 10.851562 C 224.292969 17.808594 239.492188 27.773438 252.546875 40.46875 C 265.613281 53.175781 275.878906 67.976562 283.046875 84.464844 C 290.480469 101.550781 294.25 119.699219 294.25 138.402344 C 294.25 157.109375 290.480469 175.257812 283.046875 192.34375 C 275.878906 208.828125 265.613281 223.632812 252.546875 236.339844 C 239.492188 249.03125 224.292969 258.996094 207.371094 265.953125 C 189.859375 273.15625 171.269531 276.808594 152.105469 276.808594 C 139.871094 276.808594 127.71875 275.292969 115.992188 272.300781 C 104.875 269.464844 94.125 265.304688 84.027344 259.933594 C 82.167969 260.007812 73.714844 261.332031 44.285156 275.605469 C 27.003906 283.988281 11.183594 292.625 11.023438 292.710938 C 9.96875 293.285156 8.820312 293.566406 7.675781 293.566406 " fill-opacity="1" fill-rule="nonzero"/></g><g clip-path="url(#2b6e030564)"><path fill="#d32f2f" d="M 226.296875 101.683594 C 295.382812 101.683594 351.589844 156.246094 351.589844 223.316406 C 351.589844 247.660156 344.210938 271.152344 330.253906 291.246094 C 327.359375 295.414062 327.835938 301.582031 331.894531 312.535156 C 334.359375 319.183594 338.214844 327.726562 343.347656 337.929688 C 345.703125 342.613281 348.125 347.234375 350.402344 351.480469 C 345.679688 349.078125 340.488281 346.492188 335.222656 343.96875 C 324.480469 338.8125 315.496094 334.898438 308.519531 332.335938 C 297.257812 328.195312 291.246094 327.457031 287.078125 329.707031 C 268.601562 339.679688 247.582031 344.949219 226.296875 344.949219 C 157.214844 344.949219 101.007812 290.386719 101.007812 223.316406 C 101.007812 156.246094 157.214844 101.683594 226.296875 101.683594 Z M 367.488281 375 C 369.289062 375 371.066406 374.289062 372.386719 372.929688 C 374.527344 370.734375 374.941406 367.378906 373.394531 364.726562 C 373.3125 364.582031 364.949219 350.207031 356.890625 334.425781 C 343.558594 308.3125 342.15625 300.179688 342.0625 298.195312 C 357.238281 275.984375 365.253906 250.117188 365.253906 223.316406 C 365.253906 205.03125 361.570312 187.289062 354.304688 170.585938 C 347.292969 154.46875 337.261719 140 324.488281 127.578125 C 311.726562 115.171875 296.867188 105.429688 280.324219 98.625 C 263.207031 91.585938 245.03125 88.015625 226.296875 88.015625 C 207.566406 88.015625 189.390625 91.585938 172.269531 98.625 C 155.730469 105.429688 140.871094 115.171875 128.113281 127.578125 C 115.335938 140 105.304688 154.46875 98.292969 170.585938 C 91.027344 187.289062 87.34375 205.03125 87.34375 223.316406 C 87.34375 241.601562 91.027344 259.34375 98.292969 276.046875 C 105.304688 292.164062 115.335938 306.632812 128.113281 319.054688 C 140.871094 331.460938 155.730469 341.203125 172.269531 348.007812 C 189.390625 355.046875 207.566406 358.613281 226.296875 358.613281 C 238.257812 358.613281 250.136719 357.132812 261.601562 354.207031 C 272.46875 351.4375 282.976562 347.371094 292.847656 342.117188 C 294.664062 342.195312 302.929688 343.488281 331.703125 357.441406 C 348.59375 365.636719 364.058594 374.078125 364.214844 374.160156 C 365.246094 374.726562 366.371094 375 367.488281 375 " fill-opacity="1" fill-rule="nonzero"/></g></svg>