<svg xmlns="http://www.w3.org/2000/svg" xmlns:xlink="http://www.w3.org/1999/xlink" width="500" zoomAndPan="magnify" viewBox="0 0 375 374.999991" height="500" preserveAspectRatio="xMidYMid meet" version="1.0"><defs><clipPath id="cafdea8fd0"><path d="M 0 11 L 232.5 11 L 232.5 265 L 0 265 Z M 0 11 " clip-rule="nonzero"/></clipPath><clipPath id="512e9f75b2"><path d="M 84 94.042969 L 373 94.042969 L 373 364 L 84 364 Z M 84 94.042969 " clip-rule="nonzero"/></clipPath></defs><g clip-path="url(#cafdea8fd0)"><path fill="#004aad" d="M 147.3125 11.152344 C 156.59375 11.125 166.132812 12.273438 175.515625 14.652344 C 187.429688 17.671875 198.242188 22.992188 208.121094 30.261719 C 211.773438 32.949219 215.25 35.851562 218.4375 39.082031 C 222.707031 43.398438 225.890625 48.410156 228.03125 54.085938 C 229.359375 57.582031 230.566406 61.117188 231.210938 64.820312 C 231.625 67.238281 231.875 69.671875 232.0625 72.113281 C 232.226562 74.222656 232.394531 76.335938 232.472656 78.457031 C 232.570312 81.214844 232.097656 83.910156 231.414062 86.582031 C 230.261719 91.070312 228.378906 95.277344 226.46875 99.46875 C 223.757812 105.414062 220.488281 111.0625 217.351562 116.78125 C 214.035156 122.835938 210.875 128.964844 208.769531 135.570312 C 207.371094 139.976562 206.453125 144.476562 206.089844 149.101562 C 205.558594 155.898438 206.539062 162.515625 208.226562 169.066406 C 209.933594 175.671875 212.277344 182.070312 214.59375 188.476562 C 217.269531 195.855469 219.945312 203.238281 221.679688 210.917969 C 222.800781 215.867188 223.589844 220.855469 223.675781 225.957031 C 223.78125 232.089844 223.0625 238.058594 220.679688 243.753906 C 217.976562 250.210938 213.566406 255.222656 207.578125 258.828125 C 202.703125 261.765625 197.359375 263.347656 191.742188 264.105469 C 184.269531 265.117188 176.914062 264.386719 169.613281 262.734375 C 162.65625 261.15625 156.035156 258.621094 149.515625 255.789062 C 143.878906 253.34375 138.332031 250.679688 132.632812 248.390625 C 125.675781 245.59375 118.5625 243.386719 111.109375 242.339844 C 107.40625 241.820312 103.6875 241.5 99.949219 241.359375 C 97.082031 241.253906 94.222656 241.121094 91.351562 241.183594 C 86.203125 241.292969 81.050781 241.429688 75.898438 241.550781 C 70.207031 241.6875 64.515625 241.574219 58.835938 241.199219 C 54.851562 240.9375 50.898438 240.511719 46.957031 239.90625 C 38.867188 238.65625 31.046875 236.503906 23.675781 232.882812 C 18.839844 230.507812 14.355469 227.574219 10.496094 223.792969 C 5.707031 219.101562 2.238281 213.617188 0.828125 206.964844 C 0.152344 203.769531 0.015625 200.546875 0.316406 197.300781 C 0.917969 190.722656 3.058594 184.585938 5.578125 178.546875 C 7.847656 173.097656 10.488281 167.816406 12.960938 162.46875 C 15.921875 156.054688 18.753906 149.589844 20.925781 142.855469 C 22.839844 136.917969 24.171875 130.839844 25.125 124.675781 C 26.035156 118.765625 26.648438 112.820312 27.398438 106.894531 C 28.324219 99.515625 29.480469 92.179688 31.5625 85.015625 C 34.660156 74.328125 39.4375 64.492188 46.320312 55.703125 C 52.183594 48.214844 59.109375 41.863281 66.847656 36.378906 C 79.449219 27.449219 93.28125 21.128906 108.109375 16.902344 C 114.140625 15.183594 120.246094 13.777344 126.441406 12.800781 C 130.664062 12.140625 134.910156 11.667969 139.183594 11.40625 C 141.761719 11.246094 144.328125 11.222656 147.308594 11.171875 Z M 91.398438 235.191406 C 97.964844 235.15625 104.0625 235.378906 110.128906 236.132812 C 115.707031 236.828125 121.15625 238.070312 126.503906 239.777344 C 134.238281 242.246094 141.578125 245.675781 148.96875 248.980469 C 154.917969 251.644531 160.929688 254.167969 167.230469 255.917969 C 173.910156 257.777344 180.679688 258.839844 187.640625 258.441406 C 191.4375 258.226562 195.152344 257.601562 198.730469 256.339844 C 207.636719 253.203125 213.675781 247.246094 216.316406 238.082031 C 217.941406 232.445312 217.992188 226.675781 217.34375 220.898438 C 216.683594 215.023438 215.242188 209.3125 213.484375 203.671875 C 211.988281 198.871094 210.253906 194.15625 208.550781 189.425781 C 206.253906 183.0625 203.980469 176.683594 202.289062 170.121094 C 200.382812 162.742188 199.480469 155.289062 200.167969 147.664062 C 200.707031 141.699219 202.160156 135.972656 204.222656 130.375 C 206.539062 124.074219 209.707031 118.1875 212.945312 112.332031 C 216.386719 106.117188 219.84375 99.90625 222.625 93.355469 C 224.511719 88.910156 225.65625 84.304688 225.855469 79.480469 C 226 75.910156 226.109375 72.332031 225.636719 68.773438 C 225.304688 66.261719 224.988281 63.726562 224.121094 61.34375 C 222.378906 56.589844 220.65625 51.835938 217.683594 47.632812 C 216.429688 45.855469 215.113281 44.164062 213.558594 42.660156 C 209.308594 38.542969 204.671875 34.910156 199.695312 31.710938 C 193.976562 28.039062 187.949219 24.976562 181.53125 22.730469 C 176.078125 20.8125 170.476562 19.476562 164.765625 18.554688 C 160.292969 17.835938 155.789062 17.390625 151.273438 17.1875 C 145.164062 16.914062 139.0625 17.238281 132.988281 17.929688 C 127.417969 18.554688 121.910156 19.558594 116.460938 20.871094 C 104.78125 23.679688 93.554688 27.6875 82.960938 33.410156 C 75.515625 37.433594 68.507812 42.082031 62.152344 47.695312 C 56.960938 52.28125 52.289062 57.328125 48.34375 63.03125 C 41.671875 72.691406 37.628906 83.425781 35.34375 94.875 C 34.066406 101.269531 33.34375 107.75 32.582031 114.222656 C 31.945312 119.664062 31.257812 125.101562 30.253906 130.488281 C 28.535156 139.675781 25.660156 148.5 21.960938 157.066406 C 19.207031 163.4375 16.152344 169.667969 13.257812 175.972656 C 11.207031 180.425781 9.292969 184.941406 7.925781 189.660156 C 6.679688 193.949219 5.886719 198.292969 6.300781 202.800781 C 6.570312 205.691406 7.277344 208.441406 8.519531 211.054688 C 10.683594 215.574219 13.953125 219.183594 17.871094 222.230469 C 22.539062 225.871094 27.765625 228.46875 33.332031 230.40625 C 42.875 233.730469 52.785156 234.945312 62.804688 235.394531 C 67.25 235.59375 71.699219 235.496094 76.144531 235.472656 C 81.382812 235.441406 86.609375 235.105469 91.394531 235.179688 Z M 91.398438 235.191406 " fill-opacity="1" fill-rule="nonzero"/></g><g clip-path="url(#512e9f75b2)"><path fill="#ff3131" d="M 372.3125 207.660156 C 373.296875 223.191406 371.949219 238.007812 368.261719 252.613281 C 364.367188 268.035156 358.046875 282.386719 349.335938 295.679688 C 341.324219 307.914062 331.566406 318.558594 320.085938 327.621094 C 305.742188 338.945312 289.859375 347.441406 272.660156 353.53125 C 264.664062 356.363281 256.507812 358.589844 248.203125 360.25 C 241.621094 361.566406 234.984375 362.53125 228.292969 363.132812 C 224.386719 363.484375 220.480469 363.703125 216.566406 363.820312 C 209 364.046875 201.445312 363.738281 193.914062 362.925781 C 182.460938 361.691406 171.257812 359.335938 160.332031 355.648438 C 143.355469 349.921875 128.214844 341.121094 115.273438 328.667969 C 105.046875 318.820312 96.839844 307.519531 91.097656 294.480469 C 88.273438 288.066406 86.183594 281.421875 85.046875 274.511719 C 83.222656 263.375 84.199219 252.515625 88.644531 242.074219 C 92.464844 233.117188 98.457031 225.878906 106.238281 220.078125 C 113.210938 214.875 120.992188 211.292969 129.304688 208.832031 C 139.136719 205.917969 149.230469 204.890625 159.457031 204.746094 C 169.15625 204.609375 178.800781 205.296875 188.429688 206.316406 C 195.457031 207.0625 202.433594 208.183594 209.414062 209.292969 C 213.726562 209.976562 218.054688 210.570312 222.449219 210.15625 C 223.179688 210.085938 223.863281 209.933594 224.523438 209.617188 C 227.75 208.058594 230.148438 205.75 231.796875 202.492188 C 234.621094 196.890625 235.054688 191.039062 234.109375 184.996094 C 233.429688 180.625 232.167969 176.394531 230.644531 172.253906 C 229.777344 169.875 229.257812 167.417969 228.816406 164.941406 C 227.613281 158.15625 226.496094 151.359375 226.296875 144.449219 C 226.0625 136.128906 227.003906 128 230.285156 120.261719 C 233.925781 111.6875 239.679688 104.96875 247.835938 100.386719 C 252.199219 97.941406 256.886719 96.394531 261.8125 95.570312 C 272.699219 93.734375 283.25 95.28125 293.59375 98.757812 C 303.582031 102.121094 312.71875 107.132812 321.160156 113.394531 C 336.328125 124.664062 348.296875 138.722656 357.28125 155.320312 C 362.3125 164.625 366.035156 174.453125 368.613281 184.710938 C 370.546875 192.425781 371.726562 200.238281 372.304688 207.652344 Z M 365.773438 208.535156 C 365.695312 207.460938 365.640625 206.378906 365.546875 205.304688 C 364.945312 198.472656 363.765625 191.734375 362.03125 185.105469 C 358.640625 172.15625 353.3125 160.0625 345.890625 148.898438 C 337.789062 136.703125 327.898438 126.191406 315.976562 117.648438 C 307.535156 111.597656 298.433594 106.835938 288.417969 103.933594 C 279.386719 101.324219 270.246094 100.351562 260.9375 102.355469 C 256.851562 103.238281 253 104.71875 249.472656 106.960938 C 242.234375 111.550781 237.605469 118.117188 235.007812 126.191406 C 233.105469 132.09375 232.628906 138.175781 232.789062 144.332031 C 232.960938 151.152344 234.125 157.851562 235.59375 164.5 C 236.117188 166.871094 236.667969 169.242188 237.308594 171.578125 C 237.804688 173.398438 238.5 175.160156 238.976562 176.996094 C 239.976562 180.832031 240.78125 184.683594 240.996094 188.675781 C 241.292969 194.097656 240.320312 199.203125 238.15625 204.179688 C 235.910156 209.339844 232.277344 213.015625 227.296875 215.542969 C 225.035156 216.695312 222.710938 217.109375 220.253906 216.992188 C 216.882812 216.832031 213.519531 216.515625 210.183594 215.984375 C 199.164062 214.226562 188.132812 212.566406 176.984375 211.816406 C 169.886719 211.332031 162.773438 211.066406 155.660156 211.328125 C 150.03125 211.539062 144.4375 212.132812 138.894531 213.199219 C 132.453125 214.441406 126.238281 216.371094 120.316406 219.1875 C 112.351562 222.980469 105.417969 228.09375 100.085938 235.210938 C 93.667969 243.769531 90.738281 253.488281 90.710938 264.105469 C 90.691406 272.773438 92.667969 281.058594 95.875 289.074219 C 101.550781 303.296875 110.359375 315.339844 121.558594 325.691406 C 133.941406 337.136719 148.378906 345.035156 164.371094 350.167969 C 181.65625 355.714844 199.40625 357.859375 217.503906 357.324219 C 224.117188 357.121094 230.714844 356.515625 237.273438 355.550781 C 244.675781 354.457031 251.984375 352.96875 259.195312 350.976562 C 276.4375 346.226562 292.527344 338.949219 307.355469 328.9375 C 317.257812 322.246094 326.183594 314.453125 333.964844 305.355469 C 345.042969 292.402344 353.273438 277.824219 358.800781 261.722656 C 364.710938 244.472656 367.007812 226.734375 365.78125 208.550781 Z M 365.773438 208.535156 " fill-opacity="1" fill-rule="nonzero"/></g></svg>