<svg xmlns="http://www.w3.org/2000/svg" xmlns:xlink="http://www.w3.org/1999/xlink" width="900" zoomAndPan="magnify" viewBox="0 0 675 187.499995" height="250" preserveAspectRatio="xMidYMid meet" version="1.0"><defs><g/><clipPath id="dc75c8468f"><path d="M 487.101562 0 L 633.710938 0 L 633.710938 146.234375 L 487.101562 146.234375 Z M 487.101562 0 " clip-rule="nonzero"/></clipPath><clipPath id="891e9457cb"><path d="M 530.632812 43.890625 L 674 43.890625 L 674 187 L 530.632812 187 Z M 530.632812 43.890625 " clip-rule="nonzero"/></clipPath></defs><g clip-path="url(#dc75c8468f)"><path fill="#1d3c6a" d="M 562.953125 6.96875 C 527.710938 6.96875 499.039062 34.804688 499.039062 69.019531 C 499.039062 81.4375 502.804688 93.417969 509.921875 103.671875 C 511.398438 105.796875 511.15625 108.941406 509.085938 114.53125 C 507.828125 117.921875 505.863281 122.277344 503.242188 127.484375 C 502.039062 129.875 500.804688 132.230469 499.644531 134.394531 C 502.054688 133.171875 504.703125 131.851562 507.386719 130.5625 C 512.867188 127.933594 517.449219 125.9375 521.007812 124.628906 C 526.753906 122.515625 529.820312 122.140625 531.945312 123.289062 C 541.371094 128.375 552.09375 131.0625 562.953125 131.0625 C 598.191406 131.0625 626.863281 103.230469 626.863281 69.019531 C 626.863281 34.804688 598.191406 6.96875 562.953125 6.96875 Z M 490.929688 146.394531 C 490.011719 146.394531 489.101562 146.03125 488.429688 145.339844 C 487.335938 144.214844 487.128906 142.503906 487.914062 141.152344 C 487.957031 141.078125 492.222656 133.746094 496.335938 125.695312 C 503.136719 112.375 503.851562 108.226562 503.898438 107.214844 C 496.15625 95.886719 492.066406 82.691406 492.066406 69.019531 C 492.066406 59.691406 493.949219 50.640625 497.652344 42.121094 C 501.230469 33.898438 506.347656 26.515625 512.863281 20.179688 C 519.375 13.851562 526.953125 8.882812 535.390625 5.410156 C 544.125 1.820312 553.394531 0 562.953125 0 C 572.507812 0 581.777344 1.820312 590.511719 5.410156 C 598.949219 8.882812 606.527344 13.851562 613.039062 20.179688 C 619.554688 26.515625 624.671875 33.898438 628.25 42.121094 C 631.957031 50.640625 633.835938 59.691406 633.835938 69.019531 C 633.835938 78.347656 631.957031 87.394531 628.25 95.914062 C 624.671875 104.136719 619.554688 111.519531 613.039062 117.855469 C 606.527344 124.183594 598.949219 129.152344 590.511719 132.625 C 581.777344 136.214844 572.507812 138.035156 562.953125 138.035156 C 556.851562 138.035156 550.792969 137.28125 544.941406 135.789062 C 539.398438 134.375 534.039062 132.300781 529.003906 129.621094 C 528.078125 129.660156 523.859375 130.320312 509.183594 137.4375 C 500.566406 141.617188 492.675781 145.921875 492.597656 145.964844 C 492.074219 146.253906 491.5 146.394531 490.929688 146.394531 " fill-opacity="1" fill-rule="nonzero"/></g><g clip-path="url(#891e9457cb)"><path fill="#d32f2f" d="M 599.949219 50.707031 C 634.402344 50.707031 662.429688 77.914062 662.429688 111.363281 C 662.429688 123.5 658.75 135.214844 651.789062 145.238281 C 650.34375 147.316406 650.582031 150.390625 652.605469 155.851562 C 653.835938 159.167969 655.757812 163.425781 658.320312 168.515625 C 659.492188 170.851562 660.699219 173.15625 661.835938 175.273438 C 659.480469 174.074219 656.894531 172.785156 654.265625 171.527344 C 648.910156 168.957031 644.429688 167.003906 640.953125 165.726562 C 635.335938 163.660156 632.335938 163.292969 630.257812 164.414062 C 621.042969 169.386719 610.5625 172.015625 599.949219 172.015625 C 565.5 172.015625 537.472656 144.808594 537.472656 111.363281 C 537.472656 77.914062 565.5 50.707031 599.949219 50.707031 Z M 670.355469 187 C 671.253906 187 672.140625 186.644531 672.800781 185.96875 C 673.867188 184.875 674.074219 183.199219 673.300781 181.878906 C 673.261719 181.808594 669.089844 174.636719 665.070312 166.769531 C 658.421875 153.746094 657.726562 149.691406 657.675781 148.699219 C 665.246094 137.625 669.242188 124.726562 669.242188 111.363281 C 669.242188 102.242188 667.40625 93.394531 663.78125 85.066406 C 660.285156 77.03125 655.285156 69.8125 648.914062 63.621094 C 642.550781 57.433594 635.140625 52.574219 626.890625 49.183594 C 618.355469 45.671875 609.289062 43.890625 599.949219 43.890625 C 590.609375 43.890625 581.542969 45.671875 573.007812 49.183594 C 564.757812 52.574219 557.351562 57.433594 550.988281 63.621094 C 544.617188 69.8125 539.613281 77.03125 536.117188 85.066406 C 532.492188 93.394531 530.65625 102.242188 530.65625 111.363281 C 530.65625 120.480469 532.492188 129.328125 536.117188 137.65625 C 539.613281 145.691406 544.617188 152.910156 550.988281 159.101562 C 557.351562 165.289062 564.757812 170.148438 573.007812 173.539062 C 581.542969 177.050781 590.609375 178.832031 599.949219 178.832031 C 605.914062 178.832031 611.835938 178.089844 617.554688 176.632812 C 622.972656 175.253906 628.214844 173.222656 633.136719 170.605469 C 634.042969 170.640625 638.164062 171.285156 652.511719 178.246094 C 660.933594 182.332031 668.648438 186.539062 668.722656 186.582031 C 669.238281 186.863281 669.800781 187 670.355469 187 " fill-opacity="1" fill-rule="nonzero"/></g><g fill="#000000" fill-opacity="1"><g transform="translate(0.897616, 46.376327)"><g><path d="M 22.703125 -31.28125 L 22.703125 -27.953125 L 14.1875 -27.953125 L 14.1875 0 L 10.09375 0 L 10.09375 -27.953125 L 1.53125 -27.953125 L 1.53125 -31.28125 Z M 22.703125 -31.28125 "/></g></g></g><g fill="#000000" fill-opacity="1"><g transform="translate(25.177849, 46.376327)"><g><path d="M 15.65625 -25.046875 C 17.507812 -25.046875 19.1875 -24.644531 20.6875 -23.84375 C 22.1875 -23.050781 23.359375 -21.863281 24.203125 -20.28125 C 25.054688 -18.695312 25.484375 -16.769531 25.484375 -14.5 L 25.484375 0 L 21.453125 0 L 21.453125 -13.90625 C 21.453125 -16.363281 20.835938 -18.242188 19.609375 -19.546875 C 18.378906 -20.847656 16.703125 -21.5 14.578125 -21.5 C 12.429688 -21.5 10.71875 -20.820312 9.4375 -19.46875 C 8.164062 -18.125 7.53125 -16.164062 7.53125 -13.59375 L 7.53125 0 L 3.453125 0 L 3.453125 -33.203125 L 7.53125 -33.203125 L 7.53125 -21.09375 C 8.34375 -22.34375 9.457031 -23.3125 10.875 -24 C 12.300781 -24.695312 13.894531 -25.046875 15.65625 -25.046875 Z M 15.65625 -25.046875 "/></g></g></g><g fill="#000000" fill-opacity="1"><g transform="translate(53.901223, 46.376327)"><g><path d="M 25.890625 -13.234375 C 25.890625 -12.460938 25.847656 -11.640625 25.765625 -10.765625 L 6.109375 -10.765625 C 6.253906 -8.347656 7.082031 -6.457031 8.59375 -5.09375 C 10.101562 -3.726562 11.9375 -3.046875 14.09375 -3.046875 C 15.851562 -3.046875 17.320312 -3.457031 18.5 -4.28125 C 19.6875 -5.101562 20.519531 -6.203125 21 -7.578125 L 25.40625 -7.578125 C 24.738281 -5.210938 23.414062 -3.289062 21.4375 -1.8125 C 19.46875 -0.332031 17.019531 0.40625 14.09375 0.40625 C 11.757812 0.40625 9.671875 -0.113281 7.828125 -1.15625 C 5.992188 -2.207031 4.550781 -3.695312 3.5 -5.625 C 2.445312 -7.5625 1.921875 -9.800781 1.921875 -12.34375 C 1.921875 -14.882812 2.429688 -17.113281 3.453125 -19.03125 C 4.472656 -20.945312 5.898438 -22.421875 7.734375 -23.453125 C 9.578125 -24.484375 11.695312 -25 14.09375 -25 C 16.425781 -25 18.488281 -24.488281 20.28125 -23.46875 C 22.070312 -22.445312 23.453125 -21.046875 24.421875 -19.265625 C 25.398438 -17.492188 25.890625 -15.484375 25.890625 -13.234375 Z M 21.671875 -14.09375 C 21.671875 -15.644531 21.328125 -16.984375 20.640625 -18.109375 C 19.953125 -19.234375 19.015625 -20.085938 17.828125 -20.671875 C 16.648438 -21.253906 15.34375 -21.546875 13.90625 -21.546875 C 11.84375 -21.546875 10.085938 -20.882812 8.640625 -19.5625 C 7.191406 -18.25 6.359375 -16.425781 6.140625 -14.09375 Z M 21.671875 -14.09375 "/></g></g></g><g fill="#000000" fill-opacity="1"><g transform="translate(81.726994, 46.376327)"><g/></g></g><g fill="#000000" fill-opacity="1"><g transform="translate(93.71003, 46.376327)"><g><path d="M 19.921875 0 L 12.46875 -12.796875 L 7.53125 -12.796875 L 7.53125 0 L 3.453125 0 L 3.453125 -31.28125 L 13.546875 -31.28125 C 15.910156 -31.28125 17.90625 -30.875 19.53125 -30.0625 C 21.164062 -29.257812 22.382812 -28.164062 23.1875 -26.78125 C 24 -25.40625 24.40625 -23.835938 24.40625 -22.078125 C 24.40625 -19.921875 23.785156 -18.019531 22.546875 -16.375 C 21.304688 -14.726562 19.445312 -13.640625 16.96875 -13.109375 L 24.8125 0 Z M 7.53125 -16.0625 L 13.546875 -16.0625 C 15.765625 -16.0625 17.425781 -16.609375 18.53125 -17.703125 C 19.632812 -18.796875 20.1875 -20.253906 20.1875 -22.078125 C 20.1875 -23.929688 19.640625 -25.363281 18.546875 -26.375 C 17.460938 -27.394531 15.796875 -27.90625 13.546875 -27.90625 L 7.53125 -27.90625 Z M 7.53125 -16.0625 "/></g></g></g><g fill="#000000" fill-opacity="1"><g transform="translate(120.997236, 46.376327)"><g><path d="M 14.1875 0.40625 C 11.875 0.40625 9.78125 -0.113281 7.90625 -1.15625 C 6.039062 -2.207031 4.578125 -3.695312 3.515625 -5.625 C 2.453125 -7.5625 1.921875 -9.800781 1.921875 -12.34375 C 1.921875 -14.851562 2.46875 -17.070312 3.5625 -19 C 4.65625 -20.9375 6.144531 -22.421875 8.03125 -23.453125 C 9.914062 -24.484375 12.023438 -25 14.359375 -25 C 16.691406 -25 18.800781 -24.484375 20.6875 -23.453125 C 22.570312 -22.421875 24.0625 -20.945312 25.15625 -19.03125 C 26.25 -17.113281 26.796875 -14.882812 26.796875 -12.34375 C 26.796875 -9.800781 26.234375 -7.5625 25.109375 -5.625 C 23.984375 -3.695312 22.460938 -2.207031 20.546875 -1.15625 C 18.640625 -0.113281 16.519531 0.40625 14.1875 0.40625 Z M 14.1875 -3.1875 C 15.644531 -3.1875 17.015625 -3.53125 18.296875 -4.21875 C 19.585938 -4.90625 20.628906 -5.9375 21.421875 -7.3125 C 22.210938 -8.6875 22.609375 -10.363281 22.609375 -12.34375 C 22.609375 -14.3125 22.21875 -15.984375 21.4375 -17.359375 C 20.664062 -18.742188 19.648438 -19.769531 18.390625 -20.4375 C 17.140625 -21.113281 15.78125 -21.453125 14.3125 -21.453125 C 12.820312 -21.453125 11.453125 -21.113281 10.203125 -20.4375 C 8.960938 -19.769531 7.96875 -18.742188 7.21875 -17.359375 C 6.476562 -15.984375 6.109375 -14.3125 6.109375 -12.34375 C 6.109375 -10.332031 6.472656 -8.640625 7.203125 -7.265625 C 7.929688 -5.890625 8.910156 -4.863281 10.140625 -4.1875 C 11.367188 -3.519531 12.71875 -3.1875 14.1875 -3.1875 Z M 14.1875 -3.1875 "/></g></g></g><g fill="#000000" fill-opacity="1"><g transform="translate(149.720611, 46.376327)"><g><path d="M 7.53125 -33.203125 L 7.53125 0 L 3.453125 0 L 3.453125 -33.203125 Z M 7.53125 -33.203125 "/></g></g></g><g fill="#000000" fill-opacity="1"><g transform="translate(160.761153, 46.376327)"><g><path d="M 25.890625 -13.234375 C 25.890625 -12.460938 25.847656 -11.640625 25.765625 -10.765625 L 6.109375 -10.765625 C 6.253906 -8.347656 7.082031 -6.457031 8.59375 -5.09375 C 10.101562 -3.726562 11.9375 -3.046875 14.09375 -3.046875 C 15.851562 -3.046875 17.320312 -3.457031 18.5 -4.28125 C 19.6875 -5.101562 20.519531 -6.203125 21 -7.578125 L 25.40625 -7.578125 C 24.738281 -5.210938 23.414062 -3.289062 21.4375 -1.8125 C 19.46875 -0.332031 17.019531 0.40625 14.09375 0.40625 C 11.757812 0.40625 9.671875 -0.113281 7.828125 -1.15625 C 5.992188 -2.207031 4.550781 -3.695312 3.5 -5.625 C 2.445312 -7.5625 1.921875 -9.800781 1.921875 -12.34375 C 1.921875 -14.882812 2.429688 -17.113281 3.453125 -19.03125 C 4.472656 -20.945312 5.898438 -22.421875 7.734375 -23.453125 C 9.578125 -24.484375 11.695312 -25 14.09375 -25 C 16.425781 -25 18.488281 -24.488281 20.28125 -23.46875 C 22.070312 -22.445312 23.453125 -21.046875 24.421875 -19.265625 C 25.398438 -17.492188 25.890625 -15.484375 25.890625 -13.234375 Z M 21.671875 -14.09375 C 21.671875 -15.644531 21.328125 -16.984375 20.640625 -18.109375 C 19.953125 -19.234375 19.015625 -20.085938 17.828125 -20.671875 C 16.648438 -21.253906 15.34375 -21.546875 13.90625 -21.546875 C 11.84375 -21.546875 10.085938 -20.882812 8.640625 -19.5625 C 7.191406 -18.25 6.359375 -16.425781 6.140625 -14.09375 Z M 21.671875 -14.09375 "/></g></g></g><g fill="#000000" fill-opacity="1"><g transform="translate(188.588504, 46.376327)"><g/></g></g><g fill="#000000" fill-opacity="1"><g transform="translate(0.897616, 109.208769)"><g><path d="M 14.1875 0.40625 C 11.875 0.40625 9.78125 -0.113281 7.90625 -1.15625 C 6.039062 -2.207031 4.578125 -3.695312 3.515625 -5.625 C 2.453125 -7.5625 1.921875 -9.800781 1.921875 -12.34375 C 1.921875 -14.851562 2.46875 -17.070312 3.5625 -19 C 4.65625 -20.9375 6.144531 -22.421875 8.03125 -23.453125 C 9.914062 -24.484375 12.023438 -25 14.359375 -25 C 16.691406 -25 18.800781 -24.484375 20.6875 -23.453125 C 22.570312 -22.421875 24.0625 -20.945312 25.15625 -19.03125 C 26.25 -17.113281 26.796875 -14.882812 26.796875 -12.34375 C 26.796875 -9.800781 26.234375 -7.5625 25.109375 -5.625 C 23.984375 -3.695312 22.460938 -2.207031 20.546875 -1.15625 C 18.640625 -0.113281 16.519531 0.40625 14.1875 0.40625 Z M 14.1875 -3.1875 C 15.644531 -3.1875 17.015625 -3.53125 18.296875 -4.21875 C 19.585938 -4.90625 20.628906 -5.9375 21.421875 -7.3125 C 22.210938 -8.6875 22.609375 -10.363281 22.609375 -12.34375 C 22.609375 -14.3125 22.21875 -15.984375 21.4375 -17.359375 C 20.664062 -18.742188 19.648438 -19.769531 18.390625 -20.4375 C 17.140625 -21.113281 15.78125 -21.453125 14.3125 -21.453125 C 12.820312 -21.453125 11.453125 -21.113281 10.203125 -20.4375 C 8.960938 -19.769531 7.96875 -18.742188 7.21875 -17.359375 C 6.476562 -15.984375 6.109375 -14.3125 6.109375 -12.34375 C 6.109375 -10.332031 6.472656 -8.640625 7.203125 -7.265625 C 7.929688 -5.890625 8.910156 -4.863281 10.140625 -4.1875 C 11.367188 -3.519531 12.71875 -3.1875 14.1875 -3.1875 Z M 14.1875 -3.1875 "/></g></g></g><g fill="#000000" fill-opacity="1"><g transform="translate(29.62099, 109.208769)"><g><path d="M 13.46875 -21.21875 L 8.296875 -21.21875 L 8.296875 0 L 4.21875 0 L 4.21875 -21.21875 L 1.03125 -21.21875 L 1.03125 -24.59375 L 4.21875 -24.59375 L 4.21875 -26.34375 C 4.21875 -29.09375 4.925781 -31.101562 6.34375 -32.375 C 7.769531 -33.644531 10.050781 -34.28125 13.1875 -34.28125 L 13.1875 -30.875 C 11.394531 -30.875 10.128906 -30.519531 9.390625 -29.8125 C 8.660156 -29.113281 8.296875 -27.957031 8.296875 -26.34375 L 8.296875 -24.59375 L 13.46875 -24.59375 Z M 13.46875 -21.21875 "/></g></g></g><g fill="#000000" fill-opacity="1"><g transform="translate(44.386596, 109.208769)"><g/></g></g><g fill="#000000" fill-opacity="1"><g transform="translate(56.369632, 109.208769)"><g><path d="M 7.53125 -31.28125 L 7.53125 0 L 3.453125 0 L 3.453125 -31.28125 Z M 7.53125 -31.28125 "/></g></g></g><g fill="#000000" fill-opacity="1"><g transform="translate(67.410174, 109.208769)"><g><path d="M 15.4375 -25.046875 C 18.425781 -25.046875 20.847656 -24.140625 22.703125 -22.328125 C 24.554688 -20.515625 25.484375 -17.90625 25.484375 -14.5 L 25.484375 0 L 21.453125 0 L 21.453125 -13.90625 C 21.453125 -16.363281 20.835938 -18.242188 19.609375 -19.546875 C 18.378906 -20.847656 16.703125 -21.5 14.578125 -21.5 C 12.429688 -21.5 10.71875 -20.820312 9.4375 -19.46875 C 8.164062 -18.125 7.53125 -16.164062 7.53125 -13.59375 L 7.53125 0 L 3.453125 0 L 3.453125 -24.59375 L 7.53125 -24.59375 L 7.53125 -21.09375 C 8.34375 -22.34375 9.441406 -23.3125 10.828125 -24 C 12.222656 -24.695312 13.757812 -25.046875 15.4375 -25.046875 Z M 15.4375 -25.046875 "/></g></g></g><g fill="#000000" fill-opacity="1"><g transform="translate(96.133549, 109.208769)"><g><path d="M 1.921875 -12.34375 C 1.921875 -14.882812 2.429688 -17.101562 3.453125 -19 C 4.472656 -20.90625 5.882812 -22.378906 7.6875 -23.421875 C 9.5 -24.472656 11.570312 -25 13.90625 -25 C 16.925781 -25 19.414062 -24.265625 21.375 -22.796875 C 23.34375 -21.328125 24.640625 -19.289062 25.265625 -16.6875 L 20.859375 -16.6875 C 20.441406 -18.1875 19.628906 -19.367188 18.421875 -20.234375 C 17.210938 -21.109375 15.707031 -21.546875 13.90625 -21.546875 C 11.570312 -21.546875 9.6875 -20.742188 8.25 -19.140625 C 6.820312 -17.535156 6.109375 -15.269531 6.109375 -12.34375 C 6.109375 -9.375 6.820312 -7.082031 8.25 -5.46875 C 9.6875 -3.851562 11.570312 -3.046875 13.90625 -3.046875 C 15.707031 -3.046875 17.203125 -3.460938 18.390625 -4.296875 C 19.585938 -5.140625 20.410156 -6.335938 20.859375 -7.890625 L 25.265625 -7.890625 C 24.609375 -5.378906 23.289062 -3.367188 21.3125 -1.859375 C 19.34375 -0.347656 16.875 0.40625 13.90625 0.40625 C 11.570312 0.40625 9.5 -0.113281 7.6875 -1.15625 C 5.882812 -2.207031 4.472656 -3.691406 3.453125 -5.609375 C 2.429688 -7.523438 1.921875 -9.769531 1.921875 -12.34375 Z M 1.921875 -12.34375 "/></g></g></g><g fill="#000000" fill-opacity="1"><g transform="translate(123.375877, 109.208769)"><g><path d="M 7.53125 -33.203125 L 7.53125 0 L 3.453125 0 L 3.453125 -33.203125 Z M 7.53125 -33.203125 "/></g></g></g><g fill="#000000" fill-opacity="1"><g transform="translate(134.416419, 109.208769)"><g><path d="M 25.265625 -24.59375 L 25.265625 0 L 21.1875 0 L 21.1875 -3.640625 C 20.40625 -2.378906 19.316406 -1.394531 17.921875 -0.6875 C 16.535156 0.0078125 15.003906 0.359375 13.328125 0.359375 C 11.410156 0.359375 9.6875 -0.0351562 8.15625 -0.828125 C 6.632812 -1.617188 5.429688 -2.804688 4.546875 -4.390625 C 3.671875 -5.984375 3.234375 -7.914062 3.234375 -10.1875 L 3.234375 -24.59375 L 7.265625 -24.59375 L 7.265625 -10.71875 C 7.265625 -8.300781 7.878906 -6.441406 9.109375 -5.140625 C 10.335938 -3.835938 12.015625 -3.1875 14.140625 -3.1875 C 16.316406 -3.1875 18.035156 -3.859375 19.296875 -5.203125 C 20.554688 -6.546875 21.1875 -8.503906 21.1875 -11.078125 L 21.1875 -24.59375 Z M 25.265625 -24.59375 "/></g></g></g><g fill="#000000" fill-opacity="1"><g transform="translate(163.139793, 109.208769)"><g><path d="M 12.15625 0.40625 C 10.269531 0.40625 8.578125 0.0820312 7.078125 -0.5625 C 5.585938 -1.207031 4.410156 -2.101562 3.546875 -3.25 C 2.679688 -4.40625 2.203125 -5.726562 2.109375 -7.21875 L 6.328125 -7.21875 C 6.441406 -6 7.015625 -5 8.046875 -4.21875 C 9.085938 -3.4375 10.441406 -3.046875 12.109375 -3.046875 C 13.671875 -3.046875 14.898438 -3.390625 15.796875 -4.078125 C 16.691406 -4.765625 17.140625 -5.632812 17.140625 -6.6875 C 17.140625 -7.757812 16.660156 -8.554688 15.703125 -9.078125 C 14.742188 -9.609375 13.265625 -10.128906 11.265625 -10.640625 C 9.441406 -11.117188 7.953125 -11.601562 6.796875 -12.09375 C 5.648438 -12.582031 4.664062 -13.3125 3.84375 -14.28125 C 3.019531 -15.257812 2.609375 -16.539062 2.609375 -18.125 C 2.609375 -19.382812 2.976562 -20.535156 3.71875 -21.578125 C 4.46875 -22.628906 5.53125 -23.460938 6.90625 -24.078125 C 8.28125 -24.691406 9.851562 -25 11.625 -25 C 14.34375 -25 16.539062 -24.304688 18.21875 -22.921875 C 19.894531 -21.546875 20.789062 -19.664062 20.90625 -17.28125 L 16.828125 -17.28125 C 16.734375 -18.5625 16.210938 -19.59375 15.265625 -20.375 C 14.328125 -21.15625 13.066406 -21.546875 11.484375 -21.546875 C 10.023438 -21.546875 8.859375 -21.226562 7.984375 -20.59375 C 7.117188 -19.96875 6.6875 -19.144531 6.6875 -18.125 C 6.6875 -17.320312 6.945312 -16.65625 7.46875 -16.125 C 7.988281 -15.601562 8.644531 -15.1875 9.4375 -14.875 C 10.238281 -14.5625 11.34375 -14.210938 12.75 -13.828125 C 14.507812 -13.347656 15.941406 -12.875 17.046875 -12.40625 C 18.160156 -11.945312 19.113281 -11.253906 19.90625 -10.328125 C 20.695312 -9.398438 21.109375 -8.1875 21.140625 -6.6875 C 21.140625 -5.34375 20.765625 -4.128906 20.015625 -3.046875 C 19.265625 -1.972656 18.207031 -1.128906 16.84375 -0.515625 C 15.488281 0.0976562 13.925781 0.40625 12.15625 0.40625 Z M 12.15625 0.40625 "/></g></g></g><g fill="#000000" fill-opacity="1"><g transform="translate(186.567301, 109.208769)"><g><path d="M 5.5625 -28.578125 C 4.78125 -28.578125 4.117188 -28.847656 3.578125 -29.390625 C 3.046875 -29.929688 2.78125 -30.59375 2.78125 -31.375 C 2.78125 -32.144531 3.046875 -32.800781 3.578125 -33.34375 C 4.117188 -33.882812 4.78125 -34.15625 5.5625 -34.15625 C 6.3125 -34.15625 6.945312 -33.882812 7.46875 -33.34375 C 7.988281 -32.800781 8.25 -32.144531 8.25 -31.375 C 8.25 -30.59375 7.988281 -29.929688 7.46875 -29.390625 C 6.945312 -28.847656 6.3125 -28.578125 5.5625 -28.578125 Z M 7.53125 -24.59375 L 7.53125 0 L 3.453125 0 L 3.453125 -24.59375 Z M 7.53125 -24.59375 "/></g></g></g><g fill="#000000" fill-opacity="1"><g transform="translate(197.607843, 109.208769)"><g><path d="M 12.609375 -3.765625 L 20.234375 -24.59375 L 24.59375 -24.59375 L 14.9375 0 L 10.1875 0 L 0.53125 -24.59375 L 4.9375 -24.59375 Z M 12.609375 -3.765625 "/></g></g></g><g fill="#000000" fill-opacity="1"><g transform="translate(222.78568, 109.208769)"><g><path d="M 25.890625 -13.234375 C 25.890625 -12.460938 25.847656 -11.640625 25.765625 -10.765625 L 6.109375 -10.765625 C 6.253906 -8.347656 7.082031 -6.457031 8.59375 -5.09375 C 10.101562 -3.726562 11.9375 -3.046875 14.09375 -3.046875 C 15.851562 -3.046875 17.320312 -3.457031 18.5 -4.28125 C 19.6875 -5.101562 20.519531 -6.203125 21 -7.578125 L 25.40625 -7.578125 C 24.738281 -5.210938 23.414062 -3.289062 21.4375 -1.8125 C 19.46875 -0.332031 17.019531 0.40625 14.09375 0.40625 C 11.757812 0.40625 9.671875 -0.113281 7.828125 -1.15625 C 5.992188 -2.207031 4.550781 -3.695312 3.5 -5.625 C 2.445312 -7.5625 1.921875 -9.800781 1.921875 -12.34375 C 1.921875 -14.882812 2.429688 -17.113281 3.453125 -19.03125 C 4.472656 -20.945312 5.898438 -22.421875 7.734375 -23.453125 C 9.578125 -24.484375 11.695312 -25 14.09375 -25 C 16.425781 -25 18.488281 -24.488281 20.28125 -23.46875 C 22.070312 -22.445312 23.453125 -21.046875 24.421875 -19.265625 C 25.398438 -17.492188 25.890625 -15.484375 25.890625 -13.234375 Z M 21.671875 -14.09375 C 21.671875 -15.644531 21.328125 -16.984375 20.640625 -18.109375 C 19.953125 -19.234375 19.015625 -20.085938 17.828125 -20.671875 C 16.648438 -21.253906 15.34375 -21.546875 13.90625 -21.546875 C 11.84375 -21.546875 10.085938 -20.882812 8.640625 -19.5625 C 7.191406 -18.25 6.359375 -16.425781 6.140625 -14.09375 Z M 21.671875 -14.09375 "/></g></g></g><g fill="#000000" fill-opacity="1"><g transform="translate(250.61144, 109.208769)"><g/></g></g><g fill="#000000" fill-opacity="1"><g transform="translate(262.594476, 109.208769)"><g><path d="M 7.53125 -3.328125 L 18.484375 -3.328125 L 18.484375 0 L 3.453125 0 L 3.453125 -31.28125 L 7.53125 -31.28125 Z M 7.53125 -3.328125 "/></g></g></g><g fill="#000000" fill-opacity="1"><g transform="translate(281.98276, 109.208769)"><g><path d="M 1.921875 -12.390625 C 1.921875 -14.898438 2.429688 -17.101562 3.453125 -19 C 4.472656 -20.90625 5.875 -22.378906 7.65625 -23.421875 C 9.4375 -24.472656 11.414062 -25 13.59375 -25 C 15.75 -25 17.617188 -24.535156 19.203125 -23.609375 C 20.785156 -22.679688 21.96875 -21.515625 22.75 -20.109375 L 22.75 -24.59375 L 26.875 -24.59375 L 26.875 0 L 22.75 0 L 22.75 -4.578125 C 21.945312 -3.140625 20.742188 -1.945312 19.140625 -1 C 17.535156 -0.0625 15.671875 0.40625 13.546875 0.40625 C 11.367188 0.40625 9.394531 -0.128906 7.625 -1.203125 C 5.863281 -2.285156 4.472656 -3.796875 3.453125 -5.734375 C 2.429688 -7.679688 1.921875 -9.898438 1.921875 -12.390625 Z M 22.75 -12.34375 C 22.75 -14.195312 22.375 -15.8125 21.625 -17.1875 C 20.882812 -18.5625 19.875 -19.613281 18.59375 -20.34375 C 17.320312 -21.082031 15.925781 -21.453125 14.40625 -21.453125 C 12.875 -21.453125 11.476562 -21.09375 10.21875 -20.375 C 8.96875 -19.65625 7.96875 -18.609375 7.21875 -17.234375 C 6.476562 -15.859375 6.109375 -14.242188 6.109375 -12.390625 C 6.109375 -10.503906 6.476562 -8.863281 7.21875 -7.46875 C 7.96875 -6.082031 8.96875 -5.019531 10.21875 -4.28125 C 11.476562 -3.550781 12.875 -3.1875 14.40625 -3.1875 C 15.925781 -3.1875 17.320312 -3.550781 18.59375 -4.28125 C 19.875 -5.019531 20.882812 -6.082031 21.625 -7.46875 C 22.375 -8.863281 22.75 -10.488281 22.75 -12.34375 Z M 22.75 -12.34375 "/></g></g></g><g fill="#000000" fill-opacity="1"><g transform="translate(312.321828, 109.208769)"><g><path d="M 15.4375 -25.046875 C 18.425781 -25.046875 20.847656 -24.140625 22.703125 -22.328125 C 24.554688 -20.515625 25.484375 -17.90625 25.484375 -14.5 L 25.484375 0 L 21.453125 0 L 21.453125 -13.90625 C 21.453125 -16.363281 20.835938 -18.242188 19.609375 -19.546875 C 18.378906 -20.847656 16.703125 -21.5 14.578125 -21.5 C 12.429688 -21.5 10.71875 -20.820312 9.4375 -19.46875 C 8.164062 -18.125 7.53125 -16.164062 7.53125 -13.59375 L 7.53125 0 L 3.453125 0 L 3.453125 -24.59375 L 7.53125 -24.59375 L 7.53125 -21.09375 C 8.34375 -22.34375 9.441406 -23.3125 10.828125 -24 C 12.222656 -24.695312 13.757812 -25.046875 15.4375 -25.046875 Z M 15.4375 -25.046875 "/></g></g></g><g fill="#000000" fill-opacity="1"><g transform="translate(341.045203, 109.208769)"><g><path d="M 13.59375 -25 C 15.71875 -25 17.578125 -24.535156 19.171875 -23.609375 C 20.773438 -22.679688 21.96875 -21.515625 22.75 -20.109375 L 22.75 -24.59375 L 26.875 -24.59375 L 26.875 0.53125 C 26.875 2.78125 26.394531 4.78125 25.4375 6.53125 C 24.488281 8.28125 23.125 9.644531 21.34375 10.625 C 19.5625 11.613281 17.488281 12.109375 15.125 12.109375 C 11.894531 12.109375 9.203125 11.34375 7.046875 9.8125 C 4.890625 8.289062 3.617188 6.21875 3.234375 3.59375 L 7.265625 3.59375 C 7.710938 5.082031 8.640625 6.285156 10.046875 7.203125 C 11.453125 8.117188 13.144531 8.578125 15.125 8.578125 C 17.363281 8.578125 19.191406 7.875 20.609375 6.46875 C 22.035156 5.0625 22.75 3.082031 22.75 0.53125 L 22.75 -4.625 C 21.945312 -3.1875 20.75 -1.988281 19.15625 -1.03125 C 17.570312 -0.0703125 15.71875 0.40625 13.59375 0.40625 C 11.414062 0.40625 9.4375 -0.128906 7.65625 -1.203125 C 5.875 -2.285156 4.472656 -3.796875 3.453125 -5.734375 C 2.429688 -7.679688 1.921875 -9.898438 1.921875 -12.390625 C 1.921875 -14.898438 2.429688 -17.101562 3.453125 -19 C 4.472656 -20.90625 5.875 -22.378906 7.65625 -23.421875 C 9.4375 -24.472656 11.414062 -25 13.59375 -25 Z M 22.75 -12.34375 C 22.75 -14.195312 22.375 -15.8125 21.625 -17.1875 C 20.882812 -18.5625 19.875 -19.613281 18.59375 -20.34375 C 17.320312 -21.082031 15.925781 -21.453125 14.40625 -21.453125 C 12.875 -21.453125 11.476562 -21.09375 10.21875 -20.375 C 8.96875 -19.65625 7.96875 -18.609375 7.21875 -17.234375 C 6.476562 -15.859375 6.109375 -14.242188 6.109375 -12.390625 C 6.109375 -10.503906 6.476562 -8.863281 7.21875 -7.46875 C 7.96875 -6.082031 8.96875 -5.019531 10.21875 -4.28125 C 11.476562 -3.550781 12.875 -3.1875 14.40625 -3.1875 C 15.925781 -3.1875 17.320312 -3.550781 18.59375 -4.28125 C 19.875 -5.019531 20.882812 -6.082031 21.625 -7.46875 C 22.375 -8.863281 22.75 -10.488281 22.75 -12.34375 Z M 22.75 -12.34375 "/></g></g></g><g fill="#000000" fill-opacity="1"><g transform="translate(371.384272, 109.208769)"><g><path d="M 25.265625 -24.59375 L 25.265625 0 L 21.1875 0 L 21.1875 -3.640625 C 20.40625 -2.378906 19.316406 -1.394531 17.921875 -0.6875 C 16.535156 0.0078125 15.003906 0.359375 13.328125 0.359375 C 11.410156 0.359375 9.6875 -0.0351562 8.15625 -0.828125 C 6.632812 -1.617188 5.429688 -2.804688 4.546875 -4.390625 C 3.671875 -5.984375 3.234375 -7.914062 3.234375 -10.1875 L 3.234375 -24.59375 L 7.265625 -24.59375 L 7.265625 -10.71875 C 7.265625 -8.300781 7.878906 -6.441406 9.109375 -5.140625 C 10.335938 -3.835938 12.015625 -3.1875 14.140625 -3.1875 C 16.316406 -3.1875 18.035156 -3.859375 19.296875 -5.203125 C 20.554688 -6.546875 21.1875 -8.503906 21.1875 -11.078125 L 21.1875 -24.59375 Z M 25.265625 -24.59375 "/></g></g></g><g fill="#000000" fill-opacity="1"><g transform="translate(400.107624, 109.208769)"><g><path d="M 1.921875 -12.390625 C 1.921875 -14.898438 2.429688 -17.101562 3.453125 -19 C 4.472656 -20.90625 5.875 -22.378906 7.65625 -23.421875 C 9.4375 -24.472656 11.414062 -25 13.59375 -25 C 15.75 -25 17.617188 -24.535156 19.203125 -23.609375 C 20.785156 -22.679688 21.96875 -21.515625 22.75 -20.109375 L 22.75 -24.59375 L 26.875 -24.59375 L 26.875 0 L 22.75 0 L 22.75 -4.578125 C 21.945312 -3.140625 20.742188 -1.945312 19.140625 -1 C 17.535156 -0.0625 15.671875 0.40625 13.546875 0.40625 C 11.367188 0.40625 9.394531 -0.128906 7.625 -1.203125 C 5.863281 -2.285156 4.472656 -3.796875 3.453125 -5.734375 C 2.429688 -7.679688 1.921875 -9.898438 1.921875 -12.390625 Z M 22.75 -12.34375 C 22.75 -14.195312 22.375 -15.8125 21.625 -17.1875 C 20.882812 -18.5625 19.875 -19.613281 18.59375 -20.34375 C 17.320312 -21.082031 15.925781 -21.453125 14.40625 -21.453125 C 12.875 -21.453125 11.476562 -21.09375 10.21875 -20.375 C 8.96875 -19.65625 7.96875 -18.609375 7.21875 -17.234375 C 6.476562 -15.859375 6.109375 -14.242188 6.109375 -12.390625 C 6.109375 -10.503906 6.476562 -8.863281 7.21875 -7.46875 C 7.96875 -6.082031 8.96875 -5.019531 10.21875 -4.28125 C 11.476562 -3.550781 12.875 -3.1875 14.40625 -3.1875 C 15.925781 -3.1875 17.320312 -3.550781 18.59375 -4.28125 C 19.875 -5.019531 20.882812 -6.082031 21.625 -7.46875 C 22.375 -8.863281 22.75 -10.488281 22.75 -12.34375 Z M 22.75 -12.34375 "/></g></g></g><g fill="#000000" fill-opacity="1"><g transform="translate(430.446671, 109.208769)"><g><path d="M 13.59375 -25 C 15.71875 -25 17.578125 -24.535156 19.171875 -23.609375 C 20.773438 -22.679688 21.96875 -21.515625 22.75 -20.109375 L 22.75 -24.59375 L 26.875 -24.59375 L 26.875 0.53125 C 26.875 2.78125 26.394531 4.78125 25.4375 6.53125 C 24.488281 8.28125 23.125 9.644531 21.34375 10.625 C 19.5625 11.613281 17.488281 12.109375 15.125 12.109375 C 11.894531 12.109375 9.203125 11.34375 7.046875 9.8125 C 4.890625 8.289062 3.617188 6.21875 3.234375 3.59375 L 7.265625 3.59375 C 7.710938 5.082031 8.640625 6.285156 10.046875 7.203125 C 11.453125 8.117188 13.144531 8.578125 15.125 8.578125 C 17.363281 8.578125 19.191406 7.875 20.609375 6.46875 C 22.035156 5.0625 22.75 3.082031 22.75 0.53125 L 22.75 -4.625 C 21.945312 -3.1875 20.75 -1.988281 19.15625 -1.03125 C 17.570312 -0.0703125 15.71875 0.40625 13.59375 0.40625 C 11.414062 0.40625 9.4375 -0.128906 7.65625 -1.203125 C 5.875 -2.285156 4.472656 -3.796875 3.453125 -5.734375 C 2.429688 -7.679688 1.921875 -9.898438 1.921875 -12.390625 C 1.921875 -14.898438 2.429688 -17.101562 3.453125 -19 C 4.472656 -20.90625 5.875 -22.378906 7.65625 -23.421875 C 9.4375 -24.472656 11.414062 -25 13.59375 -25 Z M 22.75 -12.34375 C 22.75 -14.195312 22.375 -15.8125 21.625 -17.1875 C 20.882812 -18.5625 19.875 -19.613281 18.59375 -20.34375 C 17.320312 -21.082031 15.925781 -21.453125 14.40625 -21.453125 C 12.875 -21.453125 11.476562 -21.09375 10.21875 -20.375 C 8.96875 -19.65625 7.96875 -18.609375 7.21875 -17.234375 C 6.476562 -15.859375 6.109375 -14.242188 6.109375 -12.390625 C 6.109375 -10.503906 6.476562 -8.863281 7.21875 -7.46875 C 7.96875 -6.082031 8.96875 -5.019531 10.21875 -4.28125 C 11.476562 -3.550781 12.875 -3.1875 14.40625 -3.1875 C 15.925781 -3.1875 17.320312 -3.550781 18.59375 -4.28125 C 19.875 -5.019531 20.882812 -6.082031 21.625 -7.46875 C 22.375 -8.863281 22.75 -10.488281 22.75 -12.34375 Z M 22.75 -12.34375 "/></g></g></g><g fill="#000000" fill-opacity="1"><g transform="translate(460.785717, 109.208769)"><g><path d="M 25.890625 -13.234375 C 25.890625 -12.460938 25.847656 -11.640625 25.765625 -10.765625 L 6.109375 -10.765625 C 6.253906 -8.347656 7.082031 -6.457031 8.59375 -5.09375 C 10.101562 -3.726562 11.9375 -3.046875 14.09375 -3.046875 C 15.851562 -3.046875 17.320312 -3.457031 18.5 -4.28125 C 19.6875 -5.101562 20.519531 -6.203125 21 -7.578125 L 25.40625 -7.578125 C 24.738281 -5.210938 23.414062 -3.289062 21.4375 -1.8125 C 19.46875 -0.332031 17.019531 0.40625 14.09375 0.40625 C 11.757812 0.40625 9.671875 -0.113281 7.828125 -1.15625 C 5.992188 -2.207031 4.550781 -3.695312 3.5 -5.625 C 2.445312 -7.5625 1.921875 -9.800781 1.921875 -12.34375 C 1.921875 -14.882812 2.429688 -17.113281 3.453125 -19.03125 C 4.472656 -20.945312 5.898438 -22.421875 7.734375 -23.453125 C 9.578125 -24.484375 11.695312 -25 14.09375 -25 C 16.425781 -25 18.488281 -24.488281 20.28125 -23.46875 C 22.070312 -22.445312 23.453125 -21.046875 24.421875 -19.265625 C 25.398438 -17.492188 25.890625 -15.484375 25.890625 -13.234375 Z M 21.671875 -14.09375 C 21.671875 -15.644531 21.328125 -16.984375 20.640625 -18.109375 C 19.953125 -19.234375 19.015625 -20.085938 17.828125 -20.671875 C 16.648438 -21.253906 15.34375 -21.546875 13.90625 -21.546875 C 11.84375 -21.546875 10.085938 -20.882812 8.640625 -19.5625 C 7.191406 -18.25 6.359375 -16.425781 6.140625 -14.09375 Z M 21.671875 -14.09375 "/></g></g></g><g fill="#000000" fill-opacity="1"><g transform="translate(488.620425, 109.208769)"><g/></g></g><g fill="#000000" fill-opacity="1"><g transform="translate(0.897616, 172.041211)"><g><path d="M 5.5625 -28.578125 C 4.78125 -28.578125 4.117188 -28.847656 3.578125 -29.390625 C 3.046875 -29.929688 2.78125 -30.59375 2.78125 -31.375 C 2.78125 -32.144531 3.046875 -32.800781 3.578125 -33.34375 C 4.117188 -33.882812 4.78125 -34.15625 5.5625 -34.15625 C 6.3125 -34.15625 6.945312 -33.882812 7.46875 -33.34375 C 7.988281 -32.800781 8.25 -32.144531 8.25 -31.375 C 8.25 -30.59375 7.988281 -29.929688 7.46875 -29.390625 C 6.945312 -28.847656 6.3125 -28.578125 5.5625 -28.578125 Z M 7.53125 -24.59375 L 7.53125 0 L 3.453125 0 L 3.453125 -24.59375 Z M 7.53125 -24.59375 "/></g></g></g><g fill="#000000" fill-opacity="1"><g transform="translate(11.938158, 172.041211)"><g><path d="M 15.4375 -25.046875 C 18.425781 -25.046875 20.847656 -24.140625 22.703125 -22.328125 C 24.554688 -20.515625 25.484375 -17.90625 25.484375 -14.5 L 25.484375 0 L 21.453125 0 L 21.453125 -13.90625 C 21.453125 -16.363281 20.835938 -18.242188 19.609375 -19.546875 C 18.378906 -20.847656 16.703125 -21.5 14.578125 -21.5 C 12.429688 -21.5 10.71875 -20.820312 9.4375 -19.46875 C 8.164062 -18.125 7.53125 -16.164062 7.53125 -13.59375 L 7.53125 0 L 3.453125 0 L 3.453125 -24.59375 L 7.53125 -24.59375 L 7.53125 -21.09375 C 8.34375 -22.34375 9.441406 -23.3125 10.828125 -24 C 12.222656 -24.695312 13.757812 -25.046875 15.4375 -25.046875 Z M 15.4375 -25.046875 "/></g></g></g><g fill="#000000" fill-opacity="1"><g transform="translate(40.661533, 172.041211)"><g/></g></g><g fill="#000000" fill-opacity="1"><g transform="translate(52.644569, 172.041211)"><g><path d="M 22.703125 -31.28125 L 22.703125 -27.953125 L 14.1875 -27.953125 L 14.1875 0 L 10.09375 0 L 10.09375 -27.953125 L 1.53125 -27.953125 L 1.53125 -31.28125 Z M 22.703125 -31.28125 "/></g></g></g><g fill="#000000" fill-opacity="1"><g transform="translate(76.924802, 172.041211)"><g><path d="M 25.890625 -13.234375 C 25.890625 -12.460938 25.847656 -11.640625 25.765625 -10.765625 L 6.109375 -10.765625 C 6.253906 -8.347656 7.082031 -6.457031 8.59375 -5.09375 C 10.101562 -3.726562 11.9375 -3.046875 14.09375 -3.046875 C 15.851562 -3.046875 17.320312 -3.457031 18.5 -4.28125 C 19.6875 -5.101562 20.519531 -6.203125 21 -7.578125 L 25.40625 -7.578125 C 24.738281 -5.210938 23.414062 -3.289062 21.4375 -1.8125 C 19.46875 -0.332031 17.019531 0.40625 14.09375 0.40625 C 11.757812 0.40625 9.671875 -0.113281 7.828125 -1.15625 C 5.992188 -2.207031 4.550781 -3.695312 3.5 -5.625 C 2.445312 -7.5625 1.921875 -9.800781 1.921875 -12.34375 C 1.921875 -14.882812 2.429688 -17.113281 3.453125 -19.03125 C 4.472656 -20.945312 5.898438 -22.421875 7.734375 -23.453125 C 9.578125 -24.484375 11.695312 -25 14.09375 -25 C 16.425781 -25 18.488281 -24.488281 20.28125 -23.46875 C 22.070312 -22.445312 23.453125 -21.046875 24.421875 -19.265625 C 25.398438 -17.492188 25.890625 -15.484375 25.890625 -13.234375 Z M 21.671875 -14.09375 C 21.671875 -15.644531 21.328125 -16.984375 20.640625 -18.109375 C 19.953125 -19.234375 19.015625 -20.085938 17.828125 -20.671875 C 16.648438 -21.253906 15.34375 -21.546875 13.90625 -21.546875 C 11.84375 -21.546875 10.085938 -20.882812 8.640625 -19.5625 C 7.191406 -18.25 6.359375 -16.425781 6.140625 -14.09375 Z M 21.671875 -14.09375 "/></g></g></g><g fill="#000000" fill-opacity="1"><g transform="translate(104.750572, 172.041211)"><g><path d="M 1.921875 -12.34375 C 1.921875 -14.882812 2.429688 -17.101562 3.453125 -19 C 4.472656 -20.90625 5.882812 -22.378906 7.6875 -23.421875 C 9.5 -24.472656 11.570312 -25 13.90625 -25 C 16.925781 -25 19.414062 -24.265625 21.375 -22.796875 C 23.34375 -21.328125 24.640625 -19.289062 25.265625 -16.6875 L 20.859375 -16.6875 C 20.441406 -18.1875 19.628906 -19.367188 18.421875 -20.234375 C 17.210938 -21.109375 15.707031 -21.546875 13.90625 -21.546875 C 11.570312 -21.546875 9.6875 -20.742188 8.25 -19.140625 C 6.820312 -17.535156 6.109375 -15.269531 6.109375 -12.34375 C 6.109375 -9.375 6.820312 -7.082031 8.25 -5.46875 C 9.6875 -3.851562 11.570312 -3.046875 13.90625 -3.046875 C 15.707031 -3.046875 17.203125 -3.460938 18.390625 -4.296875 C 19.585938 -5.140625 20.410156 -6.335938 20.859375 -7.890625 L 25.265625 -7.890625 C 24.609375 -5.378906 23.289062 -3.367188 21.3125 -1.859375 C 19.34375 -0.347656 16.875 0.40625 13.90625 0.40625 C 11.570312 0.40625 9.5 -0.113281 7.6875 -1.15625 C 5.882812 -2.207031 4.472656 -3.691406 3.453125 -5.609375 C 2.429688 -7.523438 1.921875 -9.769531 1.921875 -12.34375 Z M 1.921875 -12.34375 "/></g></g></g><g fill="#000000" fill-opacity="1"><g transform="translate(131.9929, 172.041211)"><g><path d="M 15.65625 -25.046875 C 17.507812 -25.046875 19.1875 -24.644531 20.6875 -23.84375 C 22.1875 -23.050781 23.359375 -21.863281 24.203125 -20.28125 C 25.054688 -18.695312 25.484375 -16.769531 25.484375 -14.5 L 25.484375 0 L 21.453125 0 L 21.453125 -13.90625 C 21.453125 -16.363281 20.835938 -18.242188 19.609375 -19.546875 C 18.378906 -20.847656 16.703125 -21.5 14.578125 -21.5 C 12.429688 -21.5 10.71875 -20.820312 9.4375 -19.46875 C 8.164062 -18.125 7.53125 -16.164062 7.53125 -13.59375 L 7.53125 0 L 3.453125 0 L 3.453125 -33.203125 L 7.53125 -33.203125 L 7.53125 -21.09375 C 8.34375 -22.34375 9.457031 -23.3125 10.875 -24 C 12.300781 -24.695312 13.894531 -25.046875 15.65625 -25.046875 Z M 15.65625 -25.046875 "/></g></g></g><g fill="#000000" fill-opacity="1"><g transform="translate(160.716275, 172.041211)"><g><path d="M 15.4375 -25.046875 C 18.425781 -25.046875 20.847656 -24.140625 22.703125 -22.328125 C 24.554688 -20.515625 25.484375 -17.90625 25.484375 -14.5 L 25.484375 0 L 21.453125 0 L 21.453125 -13.90625 C 21.453125 -16.363281 20.835938 -18.242188 19.609375 -19.546875 C 18.378906 -20.847656 16.703125 -21.5 14.578125 -21.5 C 12.429688 -21.5 10.71875 -20.820312 9.4375 -19.46875 C 8.164062 -18.125 7.53125 -16.164062 7.53125 -13.59375 L 7.53125 0 L 3.453125 0 L 3.453125 -24.59375 L 7.53125 -24.59375 L 7.53125 -21.09375 C 8.34375 -22.34375 9.441406 -23.3125 10.828125 -24 C 12.222656 -24.695312 13.757812 -25.046875 15.4375 -25.046875 Z M 15.4375 -25.046875 "/></g></g></g><g fill="#000000" fill-opacity="1"><g transform="translate(189.439649, 172.041211)"><g><path d="M 5.5625 -28.578125 C 4.78125 -28.578125 4.117188 -28.847656 3.578125 -29.390625 C 3.046875 -29.929688 2.78125 -30.59375 2.78125 -31.375 C 2.78125 -32.144531 3.046875 -32.800781 3.578125 -33.34375 C 4.117188 -33.882812 4.78125 -34.15625 5.5625 -34.15625 C 6.3125 -34.15625 6.945312 -33.882812 7.46875 -33.34375 C 7.988281 -32.800781 8.25 -32.144531 8.25 -31.375 C 8.25 -30.59375 7.988281 -29.929688 7.46875 -29.390625 C 6.945312 -28.847656 6.3125 -28.578125 5.5625 -28.578125 Z M 7.53125 -24.59375 L 7.53125 0 L 3.453125 0 L 3.453125 -24.59375 Z M 7.53125 -24.59375 "/></g></g></g><g fill="#000000" fill-opacity="1"><g transform="translate(200.480203, 172.041211)"><g><path d="M 1.921875 -12.34375 C 1.921875 -14.882812 2.429688 -17.101562 3.453125 -19 C 4.472656 -20.90625 5.882812 -22.378906 7.6875 -23.421875 C 9.5 -24.472656 11.570312 -25 13.90625 -25 C 16.925781 -25 19.414062 -24.265625 21.375 -22.796875 C 23.34375 -21.328125 24.640625 -19.289062 25.265625 -16.6875 L 20.859375 -16.6875 C 20.441406 -18.1875 19.628906 -19.367188 18.421875 -20.234375 C 17.210938 -21.109375 15.707031 -21.546875 13.90625 -21.546875 C 11.570312 -21.546875 9.6875 -20.742188 8.25 -19.140625 C 6.820312 -17.535156 6.109375 -15.269531 6.109375 -12.34375 C 6.109375 -9.375 6.820312 -7.082031 8.25 -5.46875 C 9.6875 -3.851562 11.570312 -3.046875 13.90625 -3.046875 C 15.707031 -3.046875 17.203125 -3.460938 18.390625 -4.296875 C 19.585938 -5.140625 20.410156 -6.335938 20.859375 -7.890625 L 25.265625 -7.890625 C 24.609375 -5.378906 23.289062 -3.367188 21.3125 -1.859375 C 19.34375 -0.347656 16.875 0.40625 13.90625 0.40625 C 11.570312 0.40625 9.5 -0.113281 7.6875 -1.15625 C 5.882812 -2.207031 4.472656 -3.691406 3.453125 -5.609375 C 2.429688 -7.523438 1.921875 -9.769531 1.921875 -12.34375 Z M 1.921875 -12.34375 "/></g></g></g><g fill="#000000" fill-opacity="1"><g transform="translate(227.722542, 172.041211)"><g><path d="M 1.921875 -12.390625 C 1.921875 -14.898438 2.429688 -17.101562 3.453125 -19 C 4.472656 -20.90625 5.875 -22.378906 7.65625 -23.421875 C 9.4375 -24.472656 11.414062 -25 13.59375 -25 C 15.75 -25 17.617188 -24.535156 19.203125 -23.609375 C 20.785156 -22.679688 21.96875 -21.515625 22.75 -20.109375 L 22.75 -24.59375 L 26.875 -24.59375 L 26.875 0 L 22.75 0 L 22.75 -4.578125 C 21.945312 -3.140625 20.742188 -1.945312 19.140625 -1 C 17.535156 -0.0625 15.671875 0.40625 13.546875 0.40625 C 11.367188 0.40625 9.394531 -0.128906 7.625 -1.203125 C 5.863281 -2.285156 4.472656 -3.796875 3.453125 -5.734375 C 2.429688 -7.679688 1.921875 -9.898438 1.921875 -12.390625 Z M 22.75 -12.34375 C 22.75 -14.195312 22.375 -15.8125 21.625 -17.1875 C 20.882812 -18.5625 19.875 -19.613281 18.59375 -20.34375 C 17.320312 -21.082031 15.925781 -21.453125 14.40625 -21.453125 C 12.875 -21.453125 11.476562 -21.09375 10.21875 -20.375 C 8.96875 -19.65625 7.96875 -18.609375 7.21875 -17.234375 C 6.476562 -15.859375 6.109375 -14.242188 6.109375 -12.390625 C 6.109375 -10.503906 6.476562 -8.863281 7.21875 -7.46875 C 7.96875 -6.082031 8.96875 -5.019531 10.21875 -4.28125 C 11.476562 -3.550781 12.875 -3.1875 14.40625 -3.1875 C 15.925781 -3.1875 17.320312 -3.550781 18.59375 -4.28125 C 19.875 -5.019531 20.882812 -6.082031 21.625 -7.46875 C 22.375 -8.863281 22.75 -10.488281 22.75 -12.34375 Z M 22.75 -12.34375 "/></g></g></g><g fill="#000000" fill-opacity="1"><g transform="translate(258.061611, 172.041211)"><g><path d="M 7.53125 -33.203125 L 7.53125 0 L 3.453125 0 L 3.453125 -33.203125 Z M 7.53125 -33.203125 "/></g></g></g><g fill="#000000" fill-opacity="1"><g transform="translate(269.102153, 172.041211)"><g/></g></g><g fill="#000000" fill-opacity="1"><g transform="translate(281.085189, 172.041211)"><g><path d="M 42.765625 -31.28125 L 33.703125 0 L 29.125 0 L 21.859375 -25.171875 L 14.3125 0 L 9.78125 0.046875 L 1.03125 -31.28125 L 5.390625 -31.28125 L 12.203125 -4.75 L 19.75 -31.28125 L 24.328125 -31.28125 L 31.5 -4.84375 L 38.375 -31.28125 Z M 42.765625 -31.28125 "/></g></g></g><g fill="#000000" fill-opacity="1"><g transform="translate(324.888353, 172.041211)"><g><path d="M 7.53125 -20.59375 C 8.25 -22 9.273438 -23.09375 10.609375 -23.875 C 11.941406 -24.65625 13.566406 -25.046875 15.484375 -25.046875 L 15.484375 -20.828125 L 14.40625 -20.828125 C 9.820312 -20.828125 7.53125 -18.34375 7.53125 -13.375 L 7.53125 0 L 3.453125 0 L 3.453125 -24.59375 L 7.53125 -24.59375 Z M 7.53125 -20.59375 "/></g></g></g><g fill="#000000" fill-opacity="1"><g transform="translate(341.628691, 172.041211)"><g><path d="M 5.5625 -28.578125 C 4.78125 -28.578125 4.117188 -28.847656 3.578125 -29.390625 C 3.046875 -29.929688 2.78125 -30.59375 2.78125 -31.375 C 2.78125 -32.144531 3.046875 -32.800781 3.578125 -33.34375 C 4.117188 -33.882812 4.78125 -34.15625 5.5625 -34.15625 C 6.3125 -34.15625 6.945312 -33.882812 7.46875 -33.34375 C 7.988281 -32.800781 8.25 -32.144531 8.25 -31.375 C 8.25 -30.59375 7.988281 -29.929688 7.46875 -29.390625 C 6.945312 -28.847656 6.3125 -28.578125 5.5625 -28.578125 Z M 7.53125 -24.59375 L 7.53125 0 L 3.453125 0 L 3.453125 -24.59375 Z M 7.53125 -24.59375 "/></g></g></g><g fill="#000000" fill-opacity="1"><g transform="translate(352.669234, 172.041211)"><g><path d="M 8.4375 -21.21875 L 8.4375 -6.734375 C 8.4375 -5.535156 8.691406 -4.6875 9.203125 -4.1875 C 9.710938 -3.695312 10.59375 -3.453125 11.84375 -3.453125 L 14.859375 -3.453125 L 14.859375 0 L 11.171875 0 C 8.898438 0 7.195312 -0.519531 6.0625 -1.5625 C 4.925781 -2.613281 4.359375 -4.335938 4.359375 -6.734375 L 4.359375 -21.21875 L 1.171875 -21.21875 L 1.171875 -24.59375 L 4.359375 -24.59375 L 4.359375 -30.78125 L 8.4375 -30.78125 L 8.4375 -24.59375 L 14.859375 -24.59375 L 14.859375 -21.21875 Z M 8.4375 -21.21875 "/></g></g></g><g fill="#000000" fill-opacity="1"><g transform="translate(369.005643, 172.041211)"><g><path d="M 5.5625 -28.578125 C 4.78125 -28.578125 4.117188 -28.847656 3.578125 -29.390625 C 3.046875 -29.929688 2.78125 -30.59375 2.78125 -31.375 C 2.78125 -32.144531 3.046875 -32.800781 3.578125 -33.34375 C 4.117188 -33.882812 4.78125 -34.15625 5.5625 -34.15625 C 6.3125 -34.15625 6.945312 -33.882812 7.46875 -33.34375 C 7.988281 -32.800781 8.25 -32.144531 8.25 -31.375 C 8.25 -30.59375 7.988281 -29.929688 7.46875 -29.390625 C 6.945312 -28.847656 6.3125 -28.578125 5.5625 -28.578125 Z M 7.53125 -24.59375 L 7.53125 0 L 3.453125 0 L 3.453125 -24.59375 Z M 7.53125 -24.59375 "/></g></g></g><g fill="#000000" fill-opacity="1"><g transform="translate(380.046185, 172.041211)"><g><path d="M 15.4375 -25.046875 C 18.425781 -25.046875 20.847656 -24.140625 22.703125 -22.328125 C 24.554688 -20.515625 25.484375 -17.90625 25.484375 -14.5 L 25.484375 0 L 21.453125 0 L 21.453125 -13.90625 C 21.453125 -16.363281 20.835938 -18.242188 19.609375 -19.546875 C 18.378906 -20.847656 16.703125 -21.5 14.578125 -21.5 C 12.429688 -21.5 10.71875 -20.820312 9.4375 -19.46875 C 8.164062 -18.125 7.53125 -16.164062 7.53125 -13.59375 L 7.53125 0 L 3.453125 0 L 3.453125 -24.59375 L 7.53125 -24.59375 L 7.53125 -21.09375 C 8.34375 -22.34375 9.441406 -23.3125 10.828125 -24 C 12.222656 -24.695312 13.757812 -25.046875 15.4375 -25.046875 Z M 15.4375 -25.046875 "/></g></g></g><g fill="#000000" fill-opacity="1"><g transform="translate(408.769583, 172.041211)"><g><path d="M 13.59375 -25 C 15.71875 -25 17.578125 -24.535156 19.171875 -23.609375 C 20.773438 -22.679688 21.96875 -21.515625 22.75 -20.109375 L 22.75 -24.59375 L 26.875 -24.59375 L 26.875 0.53125 C 26.875 2.78125 26.394531 4.78125 25.4375 6.53125 C 24.488281 8.28125 23.125 9.644531 21.34375 10.625 C 19.5625 11.613281 17.488281 12.109375 15.125 12.109375 C 11.894531 12.109375 9.203125 11.34375 7.046875 9.8125 C 4.890625 8.289062 3.617188 6.21875 3.234375 3.59375 L 7.265625 3.59375 C 7.710938 5.082031 8.640625 6.285156 10.046875 7.203125 C 11.453125 8.117188 13.144531 8.578125 15.125 8.578125 C 17.363281 8.578125 19.191406 7.875 20.609375 6.46875 C 22.035156 5.0625 22.75 3.082031 22.75 0.53125 L 22.75 -4.625 C 21.945312 -3.1875 20.75 -1.988281 19.15625 -1.03125 C 17.570312 -0.0703125 15.71875 0.40625 13.59375 0.40625 C 11.414062 0.40625 9.4375 -0.128906 7.65625 -1.203125 C 5.875 -2.285156 4.472656 -3.796875 3.453125 -5.734375 C 2.429688 -7.679688 1.921875 -9.898438 1.921875 -12.390625 C 1.921875 -14.898438 2.429688 -17.101562 3.453125 -19 C 4.472656 -20.90625 5.875 -22.378906 7.65625 -23.421875 C 9.4375 -24.472656 11.414062 -25 13.59375 -25 Z M 22.75 -12.34375 C 22.75 -14.195312 22.375 -15.8125 21.625 -17.1875 C 20.882812 -18.5625 19.875 -19.613281 18.59375 -20.34375 C 17.320312 -21.082031 15.925781 -21.453125 14.40625 -21.453125 C 12.875 -21.453125 11.476562 -21.09375 10.21875 -20.375 C 8.96875 -19.65625 7.96875 -18.609375 7.21875 -17.234375 C 6.476562 -15.859375 6.109375 -14.242188 6.109375 -12.390625 C 6.109375 -10.503906 6.476562 -8.863281 7.21875 -7.46875 C 7.96875 -6.082031 8.96875 -5.019531 10.21875 -4.28125 C 11.476562 -3.550781 12.875 -3.1875 14.40625 -3.1875 C 15.925781 -3.1875 17.320312 -3.550781 18.59375 -4.28125 C 19.875 -5.019531 20.882812 -6.082031 21.625 -7.46875 C 22.375 -8.863281 22.75 -10.488281 22.75 -12.34375 Z M 22.75 -12.34375 "/></g></g></g></svg>