<svg xmlns="http://www.w3.org/2000/svg" xmlns:xlink="http://www.w3.org/1999/xlink" width="1200" zoomAndPan="magnify" viewBox="0 0 900 225" height="300" preserveAspectRatio="xMidYMid meet" version="1.0"><defs><g/><clipPath id="b71f8db23a"><path d="M 675 0 L 851.398438 0 L 851.398438 175.949219 L 675 175.949219 Z M 675 0 " clip-rule="nonzero"/></clipPath><clipPath id="32ce26ac1e"><path d="M 727.378906 52.8125 L 899.996094 52.8125 L 899.996094 225 L 727.378906 225 Z M 727.378906 52.8125 " clip-rule="nonzero"/></clipPath></defs><g clip-path="url(#b71f8db23a)"><path fill="#1d3c6a" d="M 766.261719 8.386719 C 723.859375 8.386719 689.363281 41.875 689.363281 83.042969 C 689.363281 97.984375 693.890625 112.402344 702.460938 124.734375 C 704.234375 127.292969 703.945312 131.078125 701.453125 137.800781 C 699.9375 141.882812 697.574219 147.125 694.421875 153.390625 C 692.976562 156.261719 691.492188 159.097656 690.09375 161.703125 C 692.992188 160.230469 696.175781 158.644531 699.410156 157.09375 C 706.003906 153.929688 711.515625 151.527344 715.796875 149.953125 C 722.710938 147.414062 726.398438 146.960938 728.957031 148.339844 C 740.300781 154.460938 753.199219 157.695312 766.261719 157.695312 C 808.664062 157.695312 843.164062 124.207031 843.164062 83.042969 C 843.164062 41.875 808.664062 8.386719 766.261719 8.386719 Z M 679.605469 176.140625 C 678.5 176.140625 677.410156 175.703125 676.597656 174.871094 C 675.285156 173.523438 675.03125 171.460938 675.980469 169.835938 C 676.03125 169.746094 681.164062 160.921875 686.109375 151.238281 C 694.292969 135.210938 695.152344 130.21875 695.210938 129 C 685.894531 115.367188 680.976562 99.492188 680.976562 83.042969 C 680.976562 71.820312 683.238281 60.929688 687.695312 50.679688 C 692 40.785156 698.15625 31.90625 706 24.28125 C 713.832031 16.664062 722.949219 10.6875 733.101562 6.511719 C 743.609375 2.191406 754.765625 0 766.261719 0 C 777.761719 0 788.917969 2.191406 799.421875 6.511719 C 809.574219 10.6875 818.695312 16.664062 826.527344 24.28125 C 834.367188 31.90625 840.527344 40.785156 844.828125 50.679688 C 849.289062 60.929688 851.550781 71.820312 851.550781 83.042969 C 851.550781 94.265625 849.289062 105.152344 844.828125 115.40625 C 840.527344 125.296875 834.367188 134.179688 826.527344 141.804688 C 818.695312 149.417969 809.574219 155.398438 799.421875 159.574219 C 788.917969 163.894531 777.761719 166.085938 766.261719 166.085938 C 758.921875 166.085938 751.632812 165.175781 744.59375 163.378906 C 737.925781 161.679688 731.476562 159.183594 725.417969 155.960938 C 724.300781 156.003906 719.230469 156.800781 701.570312 165.363281 C 691.203125 170.394531 681.710938 175.574219 681.613281 175.625 C 680.980469 175.972656 680.289062 176.140625 679.605469 176.140625 " fill-opacity="1" fill-rule="nonzero"/></g><g clip-path="url(#32ce26ac1e)"><path fill="#d32f2f" d="M 810.777344 61.007812 C 852.230469 61.007812 885.953125 93.75 885.953125 133.988281 C 885.953125 148.597656 881.527344 162.691406 873.152344 174.75 C 871.414062 177.25 871.699219 180.949219 874.136719 187.523438 C 875.617188 191.511719 877.929688 196.636719 881.007812 202.757812 C 882.421875 205.570312 883.875 208.339844 885.242188 210.886719 C 882.40625 209.449219 879.292969 207.894531 876.132812 206.378906 C 869.6875 203.289062 864.296875 200.941406 860.113281 199.402344 C 853.355469 196.917969 849.75 196.476562 847.246094 197.824219 C 836.160156 203.808594 823.550781 206.96875 810.777344 206.96875 C 769.328125 206.96875 735.605469 174.230469 735.605469 133.988281 C 735.605469 93.75 769.328125 61.007812 810.777344 61.007812 Z M 895.492188 225 C 896.574219 225 897.640625 224.574219 898.433594 223.757812 C 899.71875 222.441406 899.964844 220.425781 899.039062 218.835938 C 898.988281 218.75 893.96875 210.125 889.136719 200.65625 C 881.136719 184.988281 880.292969 180.105469 880.238281 178.917969 C 889.34375 165.589844 894.152344 150.070312 894.152344 133.988281 C 894.152344 123.019531 891.941406 112.375 887.582031 102.351562 C 883.375 92.683594 877.355469 84 869.691406 76.546875 C 862.035156 69.101562 853.121094 63.257812 843.195312 59.175781 C 832.925781 54.953125 822.019531 52.808594 810.777344 52.808594 C 799.539062 52.808594 788.632812 54.953125 778.363281 59.175781 C 768.4375 63.257812 759.523438 69.101562 751.867188 76.546875 C 744.203125 84 738.183594 92.683594 733.976562 102.351562 C 729.617188 112.375 727.40625 123.019531 727.40625 133.988281 C 727.40625 144.960938 729.617188 155.605469 733.976562 165.628906 C 738.183594 175.296875 744.203125 183.980469 751.867188 191.433594 C 759.523438 198.875 768.4375 204.722656 778.363281 208.804688 C 788.632812 213.027344 799.539062 215.167969 810.777344 215.167969 C 817.957031 215.167969 825.082031 214.28125 831.960938 212.523438 C 838.480469 210.863281 844.785156 208.421875 850.707031 205.269531 C 851.800781 205.316406 856.757812 206.09375 874.019531 214.464844 C 884.15625 219.382812 893.4375 224.445312 893.527344 224.496094 C 894.148438 224.835938 894.824219 225 895.492188 225 " fill-opacity="1" fill-rule="nonzero"/></g><g fill="#000000" fill-opacity="1"><g transform="translate(0, 53.437508)"><g><path d="M 28.46875 -39.203125 L 28.46875 -35.046875 L 17.78125 -35.046875 L 17.78125 0 L 12.65625 0 L 12.65625 -35.046875 L 1.90625 -35.046875 L 1.90625 -39.203125 Z M 28.46875 -39.203125 "/></g></g></g><g fill="#000000" fill-opacity="1"><g transform="translate(30.431226, 53.437508)"><g><path d="M 19.625 -31.390625 C 21.957031 -31.390625 24.0625 -30.890625 25.9375 -29.890625 C 27.8125 -28.898438 29.28125 -27.410156 30.34375 -25.421875 C 31.414062 -23.429688 31.953125 -21.015625 31.953125 -18.171875 L 31.953125 0 L 26.890625 0 L 26.890625 -17.4375 C 26.890625 -20.507812 26.117188 -22.859375 24.578125 -24.484375 C 23.046875 -26.117188 20.945312 -26.9375 18.28125 -26.9375 C 15.582031 -26.9375 13.4375 -26.09375 11.84375 -24.40625 C 10.25 -22.71875 9.453125 -20.265625 9.453125 -17.046875 L 9.453125 0 L 4.328125 0 L 4.328125 -41.625 L 9.453125 -41.625 L 9.453125 -26.4375 C 10.460938 -28.007812 11.859375 -29.226562 13.640625 -30.09375 C 15.421875 -30.957031 17.414062 -31.390625 19.625 -31.390625 Z M 19.625 -31.390625 "/></g></g></g><g fill="#000000" fill-opacity="1"><g transform="translate(66.43119, 53.437508)"><g><path d="M 32.453125 -16.59375 C 32.453125 -15.613281 32.394531 -14.582031 32.28125 -13.5 L 7.65625 -13.5 C 7.84375 -10.457031 8.878906 -8.082031 10.765625 -6.375 C 12.660156 -4.675781 14.957031 -3.828125 17.65625 -3.828125 C 19.875 -3.828125 21.722656 -4.34375 23.203125 -5.375 C 24.679688 -6.40625 25.722656 -7.78125 26.328125 -9.5 L 31.84375 -9.5 C 31.007812 -6.539062 29.351562 -4.132812 26.875 -2.28125 C 24.40625 -0.425781 21.332031 0.5 17.65625 0.5 C 14.738281 0.5 12.125 -0.15625 9.8125 -1.46875 C 7.507812 -2.78125 5.703125 -4.644531 4.390625 -7.0625 C 3.078125 -9.476562 2.421875 -12.28125 2.421875 -15.46875 C 2.421875 -18.65625 3.054688 -21.445312 4.328125 -23.84375 C 5.609375 -26.25 7.398438 -28.097656 9.703125 -29.390625 C 12.003906 -30.679688 14.65625 -31.328125 17.65625 -31.328125 C 20.582031 -31.328125 23.171875 -30.6875 25.421875 -29.40625 C 27.671875 -28.132812 29.40625 -26.382812 30.625 -24.15625 C 31.84375 -21.925781 32.453125 -19.40625 32.453125 -16.59375 Z M 27.171875 -17.65625 C 27.171875 -19.613281 26.738281 -21.296875 25.875 -22.703125 C 25.007812 -24.109375 23.835938 -25.175781 22.359375 -25.90625 C 20.878906 -26.632812 19.238281 -27 17.4375 -27 C 14.851562 -27 12.648438 -26.171875 10.828125 -24.515625 C 9.003906 -22.867188 7.960938 -20.582031 7.703125 -17.65625 Z M 27.171875 -17.65625 "/></g></g></g><g fill="#000000" fill-opacity="1"><g transform="translate(101.306157, 53.437508)"><g/></g></g><g fill="#000000" fill-opacity="1"><g transform="translate(116.324896, 53.437508)"><g><path d="M 24.96875 0 L 15.640625 -16.03125 L 9.453125 -16.03125 L 9.453125 0 L 4.328125 0 L 4.328125 -39.203125 L 16.984375 -39.203125 C 19.953125 -39.203125 22.457031 -38.695312 24.5 -37.6875 C 26.539062 -36.675781 28.066406 -35.304688 29.078125 -33.578125 C 30.085938 -31.859375 30.59375 -29.890625 30.59375 -27.671875 C 30.59375 -24.972656 29.816406 -22.59375 28.265625 -20.53125 C 26.710938 -18.46875 24.378906 -17.097656 21.265625 -16.421875 L 31.109375 0 Z M 9.453125 -20.140625 L 16.984375 -20.140625 C 19.765625 -20.140625 21.847656 -20.820312 23.234375 -22.1875 C 24.617188 -23.5625 25.3125 -25.390625 25.3125 -27.671875 C 25.3125 -29.992188 24.625 -31.789062 23.25 -33.0625 C 21.882812 -34.34375 19.796875 -34.984375 16.984375 -34.984375 L 9.453125 -34.984375 Z M 9.453125 -20.140625 "/></g></g></g><g fill="#000000" fill-opacity="1"><g transform="translate(150.524862, 53.437508)"><g><path d="M 17.78125 0.5 C 14.882812 0.5 12.265625 -0.15625 9.921875 -1.46875 C 7.578125 -2.78125 5.738281 -4.644531 4.40625 -7.0625 C 3.082031 -9.476562 2.421875 -12.28125 2.421875 -15.46875 C 2.421875 -18.613281 3.101562 -21.394531 4.46875 -23.8125 C 5.84375 -26.238281 7.707031 -28.097656 10.0625 -29.390625 C 12.425781 -30.679688 15.070312 -31.328125 18 -31.328125 C 20.925781 -31.328125 23.566406 -30.679688 25.921875 -29.390625 C 28.285156 -28.097656 30.148438 -26.25 31.515625 -23.84375 C 32.890625 -21.445312 33.578125 -18.65625 33.578125 -15.46875 C 33.578125 -12.28125 32.875 -9.476562 31.46875 -7.0625 C 30.0625 -4.644531 28.15625 -2.78125 25.75 -1.46875 C 23.351562 -0.15625 20.695312 0.5 17.78125 0.5 Z M 17.78125 -4 C 19.613281 -4 21.335938 -4.425781 22.953125 -5.28125 C 24.566406 -6.144531 25.867188 -7.4375 26.859375 -9.15625 C 27.847656 -10.882812 28.34375 -12.988281 28.34375 -15.46875 C 28.34375 -17.945312 27.851562 -20.046875 26.875 -21.765625 C 25.90625 -23.492188 24.632812 -24.78125 23.0625 -25.625 C 21.488281 -26.46875 19.78125 -26.890625 17.9375 -26.890625 C 16.0625 -26.890625 14.347656 -26.46875 12.796875 -25.625 C 11.242188 -24.78125 10 -23.492188 9.0625 -21.765625 C 8.125 -20.046875 7.65625 -17.945312 7.65625 -15.46875 C 7.65625 -12.957031 8.113281 -10.835938 9.03125 -9.109375 C 9.945312 -7.390625 11.171875 -6.109375 12.703125 -5.265625 C 14.242188 -4.421875 15.9375 -4 17.78125 -4 Z M 17.78125 -4 "/></g></g></g><g fill="#000000" fill-opacity="1"><g transform="translate(186.524825, 53.437508)"><g><path d="M 9.453125 -41.625 L 9.453125 0 L 4.328125 0 L 4.328125 -41.625 Z M 9.453125 -41.625 "/></g></g></g><g fill="#000000" fill-opacity="1"><g transform="translate(200.362305, 53.437508)"><g><path d="M 32.453125 -16.59375 C 32.453125 -15.613281 32.394531 -14.582031 32.28125 -13.5 L 7.65625 -13.5 C 7.84375 -10.457031 8.878906 -8.082031 10.765625 -6.375 C 12.660156 -4.675781 14.957031 -3.828125 17.65625 -3.828125 C 19.875 -3.828125 21.722656 -4.34375 23.203125 -5.375 C 24.679688 -6.40625 25.722656 -7.78125 26.328125 -9.5 L 31.84375 -9.5 C 31.007812 -6.539062 29.351562 -4.132812 26.875 -2.28125 C 24.40625 -0.425781 21.332031 0.5 17.65625 0.5 C 14.738281 0.5 12.125 -0.15625 9.8125 -1.46875 C 7.507812 -2.78125 5.703125 -4.644531 4.390625 -7.0625 C 3.078125 -9.476562 2.421875 -12.28125 2.421875 -15.46875 C 2.421875 -18.65625 3.054688 -21.445312 4.328125 -23.84375 C 5.609375 -26.25 7.398438 -28.097656 9.703125 -29.390625 C 12.003906 -30.679688 14.65625 -31.328125 17.65625 -31.328125 C 20.582031 -31.328125 23.171875 -30.6875 25.421875 -29.40625 C 27.671875 -28.132812 29.40625 -26.382812 30.625 -24.15625 C 31.84375 -21.925781 32.453125 -19.40625 32.453125 -16.59375 Z M 27.171875 -17.65625 C 27.171875 -19.613281 26.738281 -21.296875 25.875 -22.703125 C 25.007812 -24.109375 23.835938 -25.175781 22.359375 -25.90625 C 20.878906 -26.632812 19.238281 -27 17.4375 -27 C 14.851562 -27 12.648438 -26.171875 10.828125 -24.515625 C 9.003906 -22.867188 7.960938 -20.582031 7.703125 -17.65625 Z M 27.171875 -17.65625 "/></g></g></g><g fill="#000000" fill-opacity="1"><g transform="translate(235.239253, 53.437508)"><g/></g></g><g fill="#000000" fill-opacity="1"><g transform="translate(0, 132.187504)"><g><path d="M 17.78125 0.5 C 14.882812 0.5 12.265625 -0.15625 9.921875 -1.46875 C 7.578125 -2.78125 5.738281 -4.644531 4.40625 -7.0625 C 3.082031 -9.476562 2.421875 -12.28125 2.421875 -15.46875 C 2.421875 -18.613281 3.101562 -21.394531 4.46875 -23.8125 C 5.84375 -26.238281 7.707031 -28.097656 10.0625 -29.390625 C 12.425781 -30.679688 15.070312 -31.328125 18 -31.328125 C 20.925781 -31.328125 23.566406 -30.679688 25.921875 -29.390625 C 28.285156 -28.097656 30.148438 -26.25 31.515625 -23.84375 C 32.890625 -21.445312 33.578125 -18.65625 33.578125 -15.46875 C 33.578125 -12.28125 32.875 -9.476562 31.46875 -7.0625 C 30.0625 -4.644531 28.15625 -2.78125 25.75 -1.46875 C 23.351562 -0.15625 20.695312 0.5 17.78125 0.5 Z M 17.78125 -4 C 19.613281 -4 21.335938 -4.425781 22.953125 -5.28125 C 24.566406 -6.144531 25.867188 -7.4375 26.859375 -9.15625 C 27.847656 -10.882812 28.34375 -12.988281 28.34375 -15.46875 C 28.34375 -17.945312 27.851562 -20.046875 26.875 -21.765625 C 25.90625 -23.492188 24.632812 -24.78125 23.0625 -25.625 C 21.488281 -26.46875 19.78125 -26.890625 17.9375 -26.890625 C 16.0625 -26.890625 14.347656 -26.46875 12.796875 -25.625 C 11.242188 -24.78125 10 -23.492188 9.0625 -21.765625 C 8.125 -20.046875 7.65625 -17.945312 7.65625 -15.46875 C 7.65625 -12.957031 8.113281 -10.835938 9.03125 -9.109375 C 9.945312 -7.390625 11.171875 -6.109375 12.703125 -5.265625 C 14.242188 -4.421875 15.9375 -4 17.78125 -4 Z M 17.78125 -4 "/></g></g></g><g fill="#000000" fill-opacity="1"><g transform="translate(35.999964, 132.187504)"><g><path d="M 16.875 -26.609375 L 10.40625 -26.609375 L 10.40625 0 L 5.28125 0 L 5.28125 -26.609375 L 1.296875 -26.609375 L 1.296875 -30.828125 L 5.28125 -30.828125 L 5.28125 -33.015625 C 5.28125 -36.460938 6.171875 -38.984375 7.953125 -40.578125 C 9.734375 -42.171875 12.59375 -42.96875 16.53125 -42.96875 L 16.53125 -38.703125 C 14.28125 -38.703125 12.695312 -38.257812 11.78125 -37.375 C 10.863281 -36.5 10.40625 -35.046875 10.40625 -33.015625 L 10.40625 -30.828125 L 16.875 -30.828125 Z M 16.875 -26.609375 "/></g></g></g><g fill="#000000" fill-opacity="1"><g transform="translate(54.50619, 132.187504)"><g/></g></g><g fill="#000000" fill-opacity="1"><g transform="translate(69.524929, 132.187504)"><g><path d="M 9.453125 -39.203125 L 9.453125 0 L 4.328125 0 L 4.328125 -39.203125 Z M 9.453125 -39.203125 "/></g></g></g><g fill="#000000" fill-opacity="1"><g transform="translate(83.362409, 132.187504)"><g><path d="M 19.34375 -31.390625 C 23.09375 -31.390625 26.128906 -30.253906 28.453125 -27.984375 C 30.785156 -25.710938 31.953125 -22.441406 31.953125 -18.171875 L 31.953125 0 L 26.890625 0 L 26.890625 -17.4375 C 26.890625 -20.507812 26.117188 -22.859375 24.578125 -24.484375 C 23.046875 -26.117188 20.945312 -26.9375 18.28125 -26.9375 C 15.582031 -26.9375 13.4375 -26.09375 11.84375 -24.40625 C 10.25 -22.71875 9.453125 -20.265625 9.453125 -17.046875 L 9.453125 0 L 4.328125 0 L 4.328125 -30.828125 L 9.453125 -30.828125 L 9.453125 -26.4375 C 10.460938 -28.007812 11.835938 -29.226562 13.578125 -30.09375 C 15.328125 -30.957031 17.25 -31.390625 19.34375 -31.390625 Z M 19.34375 -31.390625 "/></g></g></g><g fill="#000000" fill-opacity="1"><g transform="translate(119.362372, 132.187504)"><g><path d="M 2.421875 -15.46875 C 2.421875 -18.65625 3.054688 -21.4375 4.328125 -23.8125 C 5.609375 -26.195312 7.378906 -28.046875 9.640625 -29.359375 C 11.910156 -30.671875 14.507812 -31.328125 17.4375 -31.328125 C 21.226562 -31.328125 24.347656 -30.40625 26.796875 -28.5625 C 29.253906 -26.726562 30.878906 -24.179688 31.671875 -20.921875 L 26.15625 -20.921875 C 25.632812 -22.796875 24.613281 -24.273438 23.09375 -25.359375 C 21.570312 -26.453125 19.6875 -27 17.4375 -27 C 14.507812 -27 12.144531 -25.992188 10.34375 -23.984375 C 8.550781 -21.984375 7.65625 -19.144531 7.65625 -15.46875 C 7.65625 -11.757812 8.550781 -8.890625 10.34375 -6.859375 C 12.144531 -4.835938 14.507812 -3.828125 17.4375 -3.828125 C 19.6875 -3.828125 21.5625 -4.347656 23.0625 -5.390625 C 24.5625 -6.441406 25.59375 -7.945312 26.15625 -9.90625 L 31.671875 -9.90625 C 30.847656 -6.75 29.195312 -4.222656 26.71875 -2.328125 C 24.238281 -0.441406 21.144531 0.5 17.4375 0.5 C 14.507812 0.5 11.910156 -0.15625 9.640625 -1.46875 C 7.378906 -2.78125 5.609375 -4.632812 4.328125 -7.03125 C 3.054688 -9.425781 2.421875 -12.238281 2.421875 -15.46875 Z M 2.421875 -15.46875 "/></g></g></g><g fill="#000000" fill-opacity="1"><g transform="translate(153.506091, 132.187504)"><g><path d="M 9.453125 -41.625 L 9.453125 0 L 4.328125 0 L 4.328125 -41.625 Z M 9.453125 -41.625 "/></g></g></g><g fill="#000000" fill-opacity="1"><g transform="translate(167.343571, 132.187504)"><g><path d="M 31.671875 -30.828125 L 31.671875 0 L 26.546875 0 L 26.546875 -4.5625 C 25.578125 -2.976562 24.21875 -1.742188 22.46875 -0.859375 C 20.726562 0.015625 18.804688 0.453125 16.703125 0.453125 C 14.304688 0.453125 12.148438 -0.0390625 10.234375 -1.03125 C 8.328125 -2.03125 6.816406 -3.523438 5.703125 -5.515625 C 4.597656 -7.503906 4.046875 -9.921875 4.046875 -12.765625 L 4.046875 -30.828125 L 9.109375 -30.828125 L 9.109375 -13.4375 C 9.109375 -10.40625 9.875 -8.070312 11.40625 -6.4375 C 12.945312 -4.8125 15.050781 -4 17.71875 -4 C 20.457031 -4 22.613281 -4.84375 24.1875 -6.53125 C 25.757812 -8.21875 26.546875 -10.671875 26.546875 -13.890625 L 26.546875 -30.828125 Z M 31.671875 -30.828125 "/></g></g></g><g fill="#000000" fill-opacity="1"><g transform="translate(203.343535, 132.187504)"><g><path d="M 15.25 0.5 C 12.882812 0.5 10.765625 0.0976562 8.890625 -0.703125 C 7.015625 -1.503906 5.53125 -2.628906 4.4375 -4.078125 C 3.351562 -5.523438 2.753906 -7.1875 2.640625 -9.0625 L 7.9375 -9.0625 C 8.082031 -7.519531 8.800781 -6.257812 10.09375 -5.28125 C 11.382812 -4.3125 13.082031 -3.828125 15.1875 -3.828125 C 17.132812 -3.828125 18.671875 -4.253906 19.796875 -5.109375 C 20.921875 -5.972656 21.484375 -7.0625 21.484375 -8.375 C 21.484375 -9.726562 20.882812 -10.734375 19.6875 -11.390625 C 18.488281 -12.046875 16.632812 -12.691406 14.125 -13.328125 C 11.832031 -13.929688 9.960938 -14.539062 8.515625 -15.15625 C 7.078125 -15.78125 5.84375 -16.703125 4.8125 -17.921875 C 3.78125 -19.140625 3.265625 -20.738281 3.265625 -22.71875 C 3.265625 -24.300781 3.734375 -25.75 4.671875 -27.0625 C 5.609375 -28.375 6.9375 -29.410156 8.65625 -30.171875 C 10.382812 -30.941406 12.351562 -31.328125 14.5625 -31.328125 C 17.976562 -31.328125 20.734375 -30.460938 22.828125 -28.734375 C 24.929688 -27.015625 26.0625 -24.65625 26.21875 -21.65625 L 21.09375 -21.65625 C 20.976562 -23.269531 20.328125 -24.5625 19.140625 -25.53125 C 17.960938 -26.507812 16.382812 -27 14.40625 -27 C 12.5625 -27 11.09375 -26.601562 10 -25.8125 C 8.914062 -25.03125 8.375 -24 8.375 -22.71875 C 8.375 -21.707031 8.703125 -20.875 9.359375 -20.21875 C 10.015625 -19.5625 10.835938 -19.035156 11.828125 -18.640625 C 12.828125 -18.253906 14.207031 -17.816406 15.96875 -17.328125 C 18.1875 -16.722656 19.988281 -16.128906 21.375 -15.546875 C 22.757812 -14.972656 23.945312 -14.101562 24.9375 -12.9375 C 25.9375 -11.769531 26.457031 -10.25 26.5 -8.375 C 26.5 -6.6875 26.03125 -5.164062 25.09375 -3.8125 C 24.15625 -2.46875 22.832031 -1.410156 21.125 -0.640625 C 19.414062 0.117188 17.457031 0.5 15.25 0.5 Z M 15.25 0.5 "/></g></g></g><g fill="#000000" fill-opacity="1"><g transform="translate(232.706012, 132.187504)"><g><path d="M 6.96875 -35.828125 C 6 -35.828125 5.175781 -36.164062 4.5 -36.84375 C 3.820312 -37.519531 3.484375 -38.34375 3.484375 -39.3125 C 3.484375 -40.289062 3.820312 -41.117188 4.5 -41.796875 C 5.175781 -42.472656 6 -42.8125 6.96875 -42.8125 C 7.90625 -42.8125 8.703125 -42.472656 9.359375 -41.796875 C 10.015625 -41.117188 10.34375 -40.289062 10.34375 -39.3125 C 10.34375 -38.34375 10.015625 -37.519531 9.359375 -36.84375 C 8.703125 -36.164062 7.90625 -35.828125 6.96875 -35.828125 Z M 9.453125 -30.828125 L 9.453125 0 L 4.328125 0 L 4.328125 -30.828125 Z M 9.453125 -30.828125 "/></g></g></g><g fill="#000000" fill-opacity="1"><g transform="translate(246.543492, 132.187504)"><g><path d="M 15.8125 -4.71875 L 25.375 -30.828125 L 30.828125 -30.828125 L 18.734375 0 L 12.765625 0 L 0.671875 -30.828125 L 6.1875 -30.828125 Z M 15.8125 -4.71875 "/></g></g></g><g fill="#000000" fill-opacity="1"><g transform="translate(278.099715, 132.187504)"><g><path d="M 32.453125 -16.59375 C 32.453125 -15.613281 32.394531 -14.582031 32.28125 -13.5 L 7.65625 -13.5 C 7.84375 -10.457031 8.878906 -8.082031 10.765625 -6.375 C 12.660156 -4.675781 14.957031 -3.828125 17.65625 -3.828125 C 19.875 -3.828125 21.722656 -4.34375 23.203125 -5.375 C 24.679688 -6.40625 25.722656 -7.78125 26.328125 -9.5 L 31.84375 -9.5 C 31.007812 -6.539062 29.351562 -4.132812 26.875 -2.28125 C 24.40625 -0.425781 21.332031 0.5 17.65625 0.5 C 14.738281 0.5 12.125 -0.15625 9.8125 -1.46875 C 7.507812 -2.78125 5.703125 -4.644531 4.390625 -7.0625 C 3.078125 -9.476562 2.421875 -12.28125 2.421875 -15.46875 C 2.421875 -18.65625 3.054688 -21.445312 4.328125 -23.84375 C 5.609375 -26.25 7.398438 -28.097656 9.703125 -29.390625 C 12.003906 -30.679688 14.65625 -31.328125 17.65625 -31.328125 C 20.582031 -31.328125 23.171875 -30.6875 25.421875 -29.40625 C 27.671875 -28.132812 29.40625 -26.382812 30.625 -24.15625 C 31.84375 -21.925781 32.453125 -19.40625 32.453125 -16.59375 Z M 27.171875 -17.65625 C 27.171875 -19.613281 26.738281 -21.296875 25.875 -22.703125 C 25.007812 -24.109375 23.835938 -25.175781 22.359375 -25.90625 C 20.878906 -26.632812 19.238281 -27 17.4375 -27 C 14.851562 -27 12.648438 -26.171875 10.828125 -24.515625 C 9.003906 -22.867188 7.960938 -20.582031 7.703125 -17.65625 Z M 27.171875 -17.65625 "/></g></g></g><g fill="#000000" fill-opacity="1"><g transform="translate(312.974668, 132.187504)"><g/></g></g><g fill="#000000" fill-opacity="1"><g transform="translate(327.993407, 132.187504)"><g><path d="M 9.453125 -4.15625 L 23.171875 -4.15625 L 23.171875 0 L 4.328125 0 L 4.328125 -39.203125 L 9.453125 -39.203125 Z M 9.453125 -4.15625 "/></g></g></g><g fill="#000000" fill-opacity="1"><g transform="translate(352.29339, 132.187504)"><g><path d="M 2.421875 -15.53125 C 2.421875 -18.675781 3.054688 -21.4375 4.328125 -23.8125 C 5.609375 -26.195312 7.363281 -28.046875 9.59375 -29.359375 C 11.820312 -30.671875 14.304688 -31.328125 17.046875 -31.328125 C 19.742188 -31.328125 22.085938 -30.742188 24.078125 -29.578125 C 26.066406 -28.421875 27.546875 -26.960938 28.515625 -25.203125 L 28.515625 -30.828125 L 33.6875 -30.828125 L 33.6875 0 L 28.515625 0 L 28.515625 -5.734375 C 27.503906 -3.929688 25.992188 -2.441406 23.984375 -1.265625 C 21.984375 -0.0859375 19.648438 0.5 16.984375 0.5 C 14.242188 0.5 11.769531 -0.171875 9.5625 -1.515625 C 7.351562 -2.867188 5.609375 -4.765625 4.328125 -7.203125 C 3.054688 -9.640625 2.421875 -12.414062 2.421875 -15.53125 Z M 28.515625 -15.46875 C 28.515625 -17.789062 28.046875 -19.8125 27.109375 -21.53125 C 26.171875 -23.257812 24.90625 -24.582031 23.3125 -25.5 C 21.71875 -26.425781 19.96875 -26.890625 18.0625 -26.890625 C 16.144531 -26.890625 14.398438 -26.4375 12.828125 -25.53125 C 11.253906 -24.632812 10 -23.320312 9.0625 -21.59375 C 8.125 -19.875 7.65625 -17.851562 7.65625 -15.53125 C 7.65625 -13.164062 8.125 -11.109375 9.0625 -9.359375 C 10 -7.617188 11.253906 -6.289062 12.828125 -5.375 C 14.398438 -4.457031 16.144531 -4 18.0625 -4 C 19.96875 -4 21.71875 -4.457031 23.3125 -5.375 C 24.90625 -6.289062 26.171875 -7.617188 27.109375 -9.359375 C 28.046875 -11.109375 28.515625 -13.144531 28.515625 -15.46875 Z M 28.515625 -15.46875 "/></g></g></g><g fill="#000000" fill-opacity="1"><g transform="translate(390.318357, 132.187504)"><g><path d="M 19.34375 -31.390625 C 23.09375 -31.390625 26.128906 -30.253906 28.453125 -27.984375 C 30.785156 -25.710938 31.953125 -22.441406 31.953125 -18.171875 L 31.953125 0 L 26.890625 0 L 26.890625 -17.4375 C 26.890625 -20.507812 26.117188 -22.859375 24.578125 -24.484375 C 23.046875 -26.117188 20.945312 -26.9375 18.28125 -26.9375 C 15.582031 -26.9375 13.4375 -26.09375 11.84375 -24.40625 C 10.25 -22.71875 9.453125 -20.265625 9.453125 -17.046875 L 9.453125 0 L 4.328125 0 L 4.328125 -30.828125 L 9.453125 -30.828125 L 9.453125 -26.4375 C 10.460938 -28.007812 11.835938 -29.226562 13.578125 -30.09375 C 15.328125 -30.957031 17.25 -31.390625 19.34375 -31.390625 Z M 19.34375 -31.390625 "/></g></g></g><g fill="#000000" fill-opacity="1"><g transform="translate(426.318321, 132.187504)"><g><path d="M 17.046875 -31.328125 C 19.703125 -31.328125 22.035156 -30.742188 24.046875 -29.578125 C 26.054688 -28.421875 27.546875 -26.960938 28.515625 -25.203125 L 28.515625 -30.828125 L 33.6875 -30.828125 L 33.6875 0.671875 C 33.6875 3.484375 33.085938 5.984375 31.890625 8.171875 C 30.691406 10.367188 28.976562 12.085938 26.75 13.328125 C 24.519531 14.566406 21.921875 15.1875 18.953125 15.1875 C 14.898438 15.1875 11.523438 14.226562 8.828125 12.3125 C 6.128906 10.40625 4.535156 7.800781 4.046875 4.5 L 9.109375 4.5 C 9.671875 6.375 10.832031 7.882812 12.59375 9.03125 C 14.363281 10.175781 16.484375 10.75 18.953125 10.75 C 21.765625 10.75 24.0625 9.863281 25.84375 8.09375 C 27.625 6.332031 28.515625 3.859375 28.515625 0.671875 L 28.515625 -5.796875 C 27.503906 -3.992188 26.003906 -2.492188 24.015625 -1.296875 C 22.023438 -0.0976562 19.703125 0.5 17.046875 0.5 C 14.304688 0.5 11.820312 -0.171875 9.59375 -1.515625 C 7.363281 -2.867188 5.609375 -4.765625 4.328125 -7.203125 C 3.054688 -9.640625 2.421875 -12.414062 2.421875 -15.53125 C 2.421875 -18.675781 3.054688 -21.4375 4.328125 -23.8125 C 5.609375 -26.195312 7.363281 -28.046875 9.59375 -29.359375 C 11.820312 -30.671875 14.304688 -31.328125 17.046875 -31.328125 Z M 28.515625 -15.46875 C 28.515625 -17.789062 28.046875 -19.8125 27.109375 -21.53125 C 26.171875 -23.257812 24.90625 -24.582031 23.3125 -25.5 C 21.71875 -26.425781 19.96875 -26.890625 18.0625 -26.890625 C 16.144531 -26.890625 14.398438 -26.4375 12.828125 -25.53125 C 11.253906 -24.632812 10 -23.320312 9.0625 -21.59375 C 8.125 -19.875 7.65625 -17.851562 7.65625 -15.53125 C 7.65625 -13.164062 8.125 -11.109375 9.0625 -9.359375 C 10 -7.617188 11.253906 -6.289062 12.828125 -5.375 C 14.398438 -4.457031 16.144531 -4 18.0625 -4 C 19.96875 -4 21.71875 -4.457031 23.3125 -5.375 C 24.90625 -6.289062 26.171875 -7.617188 27.109375 -9.359375 C 28.046875 -11.109375 28.515625 -13.144531 28.515625 -15.46875 Z M 28.515625 -15.46875 "/></g></g></g><g fill="#000000" fill-opacity="1"><g transform="translate(464.343289, 132.187504)"><g><path d="M 31.671875 -30.828125 L 31.671875 0 L 26.546875 0 L 26.546875 -4.5625 C 25.578125 -2.976562 24.21875 -1.742188 22.46875 -0.859375 C 20.726562 0.015625 18.804688 0.453125 16.703125 0.453125 C 14.304688 0.453125 12.148438 -0.0390625 10.234375 -1.03125 C 8.328125 -2.03125 6.816406 -3.523438 5.703125 -5.515625 C 4.597656 -7.503906 4.046875 -9.921875 4.046875 -12.765625 L 4.046875 -30.828125 L 9.109375 -30.828125 L 9.109375 -13.4375 C 9.109375 -10.40625 9.875 -8.070312 11.40625 -6.4375 C 12.945312 -4.8125 15.050781 -4 17.71875 -4 C 20.457031 -4 22.613281 -4.84375 24.1875 -6.53125 C 25.757812 -8.21875 26.546875 -10.671875 26.546875 -13.890625 L 26.546875 -30.828125 Z M 31.671875 -30.828125 "/></g></g></g><g fill="#000000" fill-opacity="1"><g transform="translate(500.343224, 132.187504)"><g><path d="M 2.421875 -15.53125 C 2.421875 -18.675781 3.054688 -21.4375 4.328125 -23.8125 C 5.609375 -26.195312 7.363281 -28.046875 9.59375 -29.359375 C 11.820312 -30.671875 14.304688 -31.328125 17.046875 -31.328125 C 19.742188 -31.328125 22.085938 -30.742188 24.078125 -29.578125 C 26.066406 -28.421875 27.546875 -26.960938 28.515625 -25.203125 L 28.515625 -30.828125 L 33.6875 -30.828125 L 33.6875 0 L 28.515625 0 L 28.515625 -5.734375 C 27.503906 -3.929688 25.992188 -2.441406 23.984375 -1.265625 C 21.984375 -0.0859375 19.648438 0.5 16.984375 0.5 C 14.242188 0.5 11.769531 -0.171875 9.5625 -1.515625 C 7.351562 -2.867188 5.609375 -4.765625 4.328125 -7.203125 C 3.054688 -9.640625 2.421875 -12.414062 2.421875 -15.53125 Z M 28.515625 -15.46875 C 28.515625 -17.789062 28.046875 -19.8125 27.109375 -21.53125 C 26.171875 -23.257812 24.90625 -24.582031 23.3125 -25.5 C 21.71875 -26.425781 19.96875 -26.890625 18.0625 -26.890625 C 16.144531 -26.890625 14.398438 -26.4375 12.828125 -25.53125 C 11.253906 -24.632812 10 -23.320312 9.0625 -21.59375 C 8.125 -19.875 7.65625 -17.851562 7.65625 -15.53125 C 7.65625 -13.164062 8.125 -11.109375 9.0625 -9.359375 C 10 -7.617188 11.253906 -6.289062 12.828125 -5.375 C 14.398438 -4.457031 16.144531 -4 18.0625 -4 C 19.96875 -4 21.71875 -4.457031 23.3125 -5.375 C 24.90625 -6.289062 26.171875 -7.617188 27.109375 -9.359375 C 28.046875 -11.109375 28.515625 -13.144531 28.515625 -15.46875 Z M 28.515625 -15.46875 "/></g></g></g><g fill="#000000" fill-opacity="1"><g transform="translate(538.368164, 132.187504)"><g><path d="M 17.046875 -31.328125 C 19.703125 -31.328125 22.035156 -30.742188 24.046875 -29.578125 C 26.054688 -28.421875 27.546875 -26.960938 28.515625 -25.203125 L 28.515625 -30.828125 L 33.6875 -30.828125 L 33.6875 0.671875 C 33.6875 3.484375 33.085938 5.984375 31.890625 8.171875 C 30.691406 10.367188 28.976562 12.085938 26.75 13.328125 C 24.519531 14.566406 21.921875 15.1875 18.953125 15.1875 C 14.898438 15.1875 11.523438 14.226562 8.828125 12.3125 C 6.128906 10.40625 4.535156 7.800781 4.046875 4.5 L 9.109375 4.5 C 9.671875 6.375 10.832031 7.882812 12.59375 9.03125 C 14.363281 10.175781 16.484375 10.75 18.953125 10.75 C 21.765625 10.75 24.0625 9.863281 25.84375 8.09375 C 27.625 6.332031 28.515625 3.859375 28.515625 0.671875 L 28.515625 -5.796875 C 27.503906 -3.992188 26.003906 -2.492188 24.015625 -1.296875 C 22.023438 -0.0976562 19.703125 0.5 17.046875 0.5 C 14.304688 0.5 11.820312 -0.171875 9.59375 -1.515625 C 7.363281 -2.867188 5.609375 -4.765625 4.328125 -7.203125 C 3.054688 -9.640625 2.421875 -12.414062 2.421875 -15.53125 C 2.421875 -18.675781 3.054688 -21.4375 4.328125 -23.8125 C 5.609375 -26.195312 7.363281 -28.046875 9.59375 -29.359375 C 11.820312 -30.671875 14.304688 -31.328125 17.046875 -31.328125 Z M 28.515625 -15.46875 C 28.515625 -17.789062 28.046875 -19.8125 27.109375 -21.53125 C 26.171875 -23.257812 24.90625 -24.582031 23.3125 -25.5 C 21.71875 -26.425781 19.96875 -26.890625 18.0625 -26.890625 C 16.144531 -26.890625 14.398438 -26.4375 12.828125 -25.53125 C 11.253906 -24.632812 10 -23.320312 9.0625 -21.59375 C 8.125 -19.875 7.65625 -17.851562 7.65625 -15.53125 C 7.65625 -13.164062 8.125 -11.109375 9.0625 -9.359375 C 10 -7.617188 11.253906 -6.289062 12.828125 -5.375 C 14.398438 -4.457031 16.144531 -4 18.0625 -4 C 19.96875 -4 21.71875 -4.457031 23.3125 -5.375 C 24.90625 -6.289062 26.171875 -7.617188 27.109375 -9.359375 C 28.046875 -11.109375 28.515625 -13.144531 28.515625 -15.46875 Z M 28.515625 -15.46875 "/></g></g></g><g fill="#000000" fill-opacity="1"><g transform="translate(576.393103, 132.187504)"><g><path d="M 32.453125 -16.59375 C 32.453125 -15.613281 32.394531 -14.582031 32.28125 -13.5 L 7.65625 -13.5 C 7.84375 -10.457031 8.878906 -8.082031 10.765625 -6.375 C 12.660156 -4.675781 14.957031 -3.828125 17.65625 -3.828125 C 19.875 -3.828125 21.722656 -4.34375 23.203125 -5.375 C 24.679688 -6.40625 25.722656 -7.78125 26.328125 -9.5 L 31.84375 -9.5 C 31.007812 -6.539062 29.351562 -4.132812 26.875 -2.28125 C 24.40625 -0.425781 21.332031 0.5 17.65625 0.5 C 14.738281 0.5 12.125 -0.15625 9.8125 -1.46875 C 7.507812 -2.78125 5.703125 -4.644531 4.390625 -7.0625 C 3.078125 -9.476562 2.421875 -12.28125 2.421875 -15.46875 C 2.421875 -18.65625 3.054688 -21.445312 4.328125 -23.84375 C 5.609375 -26.25 7.398438 -28.097656 9.703125 -29.390625 C 12.003906 -30.679688 14.65625 -31.328125 17.65625 -31.328125 C 20.582031 -31.328125 23.171875 -30.6875 25.421875 -29.40625 C 27.671875 -28.132812 29.40625 -26.382812 30.625 -24.15625 C 31.84375 -21.925781 32.453125 -19.40625 32.453125 -16.59375 Z M 27.171875 -17.65625 C 27.171875 -19.613281 26.738281 -21.296875 25.875 -22.703125 C 25.007812 -24.109375 23.835938 -25.175781 22.359375 -25.90625 C 20.878906 -26.632812 19.238281 -27 17.4375 -27 C 14.851562 -27 12.648438 -26.171875 10.828125 -24.515625 C 9.003906 -22.867188 7.960938 -20.582031 7.703125 -17.65625 Z M 27.171875 -17.65625 "/></g></g></g><g fill="#000000" fill-opacity="1"><g transform="translate(611.279271, 132.187504)"><g/></g></g><g fill="#000000" fill-opacity="1"><g transform="translate(0, 210.937501)"><g><path d="M 6.96875 -35.828125 C 6 -35.828125 5.175781 -36.164062 4.5 -36.84375 C 3.820312 -37.519531 3.484375 -38.34375 3.484375 -39.3125 C 3.484375 -40.289062 3.820312 -41.117188 4.5 -41.796875 C 5.175781 -42.472656 6 -42.8125 6.96875 -42.8125 C 7.90625 -42.8125 8.703125 -42.472656 9.359375 -41.796875 C 10.015625 -41.117188 10.34375 -40.289062 10.34375 -39.3125 C 10.34375 -38.34375 10.015625 -37.519531 9.359375 -36.84375 C 8.703125 -36.164062 7.90625 -35.828125 6.96875 -35.828125 Z M 9.453125 -30.828125 L 9.453125 0 L 4.328125 0 L 4.328125 -30.828125 Z M 9.453125 -30.828125 "/></g></g></g><g fill="#000000" fill-opacity="1"><g transform="translate(13.83748, 210.937501)"><g><path d="M 19.34375 -31.390625 C 23.09375 -31.390625 26.128906 -30.253906 28.453125 -27.984375 C 30.785156 -25.710938 31.953125 -22.441406 31.953125 -18.171875 L 31.953125 0 L 26.890625 0 L 26.890625 -17.4375 C 26.890625 -20.507812 26.117188 -22.859375 24.578125 -24.484375 C 23.046875 -26.117188 20.945312 -26.9375 18.28125 -26.9375 C 15.582031 -26.9375 13.4375 -26.09375 11.84375 -24.40625 C 10.25 -22.71875 9.453125 -20.265625 9.453125 -17.046875 L 9.453125 0 L 4.328125 0 L 4.328125 -30.828125 L 9.453125 -30.828125 L 9.453125 -26.4375 C 10.460938 -28.007812 11.835938 -29.226562 13.578125 -30.09375 C 15.328125 -30.957031 17.25 -31.390625 19.34375 -31.390625 Z M 19.34375 -31.390625 "/></g></g></g><g fill="#000000" fill-opacity="1"><g transform="translate(49.837444, 210.937501)"><g/></g></g><g fill="#000000" fill-opacity="1"><g transform="translate(64.856183, 210.937501)"><g><path d="M 28.46875 -39.203125 L 28.46875 -35.046875 L 17.78125 -35.046875 L 17.78125 0 L 12.65625 0 L 12.65625 -35.046875 L 1.90625 -35.046875 L 1.90625 -39.203125 Z M 28.46875 -39.203125 "/></g></g></g><g fill="#000000" fill-opacity="1"><g transform="translate(95.287409, 210.937501)"><g><path d="M 32.453125 -16.59375 C 32.453125 -15.613281 32.394531 -14.582031 32.28125 -13.5 L 7.65625 -13.5 C 7.84375 -10.457031 8.878906 -8.082031 10.765625 -6.375 C 12.660156 -4.675781 14.957031 -3.828125 17.65625 -3.828125 C 19.875 -3.828125 21.722656 -4.34375 23.203125 -5.375 C 24.679688 -6.40625 25.722656 -7.78125 26.328125 -9.5 L 31.84375 -9.5 C 31.007812 -6.539062 29.351562 -4.132812 26.875 -2.28125 C 24.40625 -0.425781 21.332031 0.5 17.65625 0.5 C 14.738281 0.5 12.125 -0.15625 9.8125 -1.46875 C 7.507812 -2.78125 5.703125 -4.644531 4.390625 -7.0625 C 3.078125 -9.476562 2.421875 -12.28125 2.421875 -15.46875 C 2.421875 -18.65625 3.054688 -21.445312 4.328125 -23.84375 C 5.609375 -26.25 7.398438 -28.097656 9.703125 -29.390625 C 12.003906 -30.679688 14.65625 -31.328125 17.65625 -31.328125 C 20.582031 -31.328125 23.171875 -30.6875 25.421875 -29.40625 C 27.671875 -28.132812 29.40625 -26.382812 30.625 -24.15625 C 31.84375 -21.925781 32.453125 -19.40625 32.453125 -16.59375 Z M 27.171875 -17.65625 C 27.171875 -19.613281 26.738281 -21.296875 25.875 -22.703125 C 25.007812 -24.109375 23.835938 -25.175781 22.359375 -25.90625 C 20.878906 -26.632812 19.238281 -27 17.4375 -27 C 14.851562 -27 12.648438 -26.171875 10.828125 -24.515625 C 9.003906 -22.867188 7.960938 -20.582031 7.703125 -17.65625 Z M 27.171875 -17.65625 "/></g></g></g><g fill="#000000" fill-opacity="1"><g transform="translate(130.162376, 210.937501)"><g><path d="M 2.421875 -15.46875 C 2.421875 -18.65625 3.054688 -21.4375 4.328125 -23.8125 C 5.609375 -26.195312 7.378906 -28.046875 9.640625 -29.359375 C 11.910156 -30.671875 14.507812 -31.328125 17.4375 -31.328125 C 21.226562 -31.328125 24.347656 -30.40625 26.796875 -28.5625 C 29.253906 -26.726562 30.878906 -24.179688 31.671875 -20.921875 L 26.15625 -20.921875 C 25.632812 -22.796875 24.613281 -24.273438 23.09375 -25.359375 C 21.570312 -26.453125 19.6875 -27 17.4375 -27 C 14.507812 -27 12.144531 -25.992188 10.34375 -23.984375 C 8.550781 -21.984375 7.65625 -19.144531 7.65625 -15.46875 C 7.65625 -11.757812 8.550781 -8.890625 10.34375 -6.859375 C 12.144531 -4.835938 14.507812 -3.828125 17.4375 -3.828125 C 19.6875 -3.828125 21.5625 -4.347656 23.0625 -5.390625 C 24.5625 -6.441406 25.59375 -7.945312 26.15625 -9.90625 L 31.671875 -9.90625 C 30.847656 -6.75 29.195312 -4.222656 26.71875 -2.328125 C 24.238281 -0.441406 21.144531 0.5 17.4375 0.5 C 14.507812 0.5 11.910156 -0.15625 9.640625 -1.46875 C 7.378906 -2.78125 5.609375 -4.632812 4.328125 -7.03125 C 3.054688 -9.425781 2.421875 -12.238281 2.421875 -15.46875 Z M 2.421875 -15.46875 "/></g></g></g><g fill="#000000" fill-opacity="1"><g transform="translate(164.306094, 210.937501)"><g><path d="M 19.625 -31.390625 C 21.957031 -31.390625 24.0625 -30.890625 25.9375 -29.890625 C 27.8125 -28.898438 29.28125 -27.410156 30.34375 -25.421875 C 31.414062 -23.429688 31.953125 -21.015625 31.953125 -18.171875 L 31.953125 0 L 26.890625 0 L 26.890625 -17.4375 C 26.890625 -20.507812 26.117188 -22.859375 24.578125 -24.484375 C 23.046875 -26.117188 20.945312 -26.9375 18.28125 -26.9375 C 15.582031 -26.9375 13.4375 -26.09375 11.84375 -24.40625 C 10.25 -22.71875 9.453125 -20.265625 9.453125 -17.046875 L 9.453125 0 L 4.328125 0 L 4.328125 -41.625 L 9.453125 -41.625 L 9.453125 -26.4375 C 10.460938 -28.007812 11.859375 -29.226562 13.640625 -30.09375 C 15.421875 -30.957031 17.414062 -31.390625 19.625 -31.390625 Z M 19.625 -31.390625 "/></g></g></g><g fill="#000000" fill-opacity="1"><g transform="translate(200.306058, 210.937501)"><g><path d="M 19.34375 -31.390625 C 23.09375 -31.390625 26.128906 -30.253906 28.453125 -27.984375 C 30.785156 -25.710938 31.953125 -22.441406 31.953125 -18.171875 L 31.953125 0 L 26.890625 0 L 26.890625 -17.4375 C 26.890625 -20.507812 26.117188 -22.859375 24.578125 -24.484375 C 23.046875 -26.117188 20.945312 -26.9375 18.28125 -26.9375 C 15.582031 -26.9375 13.4375 -26.09375 11.84375 -24.40625 C 10.25 -22.71875 9.453125 -20.265625 9.453125 -17.046875 L 9.453125 0 L 4.328125 0 L 4.328125 -30.828125 L 9.453125 -30.828125 L 9.453125 -26.4375 C 10.460938 -28.007812 11.835938 -29.226562 13.578125 -30.09375 C 15.328125 -30.957031 17.25 -31.390625 19.34375 -31.390625 Z M 19.34375 -31.390625 "/></g></g></g><g fill="#000000" fill-opacity="1"><g transform="translate(236.306022, 210.937501)"><g><path d="M 6.96875 -35.828125 C 6 -35.828125 5.175781 -36.164062 4.5 -36.84375 C 3.820312 -37.519531 3.484375 -38.34375 3.484375 -39.3125 C 3.484375 -40.289062 3.820312 -41.117188 4.5 -41.796875 C 5.175781 -42.472656 6 -42.8125 6.96875 -42.8125 C 7.90625 -42.8125 8.703125 -42.472656 9.359375 -41.796875 C 10.015625 -41.117188 10.34375 -40.289062 10.34375 -39.3125 C 10.34375 -38.34375 10.015625 -37.519531 9.359375 -36.84375 C 8.703125 -36.164062 7.90625 -35.828125 6.96875 -35.828125 Z M 9.453125 -30.828125 L 9.453125 0 L 4.328125 0 L 4.328125 -30.828125 Z M 9.453125 -30.828125 "/></g></g></g><g fill="#000000" fill-opacity="1"><g transform="translate(250.143516, 210.937501)"><g><path d="M 2.421875 -15.46875 C 2.421875 -18.65625 3.054688 -21.4375 4.328125 -23.8125 C 5.609375 -26.195312 7.378906 -28.046875 9.640625 -29.359375 C 11.910156 -30.671875 14.507812 -31.328125 17.4375 -31.328125 C 21.226562 -31.328125 24.347656 -30.40625 26.796875 -28.5625 C 29.253906 -26.726562 30.878906 -24.179688 31.671875 -20.921875 L 26.15625 -20.921875 C 25.632812 -22.796875 24.613281 -24.273438 23.09375 -25.359375 C 21.570312 -26.453125 19.6875 -27 17.4375 -27 C 14.507812 -27 12.144531 -25.992188 10.34375 -23.984375 C 8.550781 -21.984375 7.65625 -19.144531 7.65625 -15.46875 C 7.65625 -11.757812 8.550781 -8.890625 10.34375 -6.859375 C 12.144531 -4.835938 14.507812 -3.828125 17.4375 -3.828125 C 19.6875 -3.828125 21.5625 -4.347656 23.0625 -5.390625 C 24.5625 -6.441406 25.59375 -7.945312 26.15625 -9.90625 L 31.671875 -9.90625 C 30.847656 -6.75 29.195312 -4.222656 26.71875 -2.328125 C 24.238281 -0.441406 21.144531 0.5 17.4375 0.5 C 14.507812 0.5 11.910156 -0.15625 9.640625 -1.46875 C 7.378906 -2.78125 5.609375 -4.632812 4.328125 -7.03125 C 3.054688 -9.425781 2.421875 -12.238281 2.421875 -15.46875 Z M 2.421875 -15.46875 "/></g></g></g><g fill="#000000" fill-opacity="1"><g transform="translate(284.287249, 210.937501)"><g><path d="M 2.421875 -15.53125 C 2.421875 -18.675781 3.054688 -21.4375 4.328125 -23.8125 C 5.609375 -26.195312 7.363281 -28.046875 9.59375 -29.359375 C 11.820312 -30.671875 14.304688 -31.328125 17.046875 -31.328125 C 19.742188 -31.328125 22.085938 -30.742188 24.078125 -29.578125 C 26.066406 -28.421875 27.546875 -26.960938 28.515625 -25.203125 L 28.515625 -30.828125 L 33.6875 -30.828125 L 33.6875 0 L 28.515625 0 L 28.515625 -5.734375 C 27.503906 -3.929688 25.992188 -2.441406 23.984375 -1.265625 C 21.984375 -0.0859375 19.648438 0.5 16.984375 0.5 C 14.242188 0.5 11.769531 -0.171875 9.5625 -1.515625 C 7.351562 -2.867188 5.609375 -4.765625 4.328125 -7.203125 C 3.054688 -9.640625 2.421875 -12.414062 2.421875 -15.53125 Z M 28.515625 -15.46875 C 28.515625 -17.789062 28.046875 -19.8125 27.109375 -21.53125 C 26.171875 -23.257812 24.90625 -24.582031 23.3125 -25.5 C 21.71875 -26.425781 19.96875 -26.890625 18.0625 -26.890625 C 16.144531 -26.890625 14.398438 -26.4375 12.828125 -25.53125 C 11.253906 -24.632812 10 -23.320312 9.0625 -21.59375 C 8.125 -19.875 7.65625 -17.851562 7.65625 -15.53125 C 7.65625 -13.164062 8.125 -11.109375 9.0625 -9.359375 C 10 -7.617188 11.253906 -6.289062 12.828125 -5.375 C 14.398438 -4.457031 16.144531 -4 18.0625 -4 C 19.96875 -4 21.71875 -4.457031 23.3125 -5.375 C 24.90625 -6.289062 26.171875 -7.617188 27.109375 -9.359375 C 28.046875 -11.109375 28.515625 -13.144531 28.515625 -15.46875 Z M 28.515625 -15.46875 "/></g></g></g><g fill="#000000" fill-opacity="1"><g transform="translate(322.312216, 210.937501)"><g><path d="M 9.453125 -41.625 L 9.453125 0 L 4.328125 0 L 4.328125 -41.625 Z M 9.453125 -41.625 "/></g></g></g><g fill="#000000" fill-opacity="1"><g transform="translate(336.149696, 210.937501)"><g/></g></g><g fill="#000000" fill-opacity="1"><g transform="translate(351.168435, 210.937501)"><g><path d="M 53.609375 -39.203125 L 42.25 0 L 36.5 0 L 27.390625 -31.5625 L 17.9375 0 L 12.265625 0.0625 L 1.296875 -39.203125 L 6.75 -39.203125 L 15.296875 -5.96875 L 24.75 -39.203125 L 30.484375 -39.203125 L 39.484375 -6.078125 L 48.09375 -39.203125 Z M 53.609375 -39.203125 "/></g></g></g><g fill="#000000" fill-opacity="1"><g transform="translate(406.068402, 210.937501)"><g><path d="M 9.453125 -25.8125 C 10.347656 -27.582031 11.628906 -28.953125 13.296875 -29.921875 C 14.972656 -30.898438 17.007812 -31.390625 19.40625 -31.390625 L 19.40625 -26.09375 L 18.0625 -26.09375 C 12.320312 -26.09375 9.453125 -22.984375 9.453125 -16.765625 L 9.453125 0 L 4.328125 0 L 4.328125 -30.828125 L 9.453125 -30.828125 Z M 9.453125 -25.8125 "/></g></g></g><g fill="#000000" fill-opacity="1"><g transform="translate(427.049627, 210.937501)"><g><path d="M 6.96875 -35.828125 C 6 -35.828125 5.175781 -36.164062 4.5 -36.84375 C 3.820312 -37.519531 3.484375 -38.34375 3.484375 -39.3125 C 3.484375 -40.289062 3.820312 -41.117188 4.5 -41.796875 C 5.175781 -42.472656 6 -42.8125 6.96875 -42.8125 C 7.90625 -42.8125 8.703125 -42.472656 9.359375 -41.796875 C 10.015625 -41.117188 10.34375 -40.289062 10.34375 -39.3125 C 10.34375 -38.34375 10.015625 -37.519531 9.359375 -36.84375 C 8.703125 -36.164062 7.90625 -35.828125 6.96875 -35.828125 Z M 9.453125 -30.828125 L 9.453125 0 L 4.328125 0 L 4.328125 -30.828125 Z M 9.453125 -30.828125 "/></g></g></g><g fill="#000000" fill-opacity="1"><g transform="translate(440.887107, 210.937501)"><g><path d="M 10.578125 -26.609375 L 10.578125 -8.4375 C 10.578125 -6.9375 10.894531 -5.875 11.53125 -5.25 C 12.164062 -4.632812 13.269531 -4.328125 14.84375 -4.328125 L 18.625 -4.328125 L 18.625 0 L 14 0 C 11.15625 0 9.019531 -0.65625 7.59375 -1.96875 C 6.164062 -3.28125 5.453125 -5.4375 5.453125 -8.4375 L 5.453125 -26.609375 L 1.46875 -26.609375 L 1.46875 -30.828125 L 5.453125 -30.828125 L 5.453125 -38.59375 L 10.578125 -38.59375 L 10.578125 -30.828125 L 18.625 -30.828125 L 18.625 -26.609375 Z M 10.578125 -26.609375 "/></g></g></g><g fill="#000000" fill-opacity="1"><g transform="translate(461.362074, 210.937501)"><g><path d="M 6.96875 -35.828125 C 6 -35.828125 5.175781 -36.164062 4.5 -36.84375 C 3.820312 -37.519531 3.484375 -38.34375 3.484375 -39.3125 C 3.484375 -40.289062 3.820312 -41.117188 4.5 -41.796875 C 5.175781 -42.472656 6 -42.8125 6.96875 -42.8125 C 7.90625 -42.8125 8.703125 -42.472656 9.359375 -41.796875 C 10.015625 -41.117188 10.34375 -40.289062 10.34375 -39.3125 C 10.34375 -38.34375 10.015625 -37.519531 9.359375 -36.84375 C 8.703125 -36.164062 7.90625 -35.828125 6.96875 -35.828125 Z M 9.453125 -30.828125 L 9.453125 0 L 4.328125 0 L 4.328125 -30.828125 Z M 9.453125 -30.828125 "/></g></g></g><g fill="#000000" fill-opacity="1"><g transform="translate(475.199554, 210.937501)"><g><path d="M 19.34375 -31.390625 C 23.09375 -31.390625 26.128906 -30.253906 28.453125 -27.984375 C 30.785156 -25.710938 31.953125 -22.441406 31.953125 -18.171875 L 31.953125 0 L 26.890625 0 L 26.890625 -17.4375 C 26.890625 -20.507812 26.117188 -22.859375 24.578125 -24.484375 C 23.046875 -26.117188 20.945312 -26.9375 18.28125 -26.9375 C 15.582031 -26.9375 13.4375 -26.09375 11.84375 -24.40625 C 10.25 -22.71875 9.453125 -20.265625 9.453125 -17.046875 L 9.453125 0 L 4.328125 0 L 4.328125 -30.828125 L 9.453125 -30.828125 L 9.453125 -26.4375 C 10.460938 -28.007812 11.835938 -29.226562 13.578125 -30.09375 C 15.328125 -30.957031 17.25 -31.390625 19.34375 -31.390625 Z M 19.34375 -31.390625 "/></g></g></g><g fill="#000000" fill-opacity="1"><g transform="translate(511.199547, 210.937501)"><g><path d="M 17.046875 -31.328125 C 19.703125 -31.328125 22.035156 -30.742188 24.046875 -29.578125 C 26.054688 -28.421875 27.546875 -26.960938 28.515625 -25.203125 L 28.515625 -30.828125 L 33.6875 -30.828125 L 33.6875 0.671875 C 33.6875 3.484375 33.085938 5.984375 31.890625 8.171875 C 30.691406 10.367188 28.976562 12.085938 26.75 13.328125 C 24.519531 14.566406 21.921875 15.1875 18.953125 15.1875 C 14.898438 15.1875 11.523438 14.226562 8.828125 12.3125 C 6.128906 10.40625 4.535156 7.800781 4.046875 4.5 L 9.109375 4.5 C 9.671875 6.375 10.832031 7.882812 12.59375 9.03125 C 14.363281 10.175781 16.484375 10.75 18.953125 10.75 C 21.765625 10.75 24.0625 9.863281 25.84375 8.09375 C 27.625 6.332031 28.515625 3.859375 28.515625 0.671875 L 28.515625 -5.796875 C 27.503906 -3.992188 26.003906 -2.492188 24.015625 -1.296875 C 22.023438 -0.0976562 19.703125 0.5 17.046875 0.5 C 14.304688 0.5 11.820312 -0.171875 9.59375 -1.515625 C 7.363281 -2.867188 5.609375 -4.765625 4.328125 -7.203125 C 3.054688 -9.640625 2.421875 -12.414062 2.421875 -15.53125 C 2.421875 -18.675781 3.054688 -21.4375 4.328125 -23.8125 C 5.609375 -26.195312 7.363281 -28.046875 9.59375 -29.359375 C 11.820312 -30.671875 14.304688 -31.328125 17.046875 -31.328125 Z M 28.515625 -15.46875 C 28.515625 -17.789062 28.046875 -19.8125 27.109375 -21.53125 C 26.171875 -23.257812 24.90625 -24.582031 23.3125 -25.5 C 21.71875 -26.425781 19.96875 -26.890625 18.0625 -26.890625 C 16.144531 -26.890625 14.398438 -26.4375 12.828125 -25.53125 C 11.253906 -24.632812 10 -23.320312 9.0625 -21.59375 C 8.125 -19.875 7.65625 -17.851562 7.65625 -15.53125 C 7.65625 -13.164062 8.125 -11.109375 9.0625 -9.359375 C 10 -7.617188 11.253906 -6.289062 12.828125 -5.375 C 14.398438 -4.457031 16.144531 -4 18.0625 -4 C 19.96875 -4 21.71875 -4.457031 23.3125 -5.375 C 24.90625 -6.289062 26.171875 -7.617188 27.109375 -9.359375 C 28.046875 -11.109375 28.515625 -13.144531 28.515625 -15.46875 Z M 28.515625 -15.46875 "/></g></g></g></svg>