<svg xmlns="http://www.w3.org/2000/svg" xmlns:xlink="http://www.w3.org/1999/xlink" width="1200" zoomAndPan="magnify" viewBox="0 0 900 225" height="300" preserveAspectRatio="xMidYMid meet" version="1.0"><defs><g/><clipPath id="25dc757cc6"><path d="M 662.003906 0 L 810.15625 0 L 810.15625 162 L 662.003906 162 Z M 662.003906 0 " clip-rule="nonzero"/></clipPath><clipPath id="2e55be74f3"><path d="M 715.050781 53 L 900 53 L 900 224.992188 L 715.050781 224.992188 Z M 715.050781 53 " clip-rule="nonzero"/></clipPath></defs><g fill="#000000" fill-opacity="1"><g transform="translate(0, 54.375008)"><g><path d="M 14.625 0 L 14.625 -36.109375 L 0.671875 -36.109375 L 0.671875 -40.046875 L 33.25 -40.046875 L 33.25 -36.109375 L 19.296875 -36.109375 L 19.296875 0 Z M 14.625 0 "/></g></g></g><g fill="#000000" fill-opacity="1"><g transform="translate(33.918764, 54.375008)"><g><path d="M 18.5 -28.96875 C 25.289062 -28.96875 28.6875 -25.238281 28.6875 -17.78125 L 28.6875 0 L 24.125 0 L 24.125 -17.546875 C 24.125 -20.171875 23.597656 -22.09375 22.546875 -23.3125 C 21.503906 -24.53125 19.859375 -25.140625 17.609375 -25.140625 C 14.984375 -25.140625 12.878906 -24.332031 11.296875 -22.71875 C 9.722656 -21.113281 8.9375 -18.941406 8.9375 -16.203125 L 8.9375 0 L 4.390625 0 L 4.390625 -41.40625 L 8.9375 -41.40625 L 8.9375 -23.6875 C 9.84375 -25.40625 11.128906 -26.710938 12.796875 -27.609375 C 14.460938 -28.515625 16.363281 -28.96875 18.5 -28.96875 Z M 18.5 -28.96875 "/></g></g></g><g fill="#000000" fill-opacity="1"><g transform="translate(66.825036, 54.375008)"><g><path d="M 28.0625 -14.28125 L 7.3125 -14.28125 C 7.351562 -10.6875 8.1875 -7.96875 9.8125 -6.125 C 11.445312 -4.289062 13.820312 -3.375 16.9375 -3.375 C 20.226562 -3.375 23.265625 -4.476562 26.046875 -6.6875 L 27.5625 -3.375 C 26.320312 -2.207031 24.734375 -1.285156 22.796875 -0.609375 C 20.867188 0.0546875 18.894531 0.390625 16.875 0.390625 C 12.445312 0.390625 8.976562 -0.910156 6.46875 -3.515625 C 3.957031 -6.117188 2.703125 -9.691406 2.703125 -14.234375 C 2.703125 -17.117188 3.265625 -19.675781 4.390625 -21.90625 C 5.515625 -24.132812 7.085938 -25.867188 9.109375 -27.109375 C 11.140625 -28.347656 13.445312 -28.96875 16.03125 -28.96875 C 19.78125 -28.96875 22.722656 -27.738281 24.859375 -25.28125 C 26.992188 -22.820312 28.0625 -19.4375 28.0625 -15.125 Z M 16.09375 -25.421875 C 13.726562 -25.421875 11.800781 -24.707031 10.3125 -23.28125 C 8.832031 -21.863281 7.890625 -19.859375 7.484375 -17.265625 L 23.96875 -17.265625 C 23.738281 -19.929688 22.957031 -21.957031 21.625 -23.34375 C 20.289062 -24.726562 18.445312 -25.421875 16.09375 -25.421875 Z M 16.09375 -25.421875 "/></g></g></g><g fill="#000000" fill-opacity="1"><g transform="translate(97.42506, 54.375008)"><g/></g></g><g fill="#000000" fill-opacity="1"><g transform="translate(112.106319, 54.375008)"><g><path d="M 36.390625 0 L 31.5 0 L 26.546875 -13.328125 C 25.953125 -14.984375 25.117188 -16.09375 24.046875 -16.65625 C 22.972656 -17.21875 21.460938 -17.5 19.515625 -17.5 L 9.5 -17.5 L 9.5 0 L 4.953125 0 L 4.953125 -40.046875 L 20.875 -40.046875 C 25.1875 -40.046875 28.492188 -39.085938 30.796875 -37.171875 C 33.097656 -35.265625 34.25 -32.507812 34.25 -28.90625 C 34.25 -26.28125 33.566406 -24.078125 32.203125 -22.296875 C 30.835938 -20.515625 28.859375 -19.25 26.265625 -18.5 C 27.429688 -18.3125 28.425781 -17.816406 29.25 -17.015625 C 30.070312 -16.210938 30.765625 -15.0625 31.328125 -13.5625 Z M 20.46875 -21.3125 C 26.625 -21.3125 29.703125 -23.828125 29.703125 -28.859375 C 29.703125 -31.328125 28.953125 -33.171875 27.453125 -34.390625 C 25.953125 -35.609375 23.625 -36.21875 20.46875 -36.21875 L 9.5 -36.21875 L 9.5 -21.3125 Z M 20.46875 -21.3125 "/></g></g></g><g fill="#000000" fill-opacity="1"><g transform="translate(151.087595, 54.375008)"><g><path d="M 16.09375 0.390625 C 13.425781 0.390625 11.078125 -0.207031 9.046875 -1.40625 C 7.023438 -2.601562 5.460938 -4.304688 4.359375 -6.515625 C 3.253906 -8.734375 2.703125 -11.320312 2.703125 -14.28125 C 2.703125 -17.25 3.253906 -19.835938 4.359375 -22.046875 C 5.460938 -24.265625 7.023438 -25.972656 9.046875 -27.171875 C 11.078125 -28.367188 13.425781 -28.96875 16.09375 -28.96875 C 18.75 -28.96875 21.085938 -28.367188 23.109375 -27.171875 C 25.140625 -25.972656 26.707031 -24.265625 27.8125 -22.046875 C 28.914062 -19.835938 29.46875 -17.25 29.46875 -14.28125 C 29.46875 -11.320312 28.914062 -8.734375 27.8125 -6.515625 C 26.707031 -4.304688 25.140625 -2.601562 23.109375 -1.40625 C 21.085938 -0.207031 18.75 0.390625 16.09375 0.390625 Z M 16.09375 -3.375 C 18.90625 -3.375 21.0625 -4.300781 22.5625 -6.15625 C 24.0625 -8.007812 24.8125 -10.71875 24.8125 -14.28125 C 24.8125 -17.738281 24.039062 -20.410156 22.5 -22.296875 C 20.957031 -24.191406 18.820312 -25.140625 16.09375 -25.140625 C 13.3125 -25.140625 11.148438 -24.191406 9.609375 -22.296875 C 8.078125 -20.410156 7.3125 -17.738281 7.3125 -14.28125 C 7.3125 -10.71875 8.070312 -8.007812 9.59375 -6.15625 C 11.113281 -4.300781 13.28125 -3.375 16.09375 -3.375 Z M 16.09375 -3.375 "/></g></g></g><g fill="#000000" fill-opacity="1"><g transform="translate(183.262612, 54.375008)"><g><path d="M 4.390625 0 L 4.390625 -41.40625 L 8.9375 -41.40625 L 8.9375 0 Z M 4.390625 0 "/></g></g></g><g fill="#000000" fill-opacity="1"><g transform="translate(196.650116, 54.375008)"><g><path d="M 28.0625 -14.28125 L 7.3125 -14.28125 C 7.351562 -10.6875 8.1875 -7.96875 9.8125 -6.125 C 11.445312 -4.289062 13.820312 -3.375 16.9375 -3.375 C 20.226562 -3.375 23.265625 -4.476562 26.046875 -6.6875 L 27.5625 -3.375 C 26.320312 -2.207031 24.734375 -1.285156 22.796875 -0.609375 C 20.867188 0.0546875 18.894531 0.390625 16.875 0.390625 C 12.445312 0.390625 8.976562 -0.910156 6.46875 -3.515625 C 3.957031 -6.117188 2.703125 -9.691406 2.703125 -14.234375 C 2.703125 -17.117188 3.265625 -19.675781 4.390625 -21.90625 C 5.515625 -24.132812 7.085938 -25.867188 9.109375 -27.109375 C 11.140625 -28.347656 13.445312 -28.96875 16.03125 -28.96875 C 19.78125 -28.96875 22.722656 -27.738281 24.859375 -25.28125 C 26.992188 -22.820312 28.0625 -19.4375 28.0625 -15.125 Z M 16.09375 -25.421875 C 13.726562 -25.421875 11.800781 -24.707031 10.3125 -23.28125 C 8.832031 -21.863281 7.890625 -19.859375 7.484375 -17.265625 L 23.96875 -17.265625 C 23.738281 -19.929688 22.957031 -21.957031 21.625 -23.34375 C 20.289062 -24.726562 18.445312 -25.421875 16.09375 -25.421875 Z M 16.09375 -25.421875 "/></g></g></g><g fill="#000000" fill-opacity="1"><g transform="translate(227.261713, 54.375008)"><g/></g></g><g fill="#000000" fill-opacity="1"><g transform="translate(0, 133.125004)"><g><path d="M 16.09375 0.390625 C 13.425781 0.390625 11.078125 -0.207031 9.046875 -1.40625 C 7.023438 -2.601562 5.460938 -4.304688 4.359375 -6.515625 C 3.253906 -8.734375 2.703125 -11.320312 2.703125 -14.28125 C 2.703125 -17.25 3.253906 -19.835938 4.359375 -22.046875 C 5.460938 -24.265625 7.023438 -25.972656 9.046875 -27.171875 C 11.078125 -28.367188 13.425781 -28.96875 16.09375 -28.96875 C 18.75 -28.96875 21.085938 -28.367188 23.109375 -27.171875 C 25.140625 -25.972656 26.707031 -24.265625 27.8125 -22.046875 C 28.914062 -19.835938 29.46875 -17.25 29.46875 -14.28125 C 29.46875 -11.320312 28.914062 -8.734375 27.8125 -6.515625 C 26.707031 -4.304688 25.140625 -2.601562 23.109375 -1.40625 C 21.085938 -0.207031 18.75 0.390625 16.09375 0.390625 Z M 16.09375 -3.375 C 18.90625 -3.375 21.0625 -4.300781 22.5625 -6.15625 C 24.0625 -8.007812 24.8125 -10.71875 24.8125 -14.28125 C 24.8125 -17.738281 24.039062 -20.410156 22.5 -22.296875 C 20.957031 -24.191406 18.820312 -25.140625 16.09375 -25.140625 C 13.3125 -25.140625 11.148438 -24.191406 9.609375 -22.296875 C 8.078125 -20.410156 7.3125 -17.738281 7.3125 -14.28125 C 7.3125 -10.71875 8.070312 -8.007812 9.59375 -6.15625 C 11.113281 -4.300781 13.28125 -3.375 16.09375 -3.375 Z M 16.09375 -3.375 "/></g></g></g><g fill="#000000" fill-opacity="1"><g transform="translate(32.118769, 133.125004)"><g><path d="M 15.25 -37.6875 C 13.75 -37.6875 12.578125 -37.265625 11.734375 -36.421875 C 10.890625 -35.578125 10.46875 -34.125 10.46875 -32.0625 L 10.46875 -28.296875 L 17.375 -28.296875 L 17.375 -24.6875 L 10.46875 -24.6875 L 10.46875 0 L 5.90625 0 L 5.90625 -24.6875 L 0.390625 -24.6875 L 0.390625 -28.296875 L 5.90625 -28.296875 L 5.90625 -32.625 C 5.90625 -35.582031 6.644531 -37.820312 8.125 -39.34375 C 9.601562 -40.863281 11.675781 -41.625 14.34375 -41.625 C 15.65625 -41.625 16.929688 -41.457031 18.171875 -41.125 L 18.171875 -37.234375 C 17.117188 -37.535156 16.144531 -37.6875 15.25 -37.6875 Z M 15.25 -37.6875 "/></g></g></g><g fill="#000000" fill-opacity="1"><g transform="translate(51.075025, 133.125004)"><g/></g></g><g fill="#000000" fill-opacity="1"><g transform="translate(65.756283, 133.125004)"><g><path d="M 4.953125 0 L 4.953125 -40.046875 L 9.5625 -40.046875 L 9.5625 0 Z M 4.953125 0 "/></g></g></g><g fill="#000000" fill-opacity="1"><g transform="translate(80.268787, 133.125004)"><g><path d="M 18.5 -28.96875 C 25.289062 -28.96875 28.6875 -25.238281 28.6875 -17.78125 L 28.6875 0 L 24.125 0 L 24.125 -17.546875 C 24.125 -20.171875 23.597656 -22.09375 22.546875 -23.3125 C 21.503906 -24.53125 19.859375 -25.140625 17.609375 -25.140625 C 14.984375 -25.140625 12.878906 -24.332031 11.296875 -22.71875 C 9.722656 -21.113281 8.9375 -18.941406 8.9375 -16.203125 L 8.9375 0 L 4.390625 0 L 4.390625 -20.359375 C 4.390625 -23.285156 4.238281 -25.929688 3.9375 -28.296875 L 8.265625 -28.296875 L 8.71875 -23.234375 C 9.582031 -25.066406 10.875 -26.476562 12.59375 -27.46875 C 14.320312 -28.46875 16.289062 -28.96875 18.5 -28.96875 Z M 18.5 -28.96875 "/></g></g></g><g fill="#000000" fill-opacity="1"><g transform="translate(113.175059, 133.125004)"><g><path d="M 16.25 0.390625 C 13.519531 0.390625 11.128906 -0.207031 9.078125 -1.40625 C 7.035156 -2.601562 5.460938 -4.296875 4.359375 -6.484375 C 3.253906 -8.679688 2.703125 -11.242188 2.703125 -14.171875 C 2.703125 -17.097656 3.265625 -19.675781 4.390625 -21.90625 C 5.515625 -24.132812 7.113281 -25.867188 9.1875 -27.109375 C 11.269531 -28.347656 13.703125 -28.96875 16.484375 -28.96875 C 18.390625 -28.96875 20.234375 -28.640625 22.015625 -27.984375 C 23.796875 -27.328125 25.269531 -26.414062 26.4375 -25.25 L 24.921875 -21.875 C 23.492188 -23 22.113281 -23.820312 20.78125 -24.34375 C 19.445312 -24.875 18.085938 -25.140625 16.703125 -25.140625 C 13.816406 -25.140625 11.546875 -24.171875 9.890625 -22.234375 C 8.242188 -20.304688 7.421875 -17.617188 7.421875 -14.171875 C 7.421875 -10.765625 8.234375 -8.113281 9.859375 -6.21875 C 11.492188 -4.320312 13.773438 -3.375 16.703125 -3.375 C 18.085938 -3.375 19.445312 -3.632812 20.78125 -4.15625 C 22.113281 -4.6875 23.492188 -5.515625 24.921875 -6.640625 L 26.4375 -3.265625 C 25.238281 -2.140625 23.726562 -1.25 21.90625 -0.59375 C 20.09375 0.0625 18.207031 0.390625 16.25 0.390625 Z M 16.25 0.390625 "/></g></g></g><g fill="#000000" fill-opacity="1"><g transform="translate(141.018831, 133.125004)"><g><path d="M 4.390625 0 L 4.390625 -41.40625 L 8.9375 -41.40625 L 8.9375 0 Z M 4.390625 0 "/></g></g></g><g fill="#000000" fill-opacity="1"><g transform="translate(154.406335, 133.125004)"><g><path d="M 28.0625 -28.296875 L 28.0625 0 L 23.625 0 L 23.625 -4.890625 C 22.726562 -3.171875 21.472656 -1.859375 19.859375 -0.953125 C 18.242188 -0.0546875 16.425781 0.390625 14.40625 0.390625 C 11.0625 0.390625 8.523438 -0.546875 6.796875 -2.421875 C 5.078125 -4.296875 4.21875 -7.070312 4.21875 -10.75 L 4.21875 -28.296875 L 8.78125 -28.296875 L 8.78125 -10.859375 C 8.78125 -8.304688 9.300781 -6.429688 10.34375 -5.234375 C 11.394531 -4.035156 12.988281 -3.4375 15.125 -3.4375 C 17.644531 -3.4375 19.671875 -4.25 21.203125 -5.875 C 22.742188 -7.507812 23.515625 -9.65625 23.515625 -12.3125 L 23.515625 -28.296875 Z M 28.0625 -28.296875 "/></g></g></g><g fill="#000000" fill-opacity="1"><g transform="translate(186.862602, 133.125004)"><g><path d="M 13.953125 0.390625 C 9.191406 0.390625 5.421875 -0.828125 2.640625 -3.265625 L 4.15625 -6.640625 C 5.695312 -5.441406 7.253906 -4.578125 8.828125 -4.046875 C 10.398438 -3.523438 12.164062 -3.265625 14.125 -3.265625 C 16.257812 -3.265625 17.878906 -3.628906 18.984375 -4.359375 C 20.085938 -5.085938 20.640625 -6.144531 20.640625 -7.53125 C 20.640625 -8.65625 20.265625 -9.554688 19.515625 -10.234375 C 18.765625 -10.910156 17.53125 -11.4375 15.8125 -11.8125 L 11.03125 -12.9375 C 8.664062 -13.457031 6.832031 -14.394531 5.53125 -15.75 C 4.238281 -17.101562 3.59375 -18.71875 3.59375 -20.59375 C 3.59375 -23.0625 4.585938 -25.070312 6.578125 -26.625 C 8.566406 -28.1875 11.191406 -28.96875 14.453125 -28.96875 C 16.441406 -28.96875 18.316406 -28.648438 20.078125 -28.015625 C 21.835938 -27.378906 23.320312 -26.457031 24.53125 -25.25 L 23 -21.9375 C 20.34375 -24.144531 17.492188 -25.25 14.453125 -25.25 C 12.429688 -25.25 10.863281 -24.863281 9.75 -24.09375 C 8.644531 -23.332031 8.09375 -22.257812 8.09375 -20.875 C 8.09375 -19.707031 8.441406 -18.785156 9.140625 -18.109375 C 9.835938 -17.429688 10.953125 -16.90625 12.484375 -16.53125 L 17.265625 -15.359375 C 19.890625 -14.753906 21.835938 -13.820312 23.109375 -12.5625 C 24.390625 -11.3125 25.03125 -9.675781 25.03125 -7.65625 C 25.03125 -5.21875 24.035156 -3.265625 22.046875 -1.796875 C 20.054688 -0.335938 17.359375 0.390625 13.953125 0.390625 Z M 13.953125 0.390625 "/></g></g></g><g fill="#000000" fill-opacity="1"><g transform="translate(214.76261, 133.125004)"><g><path d="M 4.390625 0 L 4.390625 -28.296875 L 8.9375 -28.296875 L 8.9375 0 Z M 3.9375 -40.28125 L 9.515625 -40.28125 L 9.515625 -35.109375 L 3.9375 -35.109375 Z M 3.9375 -40.28125 "/></g></g></g><g fill="#000000" fill-opacity="1"><g transform="translate(228.150113, 133.125004)"><g><path d="M 24.6875 -28.234375 L 29.25 -28.234375 L 17.046875 0 L 12.71875 0 L 0.671875 -28.234375 L 5.453125 -28.234375 L 15.015625 -4.953125 Z M 24.6875 -28.234375 "/></g></g></g><g fill="#000000" fill-opacity="1"><g transform="translate(257.681386, 133.125004)"><g><path d="M 28.0625 -14.28125 L 7.3125 -14.28125 C 7.351562 -10.6875 8.1875 -7.96875 9.8125 -6.125 C 11.445312 -4.289062 13.820312 -3.375 16.9375 -3.375 C 20.226562 -3.375 23.265625 -4.476562 26.046875 -6.6875 L 27.5625 -3.375 C 26.320312 -2.207031 24.734375 -1.285156 22.796875 -0.609375 C 20.867188 0.0546875 18.894531 0.390625 16.875 0.390625 C 12.445312 0.390625 8.976562 -0.910156 6.46875 -3.515625 C 3.957031 -6.117188 2.703125 -9.691406 2.703125 -14.234375 C 2.703125 -17.117188 3.265625 -19.675781 4.390625 -21.90625 C 5.515625 -24.132812 7.085938 -25.867188 9.109375 -27.109375 C 11.140625 -28.347656 13.445312 -28.96875 16.03125 -28.96875 C 19.78125 -28.96875 22.722656 -27.738281 24.859375 -25.28125 C 26.992188 -22.820312 28.0625 -19.4375 28.0625 -15.125 Z M 16.09375 -25.421875 C 13.726562 -25.421875 11.800781 -24.707031 10.3125 -23.28125 C 8.832031 -21.863281 7.890625 -19.859375 7.484375 -17.265625 L 23.96875 -17.265625 C 23.738281 -19.929688 22.957031 -21.957031 21.625 -23.34375 C 20.289062 -24.726562 18.445312 -25.421875 16.09375 -25.421875 Z M 16.09375 -25.421875 "/></g></g></g><g fill="#000000" fill-opacity="1"><g transform="translate(288.281421, 133.125004)"><g/></g></g><g fill="#000000" fill-opacity="1"><g transform="translate(302.962679, 133.125004)"><g><path d="M 4.953125 0 L 4.953125 -40.046875 L 9.5625 -40.046875 L 9.5625 -3.9375 L 29.640625 -3.9375 L 29.640625 0 Z M 4.953125 0 "/></g></g></g><g fill="#000000" fill-opacity="1"><g transform="translate(333.562715, 133.125004)"><g><path d="M 29.3125 -28.296875 L 29.3125 0 L 24.8125 0 L 24.8125 -5.125 C 23.976562 -3.351562 22.726562 -1.988281 21.0625 -1.03125 C 19.394531 -0.0820312 17.457031 0.390625 15.25 0.390625 C 12.726562 0.390625 10.519531 -0.207031 8.625 -1.40625 C 6.738281 -2.601562 5.28125 -4.296875 4.25 -6.484375 C 3.21875 -8.679688 2.703125 -11.242188 2.703125 -14.171875 C 2.703125 -17.097656 3.222656 -19.675781 4.265625 -21.90625 C 5.316406 -24.132812 6.789062 -25.867188 8.6875 -27.109375 C 10.582031 -28.347656 12.769531 -28.96875 15.25 -28.96875 C 17.457031 -28.96875 19.382812 -28.476562 21.03125 -27.5 C 22.6875 -26.53125 23.945312 -25.164062 24.8125 -23.40625 L 24.8125 -28.296875 Z M 16.140625 -3.375 C 18.921875 -3.375 21.0625 -4.320312 22.5625 -6.21875 C 24.0625 -8.113281 24.8125 -10.800781 24.8125 -14.28125 C 24.8125 -17.769531 24.0625 -20.453125 22.5625 -22.328125 C 21.0625 -24.203125 18.921875 -25.140625 16.140625 -25.140625 C 13.367188 -25.140625 11.203125 -24.171875 9.640625 -22.234375 C 8.085938 -20.304688 7.3125 -17.617188 7.3125 -14.171875 C 7.3125 -10.722656 8.078125 -8.0625 9.609375 -6.1875 C 11.148438 -4.3125 13.328125 -3.375 16.140625 -3.375 Z M 16.140625 -3.375 "/></g></g></g><g fill="#000000" fill-opacity="1"><g transform="translate(367.312737, 133.125004)"><g><path d="M 18.5 -28.96875 C 25.289062 -28.96875 28.6875 -25.238281 28.6875 -17.78125 L 28.6875 0 L 24.125 0 L 24.125 -17.546875 C 24.125 -20.171875 23.597656 -22.09375 22.546875 -23.3125 C 21.503906 -24.53125 19.859375 -25.140625 17.609375 -25.140625 C 14.984375 -25.140625 12.878906 -24.332031 11.296875 -22.71875 C 9.722656 -21.113281 8.9375 -18.941406 8.9375 -16.203125 L 8.9375 0 L 4.390625 0 L 4.390625 -20.359375 C 4.390625 -23.285156 4.238281 -25.929688 3.9375 -28.296875 L 8.265625 -28.296875 L 8.71875 -23.234375 C 9.582031 -25.066406 10.875 -26.476562 12.59375 -27.46875 C 14.320312 -28.46875 16.289062 -28.96875 18.5 -28.96875 Z M 18.5 -28.96875 "/></g></g></g><g fill="#000000" fill-opacity="1"><g transform="translate(400.219009, 133.125004)"><g><path d="M 29.59375 -28.296875 L 29.59375 -0.21875 C 29.59375 3.976562 28.515625 7.15625 26.359375 9.3125 C 24.203125 11.46875 21.019531 12.546875 16.8125 12.546875 C 12.5 12.546875 8.789062 11.570312 5.6875 9.625 L 6.46875 5.90625 C 8.269531 6.914062 9.96875 7.644531 11.5625 8.09375 C 13.15625 8.550781 14.90625 8.78125 16.8125 8.78125 C 19.550781 8.78125 21.613281 8.054688 23 6.609375 C 24.394531 5.160156 25.09375 3.015625 25.09375 0.171875 L 25.09375 -6.53125 C 24.226562 -4.726562 22.957031 -3.328125 21.28125 -2.328125 C 19.613281 -1.335938 17.640625 -0.84375 15.359375 -0.84375 C 12.878906 -0.84375 10.671875 -1.421875 8.734375 -2.578125 C 6.804688 -3.742188 5.316406 -5.394531 4.265625 -7.53125 C 3.222656 -9.675781 2.703125 -12.132812 2.703125 -14.90625 C 2.703125 -17.675781 3.222656 -20.128906 4.265625 -22.265625 C 5.316406 -24.410156 6.804688 -26.0625 8.734375 -27.21875 C 10.671875 -28.382812 12.878906 -28.96875 15.359375 -28.96875 C 17.609375 -28.96875 19.566406 -28.476562 21.234375 -27.5 C 22.898438 -26.53125 24.164062 -25.164062 25.03125 -23.40625 L 25.03125 -28.296875 Z M 16.25 -4.671875 C 18.988281 -4.671875 21.132812 -5.578125 22.6875 -7.390625 C 24.25 -9.210938 25.03125 -11.71875 25.03125 -14.90625 C 25.03125 -18.09375 24.25 -20.59375 22.6875 -22.40625 C 21.132812 -24.226562 18.988281 -25.140625 16.25 -25.140625 C 13.476562 -25.140625 11.296875 -24.226562 9.703125 -22.40625 C 8.109375 -20.59375 7.3125 -18.09375 7.3125 -14.90625 C 7.3125 -11.71875 8.109375 -9.210938 9.703125 -7.390625 C 11.296875 -5.578125 13.476562 -4.671875 16.25 -4.671875 Z M 16.25 -4.671875 "/></g></g></g><g fill="#000000" fill-opacity="1"><g transform="translate(434.194044, 133.125004)"><g><path d="M 28.0625 -28.296875 L 28.0625 0 L 23.625 0 L 23.625 -4.890625 C 22.726562 -3.171875 21.472656 -1.859375 19.859375 -0.953125 C 18.242188 -0.0546875 16.425781 0.390625 14.40625 0.390625 C 11.0625 0.390625 8.523438 -0.546875 6.796875 -2.421875 C 5.078125 -4.296875 4.21875 -7.070312 4.21875 -10.75 L 4.21875 -28.296875 L 8.78125 -28.296875 L 8.78125 -10.859375 C 8.78125 -8.304688 9.300781 -6.429688 10.34375 -5.234375 C 11.394531 -4.035156 12.988281 -3.4375 15.125 -3.4375 C 17.644531 -3.4375 19.671875 -4.25 21.203125 -5.875 C 22.742188 -7.507812 23.515625 -9.65625 23.515625 -12.3125 L 23.515625 -28.296875 Z M 28.0625 -28.296875 "/></g></g></g><g fill="#000000" fill-opacity="1"><g transform="translate(466.650311, 133.125004)"><g><path d="M 29.3125 -28.296875 L 29.3125 0 L 24.8125 0 L 24.8125 -5.125 C 23.976562 -3.351562 22.726562 -1.988281 21.0625 -1.03125 C 19.394531 -0.0820312 17.457031 0.390625 15.25 0.390625 C 12.726562 0.390625 10.519531 -0.207031 8.625 -1.40625 C 6.738281 -2.601562 5.28125 -4.296875 4.25 -6.484375 C 3.21875 -8.679688 2.703125 -11.242188 2.703125 -14.171875 C 2.703125 -17.097656 3.222656 -19.675781 4.265625 -21.90625 C 5.316406 -24.132812 6.789062 -25.867188 8.6875 -27.109375 C 10.582031 -28.347656 12.769531 -28.96875 15.25 -28.96875 C 17.457031 -28.96875 19.382812 -28.476562 21.03125 -27.5 C 22.6875 -26.53125 23.945312 -25.164062 24.8125 -23.40625 L 24.8125 -28.296875 Z M 16.140625 -3.375 C 18.921875 -3.375 21.0625 -4.320312 22.5625 -6.21875 C 24.0625 -8.113281 24.8125 -10.800781 24.8125 -14.28125 C 24.8125 -17.769531 24.0625 -20.453125 22.5625 -22.328125 C 21.0625 -24.203125 18.921875 -25.140625 16.140625 -25.140625 C 13.367188 -25.140625 11.203125 -24.171875 9.640625 -22.234375 C 8.085938 -20.304688 7.3125 -17.617188 7.3125 -14.171875 C 7.3125 -10.722656 8.078125 -8.0625 9.609375 -6.1875 C 11.148438 -4.3125 13.328125 -3.375 16.140625 -3.375 Z M 16.140625 -3.375 "/></g></g><g transform="translate(500.400309, 133.125004)"><g><path d="M 29.59375 -28.296875 L 29.59375 -0.21875 C 29.59375 3.976562 28.515625 7.15625 26.359375 9.3125 C 24.203125 11.46875 21.019531 12.546875 16.8125 12.546875 C 12.5 12.546875 8.789062 11.570312 5.6875 9.625 L 6.46875 5.90625 C 8.269531 6.914062 9.96875 7.644531 11.5625 8.09375 C 13.15625 8.550781 14.90625 8.78125 16.8125 8.78125 C 19.550781 8.78125 21.613281 8.054688 23 6.609375 C 24.394531 5.160156 25.09375 3.015625 25.09375 0.171875 L 25.09375 -6.53125 C 24.226562 -4.726562 22.957031 -3.328125 21.28125 -2.328125 C 19.613281 -1.335938 17.640625 -0.84375 15.359375 -0.84375 C 12.878906 -0.84375 10.671875 -1.421875 8.734375 -2.578125 C 6.804688 -3.742188 5.316406 -5.394531 4.265625 -7.53125 C 3.222656 -9.675781 2.703125 -12.132812 2.703125 -14.90625 C 2.703125 -17.675781 3.222656 -20.128906 4.265625 -22.265625 C 5.316406 -24.410156 6.804688 -26.0625 8.734375 -27.21875 C 10.671875 -28.382812 12.878906 -28.96875 15.359375 -28.96875 C 17.609375 -28.96875 19.566406 -28.476562 21.234375 -27.5 C 22.898438 -26.53125 24.164062 -25.164062 25.03125 -23.40625 L 25.03125 -28.296875 Z M 16.25 -4.671875 C 18.988281 -4.671875 21.132812 -5.578125 22.6875 -7.390625 C 24.25 -9.210938 25.03125 -11.71875 25.03125 -14.90625 C 25.03125 -18.09375 24.25 -20.59375 22.6875 -22.40625 C 21.132812 -24.226562 18.988281 -25.140625 16.25 -25.140625 C 13.476562 -25.140625 11.296875 -24.226562 9.703125 -22.40625 C 8.109375 -20.59375 7.3125 -18.09375 7.3125 -14.90625 C 7.3125 -11.71875 8.109375 -9.210938 9.703125 -7.390625 C 11.296875 -5.578125 13.476562 -4.671875 16.25 -4.671875 Z M 16.25 -4.671875 "/></g></g></g><g fill="#000000" fill-opacity="1"><g transform="translate(534.375344, 133.125004)"><g><path d="M 28.0625 -14.28125 L 7.3125 -14.28125 C 7.351562 -10.6875 8.1875 -7.96875 9.8125 -6.125 C 11.445312 -4.289062 13.820312 -3.375 16.9375 -3.375 C 20.226562 -3.375 23.265625 -4.476562 26.046875 -6.6875 L 27.5625 -3.375 C 26.320312 -2.207031 24.734375 -1.285156 22.796875 -0.609375 C 20.867188 0.0546875 18.894531 0.390625 16.875 0.390625 C 12.445312 0.390625 8.976562 -0.910156 6.46875 -3.515625 C 3.957031 -6.117188 2.703125 -9.691406 2.703125 -14.234375 C 2.703125 -17.117188 3.265625 -19.675781 4.390625 -21.90625 C 5.515625 -24.132812 7.085938 -25.867188 9.109375 -27.109375 C 11.140625 -28.347656 13.445312 -28.96875 16.03125 -28.96875 C 19.78125 -28.96875 22.722656 -27.738281 24.859375 -25.28125 C 26.992188 -22.820312 28.0625 -19.4375 28.0625 -15.125 Z M 16.09375 -25.421875 C 13.726562 -25.421875 11.800781 -24.707031 10.3125 -23.28125 C 8.832031 -21.863281 7.890625 -19.859375 7.484375 -17.265625 L 23.96875 -17.265625 C 23.738281 -19.929688 22.957031 -21.957031 21.625 -23.34375 C 20.289062 -24.726562 18.445312 -25.421875 16.09375 -25.421875 Z M 16.09375 -25.421875 "/></g></g></g><g fill="#000000" fill-opacity="1"><g transform="translate(564.984351, 133.125004)"><g/></g></g><g fill="#000000" fill-opacity="1"><g transform="translate(0, 211.875001)"><g><path d="M 4.390625 0 L 4.390625 -28.296875 L 8.9375 -28.296875 L 8.9375 0 Z M 3.9375 -40.28125 L 9.515625 -40.28125 L 9.515625 -35.109375 L 3.9375 -35.109375 Z M 3.9375 -40.28125 "/></g></g></g><g fill="#000000" fill-opacity="1"><g transform="translate(13.387504, 211.875001)"><g><path d="M 18.5 -28.96875 C 25.289062 -28.96875 28.6875 -25.238281 28.6875 -17.78125 L 28.6875 0 L 24.125 0 L 24.125 -17.546875 C 24.125 -20.171875 23.597656 -22.09375 22.546875 -23.3125 C 21.503906 -24.53125 19.859375 -25.140625 17.609375 -25.140625 C 14.984375 -25.140625 12.878906 -24.332031 11.296875 -22.71875 C 9.722656 -21.113281 8.9375 -18.941406 8.9375 -16.203125 L 8.9375 0 L 4.390625 0 L 4.390625 -20.359375 C 4.390625 -23.285156 4.238281 -25.929688 3.9375 -28.296875 L 8.265625 -28.296875 L 8.71875 -23.234375 C 9.582031 -25.066406 10.875 -26.476562 12.59375 -27.46875 C 14.320312 -28.46875 16.289062 -28.96875 18.5 -28.96875 Z M 18.5 -28.96875 "/></g></g></g><g fill="#000000" fill-opacity="1"><g transform="translate(46.293776, 211.875001)"><g/></g></g><g fill="#000000" fill-opacity="1"><g transform="translate(60.975034, 211.875001)"><g><path d="M 14.625 0 L 14.625 -36.109375 L 0.671875 -36.109375 L 0.671875 -40.046875 L 33.25 -40.046875 L 33.25 -36.109375 L 19.296875 -36.109375 L 19.296875 0 Z M 14.625 0 "/></g></g></g><g fill="#000000" fill-opacity="1"><g transform="translate(90.562553, 211.875001)"><g><path d="M 28.0625 -14.28125 L 7.3125 -14.28125 C 7.351562 -10.6875 8.1875 -7.96875 9.8125 -6.125 C 11.445312 -4.289062 13.820312 -3.375 16.9375 -3.375 C 20.226562 -3.375 23.265625 -4.476562 26.046875 -6.6875 L 27.5625 -3.375 C 26.320312 -2.207031 24.734375 -1.285156 22.796875 -0.609375 C 20.867188 0.0546875 18.894531 0.390625 16.875 0.390625 C 12.445312 0.390625 8.976562 -0.910156 6.46875 -3.515625 C 3.957031 -6.117188 2.703125 -9.691406 2.703125 -14.234375 C 2.703125 -17.117188 3.265625 -19.675781 4.390625 -21.90625 C 5.515625 -24.132812 7.085938 -25.867188 9.109375 -27.109375 C 11.140625 -28.347656 13.445312 -28.96875 16.03125 -28.96875 C 19.78125 -28.96875 22.722656 -27.738281 24.859375 -25.28125 C 26.992188 -22.820312 28.0625 -19.4375 28.0625 -15.125 Z M 16.09375 -25.421875 C 13.726562 -25.421875 11.800781 -24.707031 10.3125 -23.28125 C 8.832031 -21.863281 7.890625 -19.859375 7.484375 -17.265625 L 23.96875 -17.265625 C 23.738281 -19.929688 22.957031 -21.957031 21.625 -23.34375 C 20.289062 -24.726562 18.445312 -25.421875 16.09375 -25.421875 Z M 16.09375 -25.421875 "/></g></g></g><g fill="#000000" fill-opacity="1"><g transform="translate(121.162577, 211.875001)"><g><path d="M 16.25 0.390625 C 13.519531 0.390625 11.128906 -0.207031 9.078125 -1.40625 C 7.035156 -2.601562 5.460938 -4.296875 4.359375 -6.484375 C 3.253906 -8.679688 2.703125 -11.242188 2.703125 -14.171875 C 2.703125 -17.097656 3.265625 -19.675781 4.390625 -21.90625 C 5.515625 -24.132812 7.113281 -25.867188 9.1875 -27.109375 C 11.269531 -28.347656 13.703125 -28.96875 16.484375 -28.96875 C 18.390625 -28.96875 20.234375 -28.640625 22.015625 -27.984375 C 23.796875 -27.328125 25.269531 -26.414062 26.4375 -25.25 L 24.921875 -21.875 C 23.492188 -23 22.113281 -23.820312 20.78125 -24.34375 C 19.445312 -24.875 18.085938 -25.140625 16.703125 -25.140625 C 13.816406 -25.140625 11.546875 -24.171875 9.890625 -22.234375 C 8.242188 -20.304688 7.421875 -17.617188 7.421875 -14.171875 C 7.421875 -10.765625 8.234375 -8.113281 9.859375 -6.21875 C 11.492188 -4.320312 13.773438 -3.375 16.703125 -3.375 C 18.085938 -3.375 19.445312 -3.632812 20.78125 -4.15625 C 22.113281 -4.6875 23.492188 -5.515625 24.921875 -6.640625 L 26.4375 -3.265625 C 25.238281 -2.140625 23.726562 -1.25 21.90625 -0.59375 C 20.09375 0.0625 18.207031 0.390625 16.25 0.390625 Z M 16.25 0.390625 "/></g></g></g><g fill="#000000" fill-opacity="1"><g transform="translate(149.00635, 211.875001)"><g><path d="M 18.5 -28.96875 C 25.289062 -28.96875 28.6875 -25.238281 28.6875 -17.78125 L 28.6875 0 L 24.125 0 L 24.125 -17.546875 C 24.125 -20.171875 23.597656 -22.09375 22.546875 -23.3125 C 21.503906 -24.53125 19.859375 -25.140625 17.609375 -25.140625 C 14.984375 -25.140625 12.878906 -24.332031 11.296875 -22.71875 C 9.722656 -21.113281 8.9375 -18.941406 8.9375 -16.203125 L 8.9375 0 L 4.390625 0 L 4.390625 -41.40625 L 8.9375 -41.40625 L 8.9375 -23.6875 C 9.84375 -25.40625 11.128906 -26.710938 12.796875 -27.609375 C 14.460938 -28.515625 16.363281 -28.96875 18.5 -28.96875 Z M 18.5 -28.96875 "/></g></g></g><g fill="#000000" fill-opacity="1"><g transform="translate(181.912621, 211.875001)"><g><path d="M 18.5 -28.96875 C 25.289062 -28.96875 28.6875 -25.238281 28.6875 -17.78125 L 28.6875 0 L 24.125 0 L 24.125 -17.546875 C 24.125 -20.171875 23.597656 -22.09375 22.546875 -23.3125 C 21.503906 -24.53125 19.859375 -25.140625 17.609375 -25.140625 C 14.984375 -25.140625 12.878906 -24.332031 11.296875 -22.71875 C 9.722656 -21.113281 8.9375 -18.941406 8.9375 -16.203125 L 8.9375 0 L 4.390625 0 L 4.390625 -20.359375 C 4.390625 -23.285156 4.238281 -25.929688 3.9375 -28.296875 L 8.265625 -28.296875 L 8.71875 -23.234375 C 9.582031 -25.066406 10.875 -26.476562 12.59375 -27.46875 C 14.320312 -28.46875 16.289062 -28.96875 18.5 -28.96875 Z M 18.5 -28.96875 "/></g></g></g><g fill="#000000" fill-opacity="1"><g transform="translate(214.818893, 211.875001)"><g><path d="M 4.390625 0 L 4.390625 -28.296875 L 8.9375 -28.296875 L 8.9375 0 Z M 3.9375 -40.28125 L 9.515625 -40.28125 L 9.515625 -35.109375 L 3.9375 -35.109375 Z M 3.9375 -40.28125 "/></g></g></g><g fill="#000000" fill-opacity="1"><g transform="translate(228.206397, 211.875001)"><g><path d="M 16.25 0.390625 C 13.519531 0.390625 11.128906 -0.207031 9.078125 -1.40625 C 7.035156 -2.601562 5.460938 -4.296875 4.359375 -6.484375 C 3.253906 -8.679688 2.703125 -11.242188 2.703125 -14.171875 C 2.703125 -17.097656 3.265625 -19.675781 4.390625 -21.90625 C 5.515625 -24.132812 7.113281 -25.867188 9.1875 -27.109375 C 11.269531 -28.347656 13.703125 -28.96875 16.484375 -28.96875 C 18.390625 -28.96875 20.234375 -28.640625 22.015625 -27.984375 C 23.796875 -27.328125 25.269531 -26.414062 26.4375 -25.25 L 24.921875 -21.875 C 23.492188 -23 22.113281 -23.820312 20.78125 -24.34375 C 19.445312 -24.875 18.085938 -25.140625 16.703125 -25.140625 C 13.816406 -25.140625 11.546875 -24.171875 9.890625 -22.234375 C 8.242188 -20.304688 7.421875 -17.617188 7.421875 -14.171875 C 7.421875 -10.765625 8.234375 -8.113281 9.859375 -6.21875 C 11.492188 -4.320312 13.773438 -3.375 16.703125 -3.375 C 18.085938 -3.375 19.445312 -3.632812 20.78125 -4.15625 C 22.113281 -4.6875 23.492188 -5.515625 24.921875 -6.640625 L 26.4375 -3.265625 C 25.238281 -2.140625 23.726562 -1.25 21.90625 -0.59375 C 20.09375 0.0625 18.207031 0.390625 16.25 0.390625 Z M 16.25 0.390625 "/></g></g></g><g fill="#000000" fill-opacity="1"><g transform="translate(256.050169, 211.875001)"><g><path d="M 29.3125 -28.296875 L 29.3125 0 L 24.8125 0 L 24.8125 -5.125 C 23.976562 -3.351562 22.726562 -1.988281 21.0625 -1.03125 C 19.394531 -0.0820312 17.457031 0.390625 15.25 0.390625 C 12.726562 0.390625 10.519531 -0.207031 8.625 -1.40625 C 6.738281 -2.601562 5.28125 -4.296875 4.25 -6.484375 C 3.21875 -8.679688 2.703125 -11.242188 2.703125 -14.171875 C 2.703125 -17.097656 3.222656 -19.675781 4.265625 -21.90625 C 5.316406 -24.132812 6.789062 -25.867188 8.6875 -27.109375 C 10.582031 -28.347656 12.769531 -28.96875 15.25 -28.96875 C 17.457031 -28.96875 19.382812 -28.476562 21.03125 -27.5 C 22.6875 -26.53125 23.945312 -25.164062 24.8125 -23.40625 L 24.8125 -28.296875 Z M 16.140625 -3.375 C 18.921875 -3.375 21.0625 -4.320312 22.5625 -6.21875 C 24.0625 -8.113281 24.8125 -10.800781 24.8125 -14.28125 C 24.8125 -17.769531 24.0625 -20.453125 22.5625 -22.328125 C 21.0625 -24.203125 18.921875 -25.140625 16.140625 -25.140625 C 13.367188 -25.140625 11.203125 -24.171875 9.640625 -22.234375 C 8.085938 -20.304688 7.3125 -17.617188 7.3125 -14.171875 C 7.3125 -10.722656 8.078125 -8.0625 9.609375 -6.1875 C 11.148438 -4.3125 13.328125 -3.375 16.140625 -3.375 Z M 16.140625 -3.375 "/></g></g></g><g fill="#000000" fill-opacity="1"><g transform="translate(289.800191, 211.875001)"><g><path d="M 4.390625 0 L 4.390625 -41.40625 L 8.9375 -41.40625 L 8.9375 0 Z M 4.390625 0 "/></g></g></g><g fill="#000000" fill-opacity="1"><g transform="translate(303.187695, 211.875001)"><g/></g></g><g fill="#000000" fill-opacity="1"><g transform="translate(317.868954, 211.875001)"><g><path d="M 56.078125 -40.046875 L 60.640625 -40.046875 L 46.625 0 L 42.6875 0 L 31.28125 -32.796875 L 19.796875 0 L 15.921875 0 L 1.859375 -40.046875 L 6.578125 -40.046875 L 17.9375 -6.578125 L 29.59375 -40.046875 L 33.125 -40 L 44.609375 -6.46875 Z M 56.078125 -40.046875 "/></g></g></g><g fill="#000000" fill-opacity="1"><g transform="translate(377.212747, 211.875001)"><g><path d="M 17.546875 -28.96875 C 18.484375 -28.96875 19.347656 -28.851562 20.140625 -28.625 L 20.03125 -24.46875 C 19.164062 -24.769531 18.171875 -24.921875 17.046875 -24.921875 C 14.304688 -24.921875 12.269531 -24.066406 10.9375 -22.359375 C 9.601562 -20.648438 8.9375 -18.578125 8.9375 -16.140625 L 8.9375 0 L 4.390625 0 L 4.390625 -20.359375 C 4.390625 -23.285156 4.238281 -25.929688 3.9375 -28.296875 L 8.265625 -28.296875 L 8.71875 -23.0625 C 9.425781 -24.976562 10.566406 -26.441406 12.140625 -27.453125 C 13.722656 -28.460938 15.523438 -28.96875 17.546875 -28.96875 Z M 17.546875 -28.96875 "/></g></g></g><g fill="#000000" fill-opacity="1"><g transform="translate(397.575241, 211.875001)"><g><path d="M 4.390625 0 L 4.390625 -28.296875 L 8.9375 -28.296875 L 8.9375 0 Z M 3.9375 -40.28125 L 9.515625 -40.28125 L 9.515625 -35.109375 L 3.9375 -35.109375 Z M 3.9375 -40.28125 "/></g></g></g><g fill="#000000" fill-opacity="1"><g transform="translate(410.962723, 211.875001)"><g><path d="M 10.46875 -24.6875 L 10.46875 -9.21875 C 10.46875 -7.125 10.894531 -5.65625 11.75 -4.8125 C 12.613281 -3.96875 13.832031 -3.546875 15.40625 -3.546875 C 16.457031 -3.546875 17.472656 -3.710938 18.453125 -4.046875 L 18.453125 -0.171875 C 17.285156 0.203125 15.972656 0.390625 14.515625 0.390625 C 11.816406 0.390625 9.707031 -0.363281 8.1875 -1.875 C 6.664062 -3.394531 5.90625 -5.640625 5.90625 -8.609375 L 5.90625 -24.6875 L 0.390625 -24.6875 L 0.390625 -28.296875 L 5.90625 -28.296875 L 5.90625 -35.546875 L 10.46875 -37.1875 L 10.46875 -28.296875 L 18.5625 -28.296875 L 18.5625 -24.6875 Z M 10.46875 -24.6875 "/></g></g></g><g fill="#000000" fill-opacity="1"><g transform="translate(430.650222, 211.875001)"><g><path d="M 4.390625 0 L 4.390625 -28.296875 L 8.9375 -28.296875 L 8.9375 0 Z M 3.9375 -40.28125 L 9.515625 -40.28125 L 9.515625 -35.109375 L 3.9375 -35.109375 Z M 3.9375 -40.28125 "/></g></g></g><g fill="#000000" fill-opacity="1"><g transform="translate(444.037703, 211.875001)"><g><path d="M 18.5 -28.96875 C 25.289062 -28.96875 28.6875 -25.238281 28.6875 -17.78125 L 28.6875 0 L 24.125 0 L 24.125 -17.546875 C 24.125 -20.171875 23.597656 -22.09375 22.546875 -23.3125 C 21.503906 -24.53125 19.859375 -25.140625 17.609375 -25.140625 C 14.984375 -25.140625 12.878906 -24.332031 11.296875 -22.71875 C 9.722656 -21.113281 8.9375 -18.941406 8.9375 -16.203125 L 8.9375 0 L 4.390625 0 L 4.390625 -20.359375 C 4.390625 -23.285156 4.238281 -25.929688 3.9375 -28.296875 L 8.265625 -28.296875 L 8.71875 -23.234375 C 9.582031 -25.066406 10.875 -26.476562 12.59375 -27.46875 C 14.320312 -28.46875 16.289062 -28.96875 18.5 -28.96875 Z M 18.5 -28.96875 "/></g></g><g transform="translate(476.943952, 211.875001)"><g><path d="M 29.59375 -28.296875 L 29.59375 -0.21875 C 29.59375 3.976562 28.515625 7.15625 26.359375 9.3125 C 24.203125 11.46875 21.019531 12.546875 16.8125 12.546875 C 12.5 12.546875 8.789062 11.570312 5.6875 9.625 L 6.46875 5.90625 C 8.269531 6.914062 9.96875 7.644531 11.5625 8.09375 C 13.15625 8.550781 14.90625 8.78125 16.8125 8.78125 C 19.550781 8.78125 21.613281 8.054688 23 6.609375 C 24.394531 5.160156 25.09375 3.015625 25.09375 0.171875 L 25.09375 -6.53125 C 24.226562 -4.726562 22.957031 -3.328125 21.28125 -2.328125 C 19.613281 -1.335938 17.640625 -0.84375 15.359375 -0.84375 C 12.878906 -0.84375 10.671875 -1.421875 8.734375 -2.578125 C 6.804688 -3.742188 5.316406 -5.394531 4.265625 -7.53125 C 3.222656 -9.675781 2.703125 -12.132812 2.703125 -14.90625 C 2.703125 -17.675781 3.222656 -20.128906 4.265625 -22.265625 C 5.316406 -24.410156 6.804688 -26.0625 8.734375 -27.21875 C 10.671875 -28.382812 12.878906 -28.96875 15.359375 -28.96875 C 17.609375 -28.96875 19.566406 -28.476562 21.234375 -27.5 C 22.898438 -26.53125 24.164062 -25.164062 25.03125 -23.40625 L 25.03125 -28.296875 Z M 16.25 -4.671875 C 18.988281 -4.671875 21.132812 -5.578125 22.6875 -7.390625 C 24.25 -9.210938 25.03125 -11.71875 25.03125 -14.90625 C 25.03125 -18.09375 24.25 -20.59375 22.6875 -22.40625 C 21.132812 -24.226562 18.988281 -25.140625 16.25 -25.140625 C 13.476562 -25.140625 11.296875 -24.226562 9.703125 -22.40625 C 8.109375 -20.59375 7.3125 -18.09375 7.3125 -14.90625 C 7.3125 -11.71875 8.109375 -9.210938 9.703125 -7.390625 C 11.296875 -5.578125 13.476562 -4.671875 16.25 -4.671875 Z M 16.25 -4.671875 "/></g></g></g><g clip-path="url(#25dc757cc6)"><path fill="#004aad" d="M 755.875 0.128906 C 761.789062 0.113281 767.867188 0.84375 773.847656 2.359375 C 781.4375 4.285156 788.328125 7.675781 794.625 12.308594 C 796.949219 14.019531 799.164062 15.867188 801.195312 17.925781 C 803.914062 20.675781 805.945312 23.871094 807.308594 27.488281 C 808.15625 29.714844 808.925781 31.96875 809.335938 34.328125 C 809.597656 35.867188 809.757812 37.417969 809.878906 38.976562 C 809.980469 40.320312 810.089844 41.664062 810.136719 43.015625 C 810.203125 44.773438 809.898438 46.492188 809.464844 48.191406 C 808.730469 51.054688 807.527344 53.734375 806.3125 56.40625 C 804.585938 60.195312 802.5 63.792969 800.503906 67.4375 C 798.390625 71.296875 796.375 75.199219 795.035156 79.410156 C 794.144531 82.21875 793.558594 85.085938 793.328125 88.03125 C 792.988281 92.363281 793.613281 96.578125 794.691406 100.753906 C 795.777344 104.964844 797.269531 109.039062 798.746094 113.121094 C 800.449219 117.824219 802.15625 122.53125 803.261719 127.421875 C 803.976562 130.574219 804.476562 133.753906 804.535156 137.003906 C 804.601562 140.914062 804.144531 144.714844 802.625 148.34375 C 800.902344 152.460938 798.089844 155.652344 794.277344 157.949219 C 791.167969 159.820312 787.765625 160.832031 784.183594 161.3125 C 779.425781 161.957031 774.734375 161.492188 770.085938 160.441406 C 765.652344 159.433594 761.429688 157.820312 757.277344 156.015625 C 753.6875 154.457031 750.152344 152.757812 746.519531 151.300781 C 742.085938 149.515625 737.554688 148.109375 732.804688 147.445312 C 730.445312 147.113281 728.074219 146.910156 725.695312 146.820312 C 723.867188 146.753906 722.042969 146.667969 720.214844 146.707031 C 716.933594 146.777344 713.652344 146.863281 710.371094 146.941406 C 706.742188 147.027344 703.117188 146.957031 699.496094 146.71875 C 696.957031 146.550781 694.4375 146.28125 691.925781 145.894531 C 686.773438 145.097656 681.789062 143.726562 677.09375 141.417969 C 674.011719 139.90625 671.152344 138.035156 668.691406 135.625 C 665.640625 132.636719 663.429688 129.140625 662.535156 124.902344 C 662.101562 122.867188 662.015625 120.8125 662.207031 118.746094 C 662.589844 114.554688 663.957031 110.644531 665.558594 106.796875 C 667.007812 103.324219 668.6875 99.957031 670.261719 96.550781 C 672.148438 92.464844 673.953125 88.34375 675.339844 84.054688 C 676.558594 80.269531 677.410156 76.394531 678.015625 72.46875 C 678.59375 68.703125 678.988281 64.914062 679.460938 61.136719 C 680.054688 56.4375 680.792969 51.761719 682.117188 47.195312 C 684.09375 40.386719 687.136719 34.117188 691.519531 28.519531 C 695.257812 23.746094 699.671875 19.699219 704.601562 16.203125 C 712.632812 10.511719 721.445312 6.488281 730.894531 3.792969 C 734.738281 2.699219 738.625 1.800781 742.574219 1.179688 C 745.265625 0.757812 747.972656 0.457031 750.695312 0.289062 C 752.335938 0.191406 753.972656 0.175781 755.871094 0.140625 Z M 720.246094 142.890625 C 724.429688 142.867188 728.3125 143.007812 732.179688 143.488281 C 735.734375 143.929688 739.207031 144.722656 742.617188 145.8125 C 747.542969 147.386719 752.222656 149.570312 756.929688 151.675781 C 760.722656 153.371094 764.550781 154.980469 768.566406 156.097656 C 772.824219 157.28125 777.136719 157.957031 781.570312 157.703125 C 783.992188 157.566406 786.359375 157.167969 788.640625 156.363281 C 794.3125 154.367188 798.164062 150.570312 799.84375 144.730469 C 800.878906 141.140625 800.914062 137.464844 800.5 133.78125 C 800.078125 130.039062 799.160156 126.398438 798.039062 122.804688 C 797.085938 119.746094 795.980469 116.742188 794.894531 113.726562 C 793.433594 109.671875 791.984375 105.609375 790.90625 101.425781 C 789.691406 96.726562 789.117188 91.976562 789.554688 87.117188 C 789.898438 83.316406 790.824219 79.664062 792.136719 76.101562 C 793.613281 72.085938 795.632812 68.332031 797.695312 64.601562 C 799.890625 60.640625 802.09375 56.683594 803.863281 52.511719 C 805.066406 49.679688 805.796875 46.742188 805.921875 43.667969 C 806.015625 41.394531 806.085938 39.113281 805.785156 36.847656 C 805.570312 35.246094 805.371094 33.632812 804.816406 32.113281 C 803.707031 29.082031 802.609375 26.054688 800.714844 23.375 C 799.914062 22.242188 799.078125 21.164062 798.089844 20.207031 C 795.378906 17.585938 792.425781 15.269531 789.253906 13.230469 C 785.609375 10.890625 781.769531 8.9375 777.679688 7.507812 C 774.203125 6.285156 770.636719 5.433594 766.996094 4.84375 C 764.144531 4.386719 761.273438 4.105469 758.398438 3.976562 C 754.507812 3.800781 750.617188 4.007812 746.746094 4.449219 C 743.195312 4.84375 739.6875 5.484375 736.214844 6.324219 C 728.773438 8.113281 721.621094 10.664062 714.867188 14.3125 C 710.125 16.878906 705.65625 19.839844 701.609375 23.414062 C 698.300781 26.335938 695.324219 29.550781 692.8125 33.1875 C 688.558594 39.34375 685.984375 46.183594 684.527344 53.476562 C 683.710938 57.550781 683.25 61.683594 682.765625 65.808594 C 682.363281 69.273438 681.921875 72.738281 681.28125 76.171875 C 680.1875 82.023438 678.359375 87.648438 676 93.109375 C 674.246094 97.167969 672.300781 101.136719 670.453125 105.152344 C 669.148438 107.992188 667.925781 110.871094 667.054688 113.875 C 666.261719 116.609375 665.757812 119.378906 666.019531 122.25 C 666.191406 124.09375 666.640625 125.84375 667.433594 127.507812 C 668.8125 130.390625 670.894531 132.6875 673.394531 134.632812 C 676.367188 136.949219 679.695312 138.605469 683.242188 139.839844 C 689.324219 141.960938 695.640625 142.734375 702.027344 143.019531 C 704.859375 143.144531 707.695312 143.082031 710.527344 143.066406 C 713.863281 143.050781 717.195312 142.832031 720.242188 142.882812 Z M 720.246094 142.890625 " fill-opacity="1" fill-rule="nonzero"/></g><g clip-path="url(#2e55be74f3)"><path fill="#ff3131" d="M 899.246094 125.347656 C 899.875 135.242188 899.011719 144.683594 896.664062 153.988281 C 894.183594 163.816406 890.15625 172.964844 884.605469 181.433594 C 879.5 189.226562 873.28125 196.011719 865.964844 201.785156 C 856.828125 209 846.707031 214.414062 835.746094 218.296875 C 830.652344 220.101562 825.453125 221.519531 820.164062 222.578125 C 815.96875 223.417969 811.742188 224.03125 807.476562 224.414062 C 804.988281 224.636719 802.496094 224.777344 800.003906 224.851562 C 795.179688 225 790.367188 224.800781 785.570312 224.28125 C 778.269531 223.496094 771.132812 221.996094 764.171875 219.644531 C 753.351562 215.996094 743.703125 210.390625 735.457031 202.453125 C 728.941406 196.179688 723.710938 188.976562 720.054688 180.667969 C 718.253906 176.582031 716.921875 172.347656 716.199219 167.945312 C 715.035156 160.847656 715.660156 153.929688 718.492188 147.277344 C 720.921875 141.566406 724.742188 136.957031 729.703125 133.257812 C 734.144531 129.945312 739.101562 127.660156 744.398438 126.09375 C 750.664062 124.234375 757.097656 123.582031 763.613281 123.488281 C 769.792969 123.402344 775.941406 123.839844 782.074219 124.488281 C 786.554688 124.964844 790.996094 125.679688 795.445312 126.386719 C 798.195312 126.820312 800.953125 127.199219 803.753906 126.9375 C 804.21875 126.890625 804.652344 126.796875 805.074219 126.59375 C 807.128906 125.601562 808.65625 124.128906 809.707031 122.054688 C 811.507812 118.484375 811.785156 114.753906 811.183594 110.902344 C 810.746094 108.121094 809.945312 105.425781 808.972656 102.785156 C 808.421875 101.269531 808.089844 99.703125 807.808594 98.125 C 807.042969 93.800781 806.332031 89.472656 806.203125 85.066406 C 806.054688 79.765625 806.65625 74.585938 808.746094 69.652344 C 811.0625 64.191406 814.730469 59.910156 819.929688 56.988281 C 822.710938 55.429688 825.695312 54.449219 828.835938 53.921875 C 835.773438 52.753906 842.496094 53.734375 849.085938 55.953125 C 855.449219 58.097656 861.273438 61.289062 866.652344 65.28125 C 876.316406 72.460938 883.941406 81.417969 889.667969 91.996094 C 892.875 97.925781 895.246094 104.1875 896.886719 110.722656 C 898.121094 115.636719 898.875 120.617188 899.242188 125.34375 Z M 895.078125 125.902344 C 895.03125 125.21875 894.996094 124.53125 894.933594 123.84375 C 894.550781 119.492188 893.800781 115.199219 892.695312 110.972656 C 890.535156 102.722656 887.140625 95.015625 882.410156 87.902344 C 877.246094 80.132812 870.945312 73.433594 863.347656 67.988281 C 857.96875 64.132812 852.167969 61.101562 845.789062 59.25 C 840.03125 57.585938 834.210938 56.96875 828.277344 58.246094 C 825.671875 58.808594 823.21875 59.753906 820.96875 61.179688 C 816.359375 64.105469 813.410156 68.289062 811.753906 73.433594 C 810.542969 77.195312 810.238281 81.070312 810.339844 84.992188 C 810.449219 89.339844 811.191406 93.609375 812.125 97.84375 C 812.460938 99.355469 812.8125 100.867188 813.21875 102.355469 C 813.535156 103.515625 813.980469 104.636719 814.28125 105.804688 C 814.917969 108.25 815.433594 110.707031 815.570312 113.25 C 815.757812 116.703125 815.140625 119.957031 813.761719 123.128906 C 812.328125 126.417969 810.015625 128.757812 806.839844 130.371094 C 805.398438 131.101562 803.917969 131.367188 802.351562 131.292969 C 800.203125 131.191406 798.0625 130.988281 795.9375 130.652344 C 788.914062 129.53125 781.886719 128.472656 774.78125 127.996094 C 770.257812 127.6875 765.726562 127.515625 761.195312 127.683594 C 757.605469 127.820312 754.042969 128.195312 750.511719 128.875 C 746.40625 129.667969 742.445312 130.898438 738.671875 132.691406 C 733.597656 135.109375 729.179688 138.367188 725.78125 142.902344 C 721.691406 148.355469 719.824219 154.546875 719.808594 161.3125 C 719.796875 166.839844 721.054688 172.117188 723.097656 177.222656 C 726.714844 186.285156 732.328125 193.960938 739.460938 200.558594 C 747.355469 207.851562 756.554688 212.882812 766.746094 216.15625 C 777.757812 219.6875 789.070312 221.054688 800.601562 220.710938 C 804.816406 220.585938 809.019531 220.199219 813.199219 219.582031 C 817.914062 218.886719 822.574219 217.9375 827.167969 216.667969 C 838.152344 213.644531 848.40625 209.003906 857.855469 202.625 C 864.164062 198.363281 869.851562 193.394531 874.808594 187.597656 C 881.871094 179.34375 887.113281 170.054688 890.636719 159.792969 C 894.402344 148.804688 895.863281 137.5 895.082031 125.914062 Z M 895.078125 125.902344 " fill-opacity="1" fill-rule="nonzero"/></g></svg>